{
DisplayStrings = (
"/nukta-deva/nukta_halant-deva/nukta_rakar-deva/nukta_rakar_uMatra-deva/nukta_rakar_uuMatra-deva/anusvara-deva/nukta-deva/nukta-deva/rakar-deva/rakar_rVocalicMatra-deva/nukta_rakar_rVocalicMatra-deva/nukta_rakar_rrVocalicMatra-deva/nukta_rakar_lVocalicMatra-deva/nukta_rakar_llVocalicMatra-deva",
"/ka-deva  /ka-deva/nukta-deva  /ka-deva/halant-deva/zerowidthjoiner  /ka-deva/nukta-deva/halant-deva/zerowidthjoiner  /ka-deva/halant-deva/ra-deva  /ka-deva/nukta-deva/halant-deva/ra-deva/ka-deva/halant-deva/ra-deva/halant-deva/va-deva/ka-deva/nukta-deva/halant-deva/ra-deva/halant-deva/va-deva",
"/ka-deva/halant-deva/ra-deva/kha-deva/halant-deva/ra-deva/ga-deva/halant-deva/ra-deva/gha-deva/halant-deva/ra-deva/ca-deva/halant-deva/ra-deva/ja-deva/halant-deva/ra-deva/jha-deva/halant-deva/ra-deva/nya-deva/halant-deva/ra-deva/nna-deva/halant-deva/ra-deva/ta-deva/halant-deva/ra-deva/tha-deva/halant-deva/ra-deva/dha-deva/halant-deva/ra-deva/na-deva/halant-deva/ra-deva/pa-deva/halant-deva/ra-deva/pha-deva/halant-deva/ra-deva/ba-deva/halant-deva/ra-deva/bha-deva/halant-deva/ra-deva/ma-deva/halant-deva/ra-deva/ya-deva/halant-deva/ra-deva/la-deva/halant-deva/ra-deva/va-deva/halant-deva/ra-deva/sha-deva/halant-deva/ra-deva/ssa-deva/halant-deva/ra-deva/sa-deva/halant-deva/ra-deva",

glyphs = (
{
glyphname = A;
lastChange = "2015-02-26 04:32:42 +0000";
layers = (
{
anchors = (
{
name = bottom;
position = "{551, 0}";
},
{
name = ogonek;
position = "{1038.5, 0}";
},
{
name = top;
position = "{546, 1244}";
}
);
background = {
anchors = (
{
name = bottom;
position = "{551, 0}";
},
{
name = ogonek;
position = "{1038.5, 0}";
},
{
name = top;
position = "{546, 1244}";
}
);
paths = (
{
closed = 1;
nodes = (
"106.5 -3 LINE SMOOTH",
"142.5 -3 OFFCURVE",
"171 3 OFFCURVE",
"178 24.5 CURVE SMOOTH",
"279.5 316.5 LINE",
"802 316.5 LINE",
"906 24.5 LINE SMOOTH",
"913.5 3 OFFCURVE",
"942 -3 OFFCURVE",
"978 -3 CURVE SMOOTH",
"992.5 -3 LINE SMOOTH",
"1045.5 -3 OFFCURVE",
"1068 9 OFFCURVE",
"1068 26.5 CURVE SMOOTH",
"1068 34 OFFCURVE",
"1067 41 OFFCURVE",
"1063 50 CURVE SMOOTH",
"642 1219.5 LINE SMOOTH",
"635 1241 OFFCURVE",
"606 1248.5 OFFCURVE",
"570.5 1248.5 CURVE SMOOTH",
"519 1248.5 LINE SMOOTH",
"483.5 1248.5 OFFCURVE",
"454.5 1241 OFFCURVE",
"447.5 1219.5 CURVE SMOOTH",
"26.5 51 LINE SMOOTH",
"23.5 41 OFFCURVE",
"21.5 34 OFFCURVE",
"21.5 26.5 CURVE SMOOTH",
"21.5 7 OFFCURVE",
"44 -3 OFFCURVE",
"97.5 -3 CURVE SMOOTH"
);
},
{
closed = 1;
nodes = (
"515 981 LINE SMOOTH",
"528.5 1015 OFFCURVE",
"535.5 1050.5 OFFCURVE",
"541.5 1084.5 CURVE",
"546 1084.5 LINE",
"551 1050.5 OFFCURVE",
"556 1014 OFFCURVE",
"567.5 981 CURVE SMOOTH",
"753.5 451.5 LINE",
"328.5 451.5 LINE"
);
}
);
};
layerId = "FB715283-CFB2-4766-AFCA-39E45F97C573";
name = Regular;
paths = (
{
closed = 1;
nodes = (
"106.5 -3 LINE SMOOTH",
"142.5 -3 OFFCURVE",
"171 3 OFFCURVE",
"178 24.5 CURVE SMOOTH",
"279.5 316.5 LINE",
"802 316.5 LINE",
"906 24.5 LINE SMOOTH",
"913.5 3 OFFCURVE",
"942 -3 OFFCURVE",
"978 -3 CURVE SMOOTH",
"992.5 -3 LINE SMOOTH",
"1045.5 -3 OFFCURVE",
"1068 9 OFFCURVE",
"1068 26.5 CURVE SMOOTH",
"1068 34 OFFCURVE",
"1067 41 OFFCURVE",
"1063 50 CURVE SMOOTH",
"642 1219.5 LINE SMOOTH",
"635 1241 OFFCURVE",
"606 1248.5 OFFCURVE",
"570.5 1248.5 CURVE SMOOTH",
"519 1248.5 LINE SMOOTH",
"483.5 1248.5 OFFCURVE",
"454.5 1241 OFFCURVE",
"447.5 1219.5 CURVE SMOOTH",
"26.5 51 LINE SMOOTH",
"23.5 41 OFFCURVE",
"21.5 34 OFFCURVE",
"21.5 26.5 CURVE SMOOTH",
"21.5 7 OFFCURVE",
"44 -3 OFFCURVE",
"97.5 -3 CURVE SMOOTH"
);
},
{
closed = 1;
nodes = (
"515 981 LINE SMOOTH",
"528.5 1015 OFFCURVE",
"535.5 1050.5 OFFCURVE",
"541.5 1084.5 CURVE",
"546 1084.5 LINE",
"551 1050.5 OFFCURVE",
"556 1014 OFFCURVE",
"567.5 981 CURVE SMOOTH",
"753.5 451.5 LINE",
"328.5 451.5 LINE"
);
}
);
width = 1089.5;
},
{
anchors = (
{
name = bottom;
position = "{551, 0}";
},
{
name = ogonek;
position = "{981, 0}";
},
{
name = top;
position = "{546, 1244}";
}
);
layerId = "78047C5B-B34F-4F0E-9C92-9BD1482D9144";
name = Bold;
paths = (
{
closed = 1;
nodes = (
"179 -3 LINE SMOOTH",
"222 -3 OFFCURVE",
"253 7 OFFCURVE",
"261 34 CURVE SMOOTH",
"333 251 LINE",
"751.5 251 LINE",
"823.5 34 LINE SMOOTH",
"831.5 5 OFFCURVE",
"871.5 -3 OFFCURVE",
"922.5 -3 CURVE SMOOTH",
"1000.5 -3 LINE SMOOTH",
"1063 -3 OFFCURVE",
"1089.5 10 OFFCURVE",
"1089.5 36 CURVE SMOOTH",
"1089.5 44 OFFCURVE",
"1087.5 55.5 OFFCURVE",
"1084.5 67.5 CURVE SMOOTH",
"693 1210.5 LINE SMOOTH",
"683 1239 OFFCURVE",
"643 1248.5 OFFCURVE",
"592 1248.5 CURVE SMOOTH",
"499.5 1248.5 LINE SMOOTH",
"447.5 1248.5 OFFCURVE",
"408.5 1239 OFFCURVE",
"398.5 1210.5 CURVE SMOOTH",
"7 67.5 LINE SMOOTH",
"3 55.5 OFFCURVE",
"0 44 OFFCURVE",
"0 36 CURVE SMOOTH",
"0 10 OFFCURVE",
"34 -3 OFFCURVE",
"108.5 -3 CURVE SMOOTH"
);
},
{
closed = 1;
nodes = (
"514 802 LINE SMOOTH",
"528.5 838.5 OFFCURVE",
"533.5 878.5 OFFCURVE",
"540.5 915.5 CURVE",
"548 915.5 LINE",
"555 878.5 OFFCURVE",
"562 838.5 OFFCURVE",
"574.5 802 CURVE SMOOTH",
"676 485.5 LINE",
"408.5 485.5 LINE"
);
}
);
width = 1089.5;
}
);
leftKerningGroup = A;
rightKerningGroup = A;
unicode = 0041;
},
{
glyphname = Aringacute;
lastChange = "2015-02-26 04:32:42 +0000";
layers = (
{
background = {
components = (
{
disableAlignment = 1;
name = ring;
transform = "{1, 0, 0, 1, 261.317, 106.66}";
}
);
paths = (
{
closed = 1;
nodes = (
"106.5 -3 LINE SMOOTH",
"142.5 -3 OFFCURVE",
"171 3 OFFCURVE",
"178 24.5 CURVE SMOOTH",
"279.5 316.5 LINE",
"802 316.5 LINE",
"906 24.5 LINE SMOOTH",
"913.5 3 OFFCURVE",
"942 -3 OFFCURVE",
"978 -3 CURVE SMOOTH",
"992.5 -3 LINE SMOOTH",
"1045.5 -3 OFFCURVE",
"1068 9 OFFCURVE",
"1068 26.5 CURVE SMOOTH",
"1068 34 OFFCURVE",
"1067 41 OFFCURVE",
"1063 50 CURVE SMOOTH",
"642 1219.5 LINE",
"570.5 1142 LINE",
"519 1142 LINE",
"447.5 1219.5 LINE",
"26.5 51 LINE SMOOTH",
"23.5 41 OFFCURVE",
"21.5 34 OFFCURVE",
"21.5 26.5 CURVE SMOOTH",
"21.5 7 OFFCURVE",
"44 -3 OFFCURVE",
"97.5 -3 CURVE SMOOTH"
);
},
{
closed = 1;
nodes = (
"515 981 LINE SMOOTH",
"528.5 1015 OFFCURVE",
"535.5 1050.5 OFFCURVE",
"541.5 1084.5 CURVE",
"546 1084.5 LINE",
"551 1050.5 OFFCURVE",
"556 1014 OFFCURVE",
"567.5 981 CURVE SMOOTH",
"753.5 451.5 LINE",
"328.5 451.5 LINE"
);
},
{
closed = 1;
nodes = (
"553 1461 OFFCURVE",
"587 1471.5 OFFCURVE",
"606 1493 CURVE SMOOTH",
"720 1606.5 OFFCURVE",
"736.5 1616 OFFCURVE",
"736.5 1628 CURVE SMOOTH",
"736.5 1646.5 OFFCURVE",
"707.5 1651.5 OFFCURVE",
"650 1651.5 CURVE SMOOTH",
"594 1651.5 OFFCURVE",
"560 1640.5 OFFCURVE",
"540.5 1605.5 CURVE SMOOTH",
"519 1565.5 OFFCURVE",
"507 1543 OFFCURVE",
"475 1478.5 CURVE SMOOTH",
"475 1466.5 OFFCURVE",
"487.5 1461 OFFCURVE",
"515 1461 CURVE SMOOTH"
);
}
);
};
components = (
{
disableAlignment = 1;
name = ring;
transform = "{1, 0, 0, 1, 261.317, 106.66}";
}
);
layerId = "FB715283-CFB2-4766-AFCA-39E45F97C573";
name = Regular;
paths = (
{
closed = 1;
nodes = (
"106.5 -3 LINE SMOOTH",
"142.5 -3 OFFCURVE",
"171 3 OFFCURVE",
"178 24.5 CURVE SMOOTH",
"279.5 316.5 LINE",
"802 316.5 LINE",
"906 24.5 LINE SMOOTH",
"913.5 3 OFFCURVE",
"942 -3 OFFCURVE",
"978 -3 CURVE SMOOTH",
"992.5 -3 LINE SMOOTH",
"1045.5 -3 OFFCURVE",
"1068 9 OFFCURVE",
"1068 26.5 CURVE SMOOTH",
"1068 34 OFFCURVE",
"1067 41 OFFCURVE",
"1063 50 CURVE SMOOTH",
"642 1219.5 LINE",
"570.5 1142 LINE",
"519 1142 LINE",
"447.5 1219.5 LINE",
"26.5 51 LINE SMOOTH",
"23.5 41 OFFCURVE",
"21.5 34 OFFCURVE",
"21.5 26.5 CURVE SMOOTH",
"21.5 7 OFFCURVE",
"44 -3 OFFCURVE",
"97.5 -3 CURVE SMOOTH"
);
},
{
closed = 1;
nodes = (
"515 981 LINE SMOOTH",
"528.5 1015 OFFCURVE",
"535.5 1050.5 OFFCURVE",
"541.5 1084.5 CURVE",
"546 1084.5 LINE",
"551 1050.5 OFFCURVE",
"556 1014 OFFCURVE",
"567.5 981 CURVE SMOOTH",
"753.5 451.5 LINE",
"328.5 451.5 LINE"
);
},
{
closed = 1;
nodes = (
"553 1461 OFFCURVE",
"587 1471.5 OFFCURVE",
"606 1493 CURVE SMOOTH",
"720 1606.5 OFFCURVE",
"736.5 1616 OFFCURVE",
"736.5 1628 CURVE SMOOTH",
"736.5 1646.5 OFFCURVE",
"707.5 1651.5 OFFCURVE",
"650 1651.5 CURVE SMOOTH",
"594 1651.5 OFFCURVE",
"560 1640.5 OFFCURVE",
"540.5 1605.5 CURVE SMOOTH",
"519 1565.5 OFFCURVE",
"507 1543 OFFCURVE",
"475 1478.5 CURVE SMOOTH",
"475 1466.5 OFFCURVE",
"487.5 1461 OFFCURVE",
"515 1461 CURVE SMOOTH"
);
}
);
width = 1089.5;
},
{
components = (
{
disableAlignment = 1;
name = ring;
transform = "{1, 0, 0, 1, 261.317, 83.55}";
}
);
layerId = "78047C5B-B34F-4F0E-9C92-9BD1482D9144";
name = Bold;
paths = (
{
closed = 1;
nodes = (
"179 -3 LINE SMOOTH",
"222 -3 OFFCURVE",
"253 7 OFFCURVE",
"261 34 CURVE SMOOTH",
"333 251 LINE",
"751.5 251 LINE",
"823.5 34 LINE SMOOTH",
"831.5 5 OFFCURVE",
"871.5 -3 OFFCURVE",
"922.5 -3 CURVE SMOOTH",
"1000.5 -3 LINE SMOOTH",
"1063 -3 OFFCURVE",
"1089.5 10 OFFCURVE",
"1089.5 36 CURVE SMOOTH",
"1089.5 44 OFFCURVE",
"1087.5 55.5 OFFCURVE",
"1084.5 67.5 CURVE SMOOTH",
"693 1210.5 LINE",
"592 1123.5 LINE",
"499.5 1123.5 LINE",
"398.5 1210.5 LINE",
"7 67.5 LINE SMOOTH",
"3 55.5 OFFCURVE",
"0 44 OFFCURVE",
"0 36 CURVE SMOOTH",
"0 10 OFFCURVE",
"34 -3 OFFCURVE",
"108.5 -3 CURVE SMOOTH"
);
},
{
closed = 1;
nodes = (
"514 802 LINE SMOOTH",
"528.5 838.5 OFFCURVE",
"533.5 878.5 OFFCURVE",
"540.5 915.5 CURVE",
"548 915.5 LINE",
"555 878.5 OFFCURVE",
"562 838.5 OFFCURVE",
"574.5 802 CURVE SMOOTH",
"676 485.5 LINE",
"408.5 485.5 LINE"
);
},
{
closed = 1;
nodes = (
"603 1444 OFFCURVE",
"633 1466.5 OFFCURVE",
"652.5 1488 CURVE SMOOTH",
"785.5 1613 OFFCURVE",
"794.5 1616 OFFCURVE",
"794.5 1630 CURVE SMOOTH",
"794.5 1649.5 OFFCURVE",
"759 1655 OFFCURVE",
"688 1655 CURVE SMOOTH",
"616.5 1655 OFFCURVE",
"558 1644.5 OFFCURVE",
"536.5 1606.5 CURVE SMOOTH",
"510 1565.5 OFFCURVE",
"492.5 1536 OFFCURVE",
"464 1470.5 CURVE SMOOTH",
"464 1451 OFFCURVE",
"476 1444 OFFCURVE",
"519 1444 CURVE SMOOTH"
);
}
);
width = 1089.5;
}
);
leftKerningGroup = A;
rightKerningGroup = A;
unicode = 01FA;
},
{
glyphname = AE;
lastChange = "2015-02-26 04:32:42 +0000";
layers = (
{
anchors = (
{
name = top;
position = "{814, 1244}";
}
);
background = {
anchors = (
{
name = top;
position = "{814, 1244}";
}
);
paths = (
{
closed = 1;
nodes = (
"58.5 -3 LINE SMOOTH",
"92 -3 OFFCURVE",
"119 5 OFFCURVE",
"130 24.5 CURVE SMOOTH",
"272.5 316.5 LINE",
"796.5 316.5 LINE",
"853 51 LINE SMOOTH",
"860 16.5 OFFCURVE",
"879.5 0 OFFCURVE",
"917.5 0 CURVE SMOOTH",
"1427.5 0 LINE SMOOTH",
"1452 0 OFFCURVE",
"1463.5 16.5 OFFCURVE",
"1463.5 53 CURVE SMOOTH",
"1463.5 82 LINE SMOOTH",
"1463.5 119 OFFCURVE",
"1452 135 OFFCURVE",
"1427.5 135 CURVE SMOOTH",
"993.5 135 LINE",
"899 569.5 LINE",
"1372 569.5 LINE SMOOTH",
"1396.5 569.5 OFFCURVE",
"1408 584.5 OFFCURVE",
"1408 622.5 CURVE SMOOTH",
"1408 650 LINE SMOOTH",
"1408 688 OFFCURVE",
"1396.5 703.5 OFFCURVE",
"1372 703.5 CURVE SMOOTH",
"871.5 703.5 LINE",
"782.5 1109 LINE",
"1425.5 1109 LINE SMOOTH",
"1451 1109 OFFCURVE",
"1461 1125.5 OFFCURVE",
"1461 1162 CURVE SMOOTH",
"1461 1191 LINE SMOOTH",
"1461 1229 OFFCURVE",
"1451 1244 OFFCURVE",
"1425.5 1244 CURVE SMOOTH",
"635 1244 LINE SMOOTH",
"597 1244 OFFCURVE",
"574.5 1230 OFFCURVE",
"558 1196 CURVE SMOOTH",
"-12.5 55.5 LINE SMOOTH",
"-17.5 44 OFFCURVE",
"-19.5 34 OFFCURVE",
"-19.5 26.5 CURVE SMOOTH",
"-19.5 7 OFFCURVE",
"-3 -3 OFFCURVE",
"50 -3 CURVE SMOOTH"
);
},
{
closed = 1;
nodes = (
"604 981 LINE",
"642 1084.5 LINE",
"645 1084.5 LINE",
"652.5 981 LINE",
"766 449.5 LINE",
"341 449.5 LINE"
);
}
);
};
layerId = "FB715283-CFB2-4766-AFCA-39E45F97C573";
name = Regular;
paths = (
{
closed = 1;
nodes = (
"58.5 -3 LINE SMOOTH",
"92 -3 OFFCURVE",
"119 5 OFFCURVE",
"130 24.5 CURVE SMOOTH",
"272.5 316.5 LINE",
"796.5 316.5 LINE",
"853 51 LINE SMOOTH",
"860 16.5 OFFCURVE",
"879.5 0 OFFCURVE",
"917.5 0 CURVE SMOOTH",
"1427.5 0 LINE SMOOTH",
"1452 0 OFFCURVE",
"1463.5 16.5 OFFCURVE",
"1463.5 53 CURVE SMOOTH",
"1463.5 82 LINE SMOOTH",
"1463.5 119 OFFCURVE",
"1452 135 OFFCURVE",
"1427.5 135 CURVE SMOOTH",
"993.5 135 LINE",
"899 569.5 LINE",
"1372 569.5 LINE SMOOTH",
"1396.5 569.5 OFFCURVE",
"1408 584.5 OFFCURVE",
"1408 622.5 CURVE SMOOTH",
"1408 650 LINE SMOOTH",
"1408 688 OFFCURVE",
"1396.5 703.5 OFFCURVE",
"1372 703.5 CURVE SMOOTH",
"871.5 703.5 LINE",
"782.5 1109 LINE",
"1425.5 1109 LINE SMOOTH",
"1451 1109 OFFCURVE",
"1461 1125.5 OFFCURVE",
"1461 1162 CURVE SMOOTH",
"1461 1191 LINE SMOOTH",
"1461 1229 OFFCURVE",
"1451 1244 OFFCURVE",
"1425.5 1244 CURVE SMOOTH",
"635 1244 LINE SMOOTH",
"597 1244 OFFCURVE",
"574.5 1230 OFFCURVE",
"558 1196 CURVE SMOOTH",
"-12.5 55.5 LINE SMOOTH",
"-17.5 44 OFFCURVE",
"-19.5 34 OFFCURVE",
"-19.5 26.5 CURVE SMOOTH",
"-19.5 7 OFFCURVE",
"-3 -3 OFFCURVE",
"50 -3 CURVE SMOOTH"
);
},
{
closed = 1;
nodes = (
"604 981 LINE",
"642 1084.5 LINE",
"645 1084.5 LINE",
"652.5 981 LINE",
"766 449.5 LINE",
"341 449.5 LINE"
);
}
);
width = 1626;
},
{
anchors = (
{
name = top;
position = "{814, 1244}";
}
);
layerId = "78047C5B-B34F-4F0E-9C92-9BD1482D9144";
name = Bold;
paths = (
{
closed = 1;
nodes = (
"176 -3 LINE SMOOTH",
"219 -3 OFFCURVE",
"246 9 OFFCURVE",
"258 34 CURVE SMOOTH",
"364.5 251 LINE",
"796.5 251 LINE",
"833.5 53 LINE SMOOTH",
"840.5 16.5 OFFCURVE",
"857 0 OFFCURVE",
"896 0 CURVE SMOOTH",
"1485 0 LINE SMOOTH",
"1521.5 0 OFFCURVE",
"1538 26.5 OFFCURVE",
"1538 89 CURVE SMOOTH",
"1538 144.5 LINE SMOOTH",
"1538 206 OFFCURVE",
"1521.5 232.5 OFFCURVE",
"1485 232.5 CURVE SMOOTH",
"1070 232.5 LINE",
"1015 521 LINE",
"1434.5 521 LINE SMOOTH",
"1471.5 521 OFFCURVE",
"1488 548 OFFCURVE",
"1488 609.5 CURVE SMOOTH",
"1488 664.5 LINE SMOOTH",
"1488 727 OFFCURVE",
"1471.5 753.5 OFFCURVE",
"1434.5 753.5 CURVE SMOOTH",
"968.5 753.5 LINE",
"919.5 1011.5 LINE",
"1483 1011.5 LINE SMOOTH",
"1519.5 1011.5 OFFCURVE",
"1536 1038.5 OFFCURVE",
"1536 1101 CURVE SMOOTH",
"1536 1155 LINE SMOOTH",
"1536 1217.5 OFFCURVE",
"1519.5 1244 OFFCURVE",
"1483 1244 CURVE SMOOTH",
"657.5 1244 LINE SMOOTH",
"620.5 1244 OFFCURVE",
"597 1230 OFFCURVE",
"579.5 1196 CURVE SMOOTH",
"9 67.5 LINE SMOOTH",
"3 57.5 OFFCURVE",
"2 44 OFFCURVE",
"2 36 CURVE SMOOTH",
"2 10 OFFCURVE",
"36 -3 OFFCURVE",
"110.5 -3 CURVE SMOOTH"
);
},
{
closed = 1;
nodes = (
"638 809 LINE",
"688 954.5 LINE",
"695.5 954.5 LINE",
"695.5 807 LINE",
"753.5 485.5 LINE",
"480.5 485.5 LINE"
);
}
);
width = 1626;
}
);
unicode = 00C6;
},
{
glyphname = B;
lastChange = "2015-02-26 04:32:42 +0000";
layers = (
{
background = {
paths = (
{
closed = 1;
nodes = (
"531.5 0 LINE SMOOTH",
"830.5 0 OFFCURVE",
"995.5 110.5 OFFCURVE",
"995.5 357.5 CURVE SMOOTH",
"995.5 592 OFFCURVE",
"746.5 652.5 OFFCURVE",
"746.5 652.5 CURVE",
"746.5 659.5 LINE",
"850 688 OFFCURVE",
"942 811 OFFCURVE",
"942 930 CURVE SMOOTH",
"942 1116 OFFCURVE",
"809 1244 OFFCURVE",
"543.5 1244 CURVE SMOOTH",
"225.5 1244 LINE SMOOTH",
"188.5 1244 OFFCURVE",
"172 1229 OFFCURVE",
"172 1191 CURVE SMOOTH",
"172 53 LINE SMOOTH",
"172 16.5 OFFCURVE",
"188.5 0 OFFCURVE",
"225.5 0 CURVE SMOOTH"
);
},
{
closed = 1;
nodes = (
"328.5 572.5 LINE",
"558 572.5 LINE SMOOTH",
"741.5 572.5 OFFCURVE",
"833.5 494.5 OFFCURVE",
"833.5 364.5 CURVE SMOOTH",
"833.5 224.5 OFFCURVE",
"746.5 135 OFFCURVE",
"589 135 CURVE SMOOTH",
"328.5 135 LINE"
);
},
{
closed = 1;
nodes = (
"328.5 1109 LINE",
"528.5 1109 LINE SMOOTH",
"705.5 1109 OFFCURVE",
"780.5 1047.5 OFFCURVE",
"780.5 915.5 CURVE SMOOTH",
"780.5 799.5 OFFCURVE",
"679 707.5 OFFCURVE",
"535.5 707.5 CURVE SMOOTH",
"328.5 707.5 LINE"
);
}
);
};
layerId = "FB715283-CFB2-4766-AFCA-39E45F97C573";
name = Regular;
paths = (
{
closed = 1;
nodes = (
"531.5 0 LINE SMOOTH",
"830.5 0 OFFCURVE",
"995.5 110.5 OFFCURVE",
"995.5 357.5 CURVE SMOOTH",
"995.5 592 OFFCURVE",
"746.5 652.5 OFFCURVE",
"746.5 652.5 CURVE",
"746.5 659.5 LINE",
"850 688 OFFCURVE",
"942 811 OFFCURVE",
"942 930 CURVE SMOOTH",
"942 1116 OFFCURVE",
"809 1244 OFFCURVE",
"543.5 1244 CURVE SMOOTH",
"225.5 1244 LINE SMOOTH",
"188.5 1244 OFFCURVE",
"172 1229 OFFCURVE",
"172 1191 CURVE SMOOTH",
"172 53 LINE SMOOTH",
"172 16.5 OFFCURVE",
"188.5 0 OFFCURVE",
"225.5 0 CURVE SMOOTH"
);
},
{
closed = 1;
nodes = (
"328.5 572.5 LINE",
"558 572.5 LINE SMOOTH",
"741.5 572.5 OFFCURVE",
"833.5 494.5 OFFCURVE",
"833.5 364.5 CURVE SMOOTH",
"833.5 224.5 OFFCURVE",
"746.5 135 OFFCURVE",
"589 135 CURVE SMOOTH",
"328.5 135 LINE"
);
},
{
closed = 1;
nodes = (
"328.5 1109 LINE",
"528.5 1109 LINE SMOOTH",
"705.5 1109 OFFCURVE",
"780.5 1047.5 OFFCURVE",
"780.5 915.5 CURVE SMOOTH",
"780.5 799.5 OFFCURVE",
"679 707.5 OFFCURVE",
"535.5 707.5 CURVE SMOOTH",
"328.5 707.5 LINE"
);
}
);
width = 1053.5;
},
{
layerId = "78047C5B-B34F-4F0E-9C92-9BD1482D9144";
name = Bold;
paths = (
{
closed = 1;
nodes = (
"570.5 0 LINE SMOOTH",
"871.5 0 OFFCURVE",
"1015 131 OFFCURVE",
"1015 360.5 CURVE SMOOTH",
"1015 497.5 OFFCURVE",
"917.5 623.5 OFFCURVE",
"775 652.5 CURVE",
"773 659.5 LINE",
"879.5 703.5 OFFCURVE",
"965.5 809 OFFCURVE",
"965.5 930 CURVE SMOOTH",
"965.5 1116 OFFCURVE",
"846 1244 OFFCURVE",
"546 1244 CURVE SMOOTH",
"193.5 1244 LINE SMOOTH",
"144.5 1244 OFFCURVE",
"123 1222.5 OFFCURVE",
"123 1173.5 CURVE SMOOTH",
"123 70.5 LINE SMOOTH",
"123 21.5 OFFCURVE",
"144.5 0 OFFCURVE",
"193.5 0 CURVE SMOOTH"
);
},
{
closed = 1;
nodes = (
"396.5 515 LINE",
"541.5 515 LINE SMOOTH",
"664.5 515 OFFCURVE",
"734 469 OFFCURVE",
"734 377 CURVE SMOOTH",
"734 284.5 OFFCURVE",
"674 232.5 OFFCURVE",
"570.5 232.5 CURVE SMOOTH",
"396.5 232.5 LINE"
);
},
{
closed = 1;
nodes = (
"396.5 1014 LINE",
"522 1014 LINE SMOOTH",
"631 1014 OFFCURVE",
"684 968.5 OFFCURVE",
"684 881.5 CURVE SMOOTH",
"684 807 OFFCURVE",
"625.5 748.5 OFFCURVE",
"519 748.5 CURVE SMOOTH",
"396.5 748.5 LINE"
);
}
);
width = 1053.5;
}
);
unicode = 0042;
},
{
glyphname = C;
lastChange = "2015-02-26 04:32:42 +0000";
layers = (
{
anchors = (
{
name = bottom;
position = "{642, 0}";
},
{
name = top;
position = "{631, 1244}";
}
);
background = {
anchors = (
{
name = bottom;
position = "{642, 0}";
},
{
name = top;
position = "{631, 1244}";
}
);
paths = (
{
closed = 1;
nodes = (
"881.5 -10 OFFCURVE",
"1041.5 69.5 OFFCURVE",
"1041.5 118 CURVE SMOOTH",
"1041.5 138 OFFCURVE",
"1002.5 213 OFFCURVE",
"980 213 CURVE SMOOTH",
"956.5 213 OFFCURVE",
"857 125 OFFCURVE",
"674 125 CURVE SMOOTH",
"394 125 OFFCURVE",
"263 279.5 OFFCURVE",
"263 620.5 CURVE SMOOTH",
"263 971 OFFCURVE",
"396.5 1120.5 OFFCURVE",
"681 1120.5 CURVE SMOOTH",
"852 1120.5 OFFCURVE",
"937 1041.5 OFFCURVE",
"956.5 1041.5 CURVE SMOOTH",
"980 1041.5 OFFCURVE",
"1017 1114 OFFCURVE",
"1017 1145 CURVE SMOOTH",
"1017 1193 OFFCURVE",
"853 1255.5 OFFCURVE",
"677 1255.5 CURVE SMOOTH",
"297 1255.5 OFFCURVE",
"101.5 1047.5 OFFCURVE",
"101.5 622.5 CURVE SMOOTH",
"101.5 188.5 OFFCURVE",
"284.5 -10 OFFCURVE",
"674 -10 CURVE SMOOTH"
);
}
);
};
layerId = "FB715283-CFB2-4766-AFCA-39E45F97C573";
name = Regular;
paths = (
{
closed = 1;
nodes = (
"881.5 -10 OFFCURVE",
"1041.5 69.5 OFFCURVE",
"1041.5 118 CURVE SMOOTH",
"1041.5 138 OFFCURVE",
"1002.5 213 OFFCURVE",
"980 213 CURVE SMOOTH",
"956.5 213 OFFCURVE",
"857 125 OFFCURVE",
"674 125 CURVE SMOOTH",
"394 125 OFFCURVE",
"263 279.5 OFFCURVE",
"263 620.5 CURVE SMOOTH",
"263 971 OFFCURVE",
"396.5 1120.5 OFFCURVE",
"681 1120.5 CURVE SMOOTH",
"852 1120.5 OFFCURVE",
"937 1041.5 OFFCURVE",
"956.5 1041.5 CURVE SMOOTH",
"980 1041.5 OFFCURVE",
"1017 1114 OFFCURVE",
"1017 1145 CURVE SMOOTH",
"1017 1193 OFFCURVE",
"853 1255.5 OFFCURVE",
"677 1255.5 CURVE SMOOTH",
"297 1255.5 OFFCURVE",
"101.5 1047.5 OFFCURVE",
"101.5 622.5 CURVE SMOOTH",
"101.5 188.5 OFFCURVE",
"284.5 -10 OFFCURVE",
"674 -10 CURVE SMOOTH"
);
}
);
width = 1101;
},
{
anchors = (
{
name = bottom;
position = "{663.5, 0}";
},
{
name = top;
position = "{654.5, 1244}";
}
);
layerId = "78047C5B-B34F-4F0E-9C92-9BD1482D9144";
name = Bold;
paths = (
{
closed = 1;
nodes = (
"807 -14.5 OFFCURVE",
"1061 28.5 OFFCURVE",
"1061 135 CURVE SMOOTH",
"1061 165 OFFCURVE",
"1014 290 OFFCURVE",
"956.5 290 CURVE SMOOTH",
"930 290 OFFCURVE",
"833.5 219 OFFCURVE",
"664.5 219 CURVE SMOOTH",
"461 219 OFFCURVE",
"360.5 357.5 OFFCURVE",
"360.5 623.5 CURVE SMOOTH",
"360.5 891 OFFCURVE",
"459 1024 OFFCURVE",
"668.5 1024 CURVE SMOOTH",
"837.5 1024 OFFCURVE",
"908.5 966.5 OFFCURVE",
"930 966.5 CURVE SMOOTH",
"974 966.5 OFFCURVE",
"1045.5 1084.5 OFFCURVE",
"1045.5 1134.5 CURVE SMOOTH",
"1045.5 1208.5 OFFCURVE",
"830.5 1258.5 OFFCURVE",
"674 1258.5 CURVE SMOOTH",
"279.5 1258.5 OFFCURVE",
"80 1048.5 OFFCURVE",
"80 625.5 CURVE SMOOTH",
"80 186.5 OFFCURVE",
"266 -14.5 OFFCURVE",
"664.5 -14.5 CURVE SMOOTH"
);
}
);
width = 1101;
}
);
unicode = 0043;
},
{
glyphname = D;
lastChange = "2015-02-26 04:32:42 +0000";
layers = (
{
anchors = (
{
name = bottom;
position = "{581.5, 0}";
},
{
name = center;
position = "{618.5, 622.5}";
},
{
name = top;
position = "{555, 1244}";
}
);
background = {
anchors = (
{
name = bottom;
position = "{581.5, 0}";
},
{
name = center;
position = "{618.5, 622.5}";
},
{
name = top;
position = "{555, 1244}";
}
);
paths = (
{
closed = 1;
nodes = (
"584.5 0 LINE SMOOTH",
"891 0 OFFCURVE",
"1134.5 159.5 OFFCURVE",
"1134.5 622.5 CURVE SMOOTH",
"1134.5 1082.5 OFFCURVE",
"891 1244 OFFCURVE",
"584.5 1244 CURVE SMOOTH",
"225.5 1244 LINE SMOOTH",
"188.5 1244 OFFCURVE",
"172 1229 OFFCURVE",
"172 1191 CURVE SMOOTH",
"172 53 LINE SMOOTH",
"172 16.5 OFFCURVE",
"188.5 0 OFFCURVE",
"225.5 0 CURVE SMOOTH"
);
},
{
closed = 1;
nodes = (
"328.5 1109 LINE",
"572.5 1109 LINE SMOOTH",
"794.5 1109 OFFCURVE",
"973 976 OFFCURVE",
"973 622.5 CURVE SMOOTH",
"973 266 OFFCURVE",
"794.5 135 OFFCURVE",
"572.5 135 CURVE SMOOTH",
"328.5 135 LINE"
);
}
);
};
layerId = "FB715283-CFB2-4766-AFCA-39E45F97C573";
name = Regular;
paths = (
{
closed = 1;
nodes = (
"584.5 0 LINE SMOOTH",
"891 0 OFFCURVE",
"1134.5 159.5 OFFCURVE",
"1134.5 622.5 CURVE SMOOTH",
"1134.5 1082.5 OFFCURVE",
"891 1244 OFFCURVE",
"584.5 1244 CURVE SMOOTH",
"225.5 1244 LINE SMOOTH",
"188.5 1244 OFFCURVE",
"172 1229 OFFCURVE",
"172 1191 CURVE SMOOTH",
"172 53 LINE SMOOTH",
"172 16.5 OFFCURVE",
"188.5 0 OFFCURVE",
"225.5 0 CURVE SMOOTH"
);
},
{
closed = 1;
nodes = (
"328.5 1109 LINE",
"572.5 1109 LINE SMOOTH",
"794.5 1109 OFFCURVE",
"973 976 OFFCURVE",
"973 622.5 CURVE SMOOTH",
"973 266 OFFCURVE",
"794.5 135 OFFCURVE",
"572.5 135 CURVE SMOOTH",
"328.5 135 LINE"
);
}
);
width = 1236;
},
{
anchors = (
{
name = bottom;
position = "{589, 0}";
},
{
name = center;
position = "{618.5, 622.5}";
},
{
name = top;
position = "{592, 1244}";
}
);
layerId = "78047C5B-B34F-4F0E-9C92-9BD1482D9144";
name = Bold;
paths = (
{
closed = 1;
nodes = (
"592 0 LINE SMOOTH",
"958.5 0 OFFCURVE",
"1161 220 OFFCURVE",
"1161 622.5 CURVE SMOOTH",
"1161 1024 OFFCURVE",
"958.5 1244 OFFCURVE",
"592 1244 CURVE SMOOTH",
"193.5 1244 LINE SMOOTH",
"144.5 1244 OFFCURVE",
"123 1222.5 OFFCURVE",
"123 1173.5 CURVE SMOOTH",
"123 70.5 LINE SMOOTH",
"123 21.5 OFFCURVE",
"144.5 0 OFFCURVE",
"193.5 0 CURVE SMOOTH"
);
},
{
closed = 1;
nodes = (
"398.5 1011.5 LINE",
"592 1011.5 LINE SMOOTH",
"782.5 1011.5 OFFCURVE",
"879.5 874.5 OFFCURVE",
"879.5 622.5 CURVE SMOOTH",
"879.5 369.5 OFFCURVE",
"782.5 232.5 OFFCURVE",
"592 232.5 CURVE SMOOTH",
"398.5 232.5 LINE"
);
}
);
width = 1236;
}
);
unicode = 0044;
},
{
glyphname = Eth;
lastChange = "2015-02-26 04:32:42 +0000";
layers = (
{
background = {
paths = (
{
closed = 1;
nodes = (
"587 0 LINE SMOOTH",
"892 0 OFFCURVE",
"1139.5 159.5 OFFCURVE",
"1139.5 622.5 CURVE SMOOTH",
"1139.5 1082.5 OFFCURVE",
"892 1244 OFFCURVE",
"587 1244 CURVE SMOOTH",
"205 1244 LINE SMOOTH",
"167 1244 OFFCURVE",
"151.5 1229 OFFCURVE",
"151.5 1191 CURVE SMOOTH",
"151.5 703.5 LINE",
"36 703.5 LINE SMOOTH",
"10 703.5 OFFCURVE",
"0 688 OFFCURVE",
"0 650 CURVE SMOOTH",
"0 622.5 LINE SMOOTH",
"0 584.5 OFFCURVE",
"10 569.5 OFFCURVE",
"36 569.5 CURVE SMOOTH",
"151.5 569.5 LINE",
"151.5 53 LINE SMOOTH",
"151.5 16.5 OFFCURVE",
"167 0 OFFCURVE",
"205 0 CURVE SMOOTH"
);
},
{
closed = 1;
nodes = (
"307 569.5 LINE",
"503 569.5 LINE SMOOTH",
"528.5 569.5 OFFCURVE",
"538.5 584.5 OFFCURVE",
"538.5 622.5 CURVE SMOOTH",
"538.5 650 LINE SMOOTH",
"538.5 688 OFFCURVE",
"528.5 703.5 OFFCURVE",
"503 703.5 CURVE SMOOTH",
"307 703.5 LINE",
"307 1109 LINE",
"574.5 1109 LINE SMOOTH",
"796.5 1109 OFFCURVE",
"978 976 OFFCURVE",
"978 622.5 CURVE SMOOTH",
"978 266 OFFCURVE",
"796.5 135 OFFCURVE",
"574.5 135 CURVE SMOOTH",
"307 135 LINE"
);
}
);
};
layerId = "FB715283-CFB2-4766-AFCA-39E45F97C573";
name = Regular;
paths = (
{
closed = 1;
nodes = (
"587 0 LINE SMOOTH",
"892 0 OFFCURVE",
"1139.5 159.5 OFFCURVE",
"1139.5 622.5 CURVE SMOOTH",
"1139.5 1082.5 OFFCURVE",
"892 1244 OFFCURVE",
"587 1244 CURVE SMOOTH",
"205 1244 LINE SMOOTH",
"167 1244 OFFCURVE",
"151.5 1229 OFFCURVE",
"151.5 1191 CURVE SMOOTH",
"151.5 703.5 LINE",
"36 703.5 LINE SMOOTH",
"10 703.5 OFFCURVE",
"0 688 OFFCURVE",
"0 650 CURVE SMOOTH",
"0 622.5 LINE SMOOTH",
"0 584.5 OFFCURVE",
"10 569.5 OFFCURVE",
"36 569.5 CURVE SMOOTH",
"151.5 569.5 LINE",
"151.5 53 LINE SMOOTH",
"151.5 16.5 OFFCURVE",
"167 0 OFFCURVE",
"205 0 CURVE SMOOTH"
);
},
{
closed = 1;
nodes = (
"307 569.5 LINE",
"503 569.5 LINE SMOOTH",
"528.5 569.5 OFFCURVE",
"538.5 584.5 OFFCURVE",
"538.5 622.5 CURVE SMOOTH",
"538.5 650 LINE SMOOTH",
"538.5 688 OFFCURVE",
"528.5 703.5 OFFCURVE",
"503 703.5 CURVE SMOOTH",
"307 703.5 LINE",
"307 1109 LINE",
"574.5 1109 LINE SMOOTH",
"796.5 1109 OFFCURVE",
"978 976 OFFCURVE",
"978 622.5 CURVE SMOOTH",
"978 266 OFFCURVE",
"796.5 135 OFFCURVE",
"574.5 135 CURVE SMOOTH",
"307 135 LINE"
);
}
);
width = 1237;
},
{
layerId = "78047C5B-B34F-4F0E-9C92-9BD1482D9144";
name = Bold;
paths = (
{
closed = 1;
nodes = (
"596 0 LINE SMOOTH",
"961.5 0 OFFCURVE",
"1164.5 220 OFFCURVE",
"1164.5 622.5 CURVE SMOOTH",
"1164.5 1024 OFFCURVE",
"961.5 1244 OFFCURVE",
"596 1244 CURVE SMOOTH",
"197.5 1244 LINE SMOOTH",
"147.5 1244 OFFCURVE",
"126 1222.5 OFFCURVE",
"126 1173.5 CURVE SMOOTH",
"126 748.5 LINE",
"75 748.5 LINE SMOOTH",
"37 748.5 OFFCURVE",
"21.5 722 OFFCURVE",
"21.5 659.5 CURVE SMOOTH",
"21.5 606 LINE SMOOTH",
"21.5 543.5 OFFCURVE",
"37 517 OFFCURVE",
"75 517 CURVE SMOOTH",
"126 517 LINE",
"126 70.5 LINE SMOOTH",
"126 21.5 OFFCURVE",
"147.5 0 OFFCURVE",
"197.5 0 CURVE SMOOTH"
);
},
{
closed = 1;
nodes = (
"401.5 517 LINE",
"507 517 LINE SMOOTH",
"543.5 517 OFFCURVE",
"560 543.5 OFFCURVE",
"560 606 CURVE SMOOTH",
"560 659.5 LINE SMOOTH",
"560 722 OFFCURVE",
"543.5 748.5 OFFCURVE",
"507 748.5 CURVE SMOOTH",
"401.5 748.5 LINE",
"401.5 1011.5 LINE",
"596 1011.5 LINE SMOOTH",
"785.5 1011.5 OFFCURVE",
"883.5 874.5 OFFCURVE",
"883.5 622.5 CURVE SMOOTH",
"883.5 369.5 OFFCURVE",
"785.5 232.5 OFFCURVE",
"596 232.5 CURVE SMOOTH",
"401.5 232.5 LINE"
);
}
);
width = 1237;
}
);
unicode = 00D0;
},
{
glyphname = E;
lastChange = "2015-02-26 04:32:42 +0000";
layers = (
{
anchors = (
{
name = bottom;
position = "{533.5, 0}";
},
{
name = ogonek;
position = "{848, 0}";
},
{
name = top;
position = "{526.5, 1244}";
}
);
background = {
anchors = (
{
name = bottom;
position = "{533.5, 0}";
},
{
name = ogonek;
position = "{848, 0}";
},
{
name = top;
position = "{526.5, 1244}";
}
);
paths = (
{
closed = 1;
nodes = (
"848 0 LINE SMOOTH",
"872.5 0 OFFCURVE",
"883.5 16.5 OFFCURVE",
"883.5 53 CURVE SMOOTH",
"883.5 82 LINE SMOOTH",
"883.5 119 OFFCURVE",
"872.5 135 OFFCURVE",
"848 135 CURVE SMOOTH",
"328.5 135 LINE",
"328.5 569.5 LINE",
"792.5 569.5 LINE SMOOTH",
"818 569.5 OFFCURVE",
"828.5 584.5 OFFCURVE",
"828.5 622.5 CURVE SMOOTH",
"828.5 650 LINE SMOOTH",
"828.5 688 OFFCURVE",
"818 703.5 OFFCURVE",
"792.5 703.5 CURVE SMOOTH",
"328.5 703.5 LINE",
"328.5 1109 LINE",
"846 1109 LINE SMOOTH",
"871.5 1109 OFFCURVE",
"881.5 1125.5 OFFCURVE",
"881.5 1162 CURVE SMOOTH",
"881.5 1191 LINE SMOOTH",
"881.5 1229 OFFCURVE",
"871.5 1244 OFFCURVE",
"846 1244 CURVE SMOOTH",
"225.5 1244 LINE SMOOTH",
"188.5 1244 OFFCURVE",
"172 1229 OFFCURVE",
"172 1191 CURVE SMOOTH",
"172 53 LINE SMOOTH",
"172 16.5 OFFCURVE",
"188.5 0 OFFCURVE",
"225.5 0 CURVE SMOOTH"
);
}
);
};
layerId = "FB715283-CFB2-4766-AFCA-39E45F97C573";
name = Regular;
paths = (
{
closed = 1;
nodes = (
"848 0 LINE SMOOTH",
"872.5 0 OFFCURVE",
"883.5 16.5 OFFCURVE",
"883.5 53 CURVE SMOOTH",
"883.5 82 LINE SMOOTH",
"883.5 119 OFFCURVE",
"872.5 135 OFFCURVE",
"848 135 CURVE SMOOTH",
"328.5 135 LINE",
"328.5 569.5 LINE",
"792.5 569.5 LINE SMOOTH",
"818 569.5 OFFCURVE",
"828.5 584.5 OFFCURVE",
"828.5 622.5 CURVE SMOOTH",
"828.5 650 LINE SMOOTH",
"828.5 688 OFFCURVE",
"818 703.5 OFFCURVE",
"792.5 703.5 CURVE SMOOTH",
"328.5 703.5 LINE",
"328.5 1109 LINE",
"846 1109 LINE SMOOTH",
"871.5 1109 OFFCURVE",
"881.5 1125.5 OFFCURVE",
"881.5 1162 CURVE SMOOTH",
"881.5 1191 LINE SMOOTH",
"881.5 1229 OFFCURVE",
"871.5 1244 OFFCURVE",
"846 1244 CURVE SMOOTH",
"225.5 1244 LINE SMOOTH",
"188.5 1244 OFFCURVE",
"172 1229 OFFCURVE",
"172 1191 CURVE SMOOTH",
"172 53 LINE SMOOTH",
"172 16.5 OFFCURVE",
"188.5 0 OFFCURVE",
"225.5 0 CURVE SMOOTH"
);
}
);
width = 971;
},
{
anchors = (
{
name = bottom;
position = "{510, 0}";
},
{
name = ogonek;
position = "{840.5, 0}";
},
{
name = top;
position = "{524.5, 1244}";
}
);
layerId = "78047C5B-B34F-4F0E-9C92-9BD1482D9144";
name = Bold;
paths = (
{
closed = 1;
nodes = (
"846 0 LINE SMOOTH",
"883.5 0 OFFCURVE",
"899 26.5 OFFCURVE",
"899 89 CURVE SMOOTH",
"899 144.5 LINE SMOOTH",
"899 206 OFFCURVE",
"883.5 232.5 OFFCURVE",
"846 232.5 CURVE SMOOTH",
"396.5 232.5 LINE",
"396.5 521 LINE",
"796.5 521 LINE SMOOTH",
"833.5 521 OFFCURVE",
"850 548 OFFCURVE",
"850 609.5 CURVE SMOOTH",
"850 664.5 LINE SMOOTH",
"850 727 OFFCURVE",
"833.5 753.5 OFFCURVE",
"796.5 753.5 CURVE SMOOTH",
"396.5 753.5 LINE",
"396.5 1011.5 LINE",
"845 1011.5 LINE SMOOTH",
"881.5 1011.5 OFFCURVE",
"898 1038.5 OFFCURVE",
"898 1101 CURVE SMOOTH",
"898 1155 LINE SMOOTH",
"898 1217.5 OFFCURVE",
"881.5 1244 OFFCURVE",
"845 1244 CURVE SMOOTH",
"193.5 1244 LINE SMOOTH",
"144.5 1244 OFFCURVE",
"123 1222.5 OFFCURVE",
"123 1173.5 CURVE SMOOTH",
"123 70.5 LINE SMOOTH",
"123 21.5 OFFCURVE",
"144.5 0 OFFCURVE",
"193.5 0 CURVE SMOOTH"
);
}
);
width = 971;
}
);
unicode = 0045;
},
{
glyphname = F;
lastChange = "2015-02-26 04:32:42 +0000";
layers = (
{
background = {
paths = (
{
closed = 1;
nodes = (
"258 -3 LINE SMOOTH",
"307 -3 OFFCURVE",
"328.5 10 OFFCURVE",
"328.5 36 CURVE SMOOTH",
"328.5 569.5 LINE",
"753.5 569.5 LINE SMOOTH",
"778 569.5 OFFCURVE",
"789.5 584.5 OFFCURVE",
"789.5 622.5 CURVE SMOOTH",
"789.5 650 LINE SMOOTH",
"789.5 688 OFFCURVE",
"778 703.5 OFFCURVE",
"753.5 703.5 CURVE SMOOTH",
"328.5 703.5 LINE",
"328.5 1109 LINE",
"785.5 1109 LINE SMOOTH",
"811 1109 OFFCURVE",
"821 1125.5 OFFCURVE",
"821 1162 CURVE SMOOTH",
"821 1191 LINE SMOOTH",
"821 1229 OFFCURVE",
"811 1244 OFFCURVE",
"785.5 1244 CURVE SMOOTH",
"225.5 1244 LINE SMOOTH",
"188.5 1244 OFFCURVE",
"172 1229 OFFCURVE",
"172 1191 CURVE SMOOTH",
"172 36 LINE SMOOTH",
"172 10 OFFCURVE",
"193.5 -3 OFFCURVE",
"243.5 -3 CURVE SMOOTH"
);
}
);
};
layerId = "FB715283-CFB2-4766-AFCA-39E45F97C573";
name = Regular;
paths = (
{
closed = 1;
nodes = (
"258 -3 LINE SMOOTH",
"307 -3 OFFCURVE",
"328.5 10 OFFCURVE",
"328.5 36 CURVE SMOOTH",
"328.5 569.5 LINE",
"753.5 569.5 LINE SMOOTH",
"778 569.5 OFFCURVE",
"789.5 584.5 OFFCURVE",
"789.5 622.5 CURVE SMOOTH",
"789.5 650 LINE SMOOTH",
"789.5 688 OFFCURVE",
"778 703.5 OFFCURVE",
"753.5 703.5 CURVE SMOOTH",
"328.5 703.5 LINE",
"328.5 1109 LINE",
"785.5 1109 LINE SMOOTH",
"811 1109 OFFCURVE",
"821 1125.5 OFFCURVE",
"821 1162 CURVE SMOOTH",
"821 1191 LINE SMOOTH",
"821 1229 OFFCURVE",
"811 1244 OFFCURVE",
"785.5 1244 CURVE SMOOTH",
"225.5 1244 LINE SMOOTH",
"188.5 1244 OFFCURVE",
"172 1229 OFFCURVE",
"172 1191 CURVE SMOOTH",
"172 36 LINE SMOOTH",
"172 10 OFFCURVE",
"193.5 -3 OFFCURVE",
"243.5 -3 CURVE SMOOTH"
);
}
);
width = 894;
},
{
layerId = "78047C5B-B34F-4F0E-9C92-9BD1482D9144";
name = Bold;
paths = (
{
closed = 1;
nodes = (
"290 -3 LINE SMOOTH",
"364.5 -3 OFFCURVE",
"396.5 16.5 OFFCURVE",
"396.5 53 CURVE SMOOTH",
"396.5 519 LINE",
"775 519 LINE SMOOTH",
"812 519 OFFCURVE",
"828.5 546 OFFCURVE",
"828.5 608.5 CURVE SMOOTH",
"828.5 663.5 LINE SMOOTH",
"828.5 725 OFFCURVE",
"812 751.5 OFFCURVE",
"775 751.5 CURVE SMOOTH",
"396.5 751.5 LINE",
"396.5 1011.5 LINE",
"787.5 1011.5 LINE SMOOTH",
"825.5 1011.5 OFFCURVE",
"840.5 1038.5 OFFCURVE",
"840.5 1101 CURVE SMOOTH",
"840.5 1155 LINE SMOOTH",
"840.5 1217.5 OFFCURVE",
"825.5 1244 OFFCURVE",
"787.5 1244 CURVE SMOOTH",
"193.5 1244 LINE SMOOTH",
"144.5 1244 OFFCURVE",
"123 1222.5 OFFCURVE",
"123 1173.5 CURVE SMOOTH",
"123 53 LINE SMOOTH",
"123 16.5 OFFCURVE",
"154.5 -3 OFFCURVE",
"229.5 -3 CURVE SMOOTH"
);
}
);
width = 894;
}
);
unicode = 0046;
},
{
glyphname = G;
lastChange = "2015-02-26 04:32:42 +0000";
layers = (
{
anchors = (
{
name = bottom;
position = "{688, 0}";
},
{
name = top;
position = "{597, 1244}";
}
);
background = {
anchors = (
{
name = bottom;
position = "{688, 0}";
},
{
name = top;
position = "{597, 1244}";
}
);
paths = (
{
closed = 1;
nodes = (
"853 -10 OFFCURVE",
"1047.5 17.5 OFFCURVE",
"1047.5 118 CURVE SMOOTH",
"1047.5 589 LINE SMOOTH",
"1047.5 625.5 OFFCURVE",
"1031 642 OFFCURVE",
"993.5 642 CURVE SMOOTH",
"683 642 LINE SMOOTH",
"657.5 642 OFFCURVE",
"647 625.5 OFFCURVE",
"647 589 CURVE SMOOTH",
"647 560 LINE SMOOTH",
"647 522 OFFCURVE",
"657.5 507 OFFCURVE",
"683 507 CURVE SMOOTH",
"891 507 LINE",
"891 147.5 LINE",
"843 135 OFFCURVE",
"753.5 125 OFFCURVE",
"661.5 125 CURVE SMOOTH",
"345 125 OFFCURVE",
"263 355.5 OFFCURVE",
"263 627.5 CURVE SMOOTH",
"263 937 OFFCURVE",
"366.5 1120.5 OFFCURVE",
"681 1120.5 CURVE SMOOTH",
"852 1120.5 OFFCURVE",
"937 1041.5 OFFCURVE",
"956.5 1041.5 CURVE SMOOTH",
"980 1041.5 OFFCURVE",
"1017 1114 OFFCURVE",
"1017 1145 CURVE SMOOTH",
"1017 1193 OFFCURVE",
"853 1255.5 OFFCURVE",
"677 1255.5 CURVE SMOOTH",
"306 1255.5 OFFCURVE",
"101.5 1053.5 OFFCURVE",
"101.5 611.5 CURVE SMOOTH",
"101.5 188.5 OFFCURVE",
"297 -10 OFFCURVE",
"650 -10 CURVE SMOOTH"
);
}
);
};
layerId = "FB715283-CFB2-4766-AFCA-39E45F97C573";
name = Regular;
paths = (
{
closed = 1;
nodes = (
"853 -10 OFFCURVE",
"1047.5 17.5 OFFCURVE",
"1047.5 118 CURVE SMOOTH",
"1047.5 589 LINE SMOOTH",
"1047.5 625.5 OFFCURVE",
"1031 642 OFFCURVE",
"993.5 642 CURVE SMOOTH",
"683 642 LINE SMOOTH",
"657.5 642 OFFCURVE",
"647 625.5 OFFCURVE",
"647 589 CURVE SMOOTH",
"647 560 LINE SMOOTH",
"647 522 OFFCURVE",
"657.5 507 OFFCURVE",
"683 507 CURVE SMOOTH",
"891 507 LINE",
"891 147.5 LINE",
"843 135 OFFCURVE",
"753.5 125 OFFCURVE",
"661.5 125 CURVE SMOOTH",
"345 125 OFFCURVE",
"263 355.5 OFFCURVE",
"263 627.5 CURVE SMOOTH",
"263 937 OFFCURVE",
"366.5 1120.5 OFFCURVE",
"681 1120.5 CURVE SMOOTH",
"852 1120.5 OFFCURVE",
"937 1041.5 OFFCURVE",
"956.5 1041.5 CURVE SMOOTH",
"980 1041.5 OFFCURVE",
"1017 1114 OFFCURVE",
"1017 1145 CURVE SMOOTH",
"1017 1193 OFFCURVE",
"853 1255.5 OFFCURVE",
"677 1255.5 CURVE SMOOTH",
"306 1255.5 OFFCURVE",
"101.5 1053.5 OFFCURVE",
"101.5 611.5 CURVE SMOOTH",
"101.5 188.5 OFFCURVE",
"297 -10 OFFCURVE",
"650 -10 CURVE SMOOTH"
);
}
);
width = 1195;
},
{
anchors = (
{
name = bottom;
position = "{631, 0}";
},
{
name = top;
position = "{622.5, 1244}";
}
);
layerId = "78047C5B-B34F-4F0E-9C92-9BD1482D9144";
name = Bold;
paths = (
{
closed = 1;
nodes = (
"791.5 -14.5 OFFCURVE",
"1079.5 3 OFFCURVE",
"1079.5 126 CURVE SMOOTH",
"1079.5 620.5 LINE SMOOTH",
"1079.5 669.5 OFFCURVE",
"1058 691 OFFCURVE",
"1007.5 691 CURVE SMOOTH",
"647 691 LINE SMOOTH",
"609.5 691 OFFCURVE",
"594 664.5 OFFCURVE",
"594 603 CURVE SMOOTH",
"594 546 LINE SMOOTH",
"594 483.5 OFFCURVE",
"609.5 456.5 OFFCURVE",
"647 456.5 CURVE SMOOTH",
"804 456.5 LINE",
"804 231.5 LINE",
"755.5 222 OFFCURVE",
"715 219 OFFCURVE",
"664.5 219 CURVE SMOOTH",
"461 219 OFFCURVE",
"360.5 357.5 OFFCURVE",
"360.5 623.5 CURVE SMOOTH",
"360.5 891 OFFCURVE",
"459 1024 OFFCURVE",
"668.5 1024 CURVE SMOOTH",
"837.5 1024 OFFCURVE",
"917.5 966.5 OFFCURVE",
"939 966.5 CURVE SMOOTH",
"983 966.5 OFFCURVE",
"1053.5 1084.5 OFFCURVE",
"1053.5 1134.5 CURVE SMOOTH",
"1053.5 1208.5 OFFCURVE",
"830.5 1258.5 OFFCURVE",
"674 1258.5 CURVE SMOOTH",
"279.5 1258.5 OFFCURVE",
"80 1048.5 OFFCURVE",
"80 625.5 CURVE SMOOTH",
"80 186.5 OFFCURVE",
"266 -14.5 OFFCURVE",
"664.5 -14.5 CURVE SMOOTH"
);
}
);
width = 1195;
}
);
unicode = 0047;
},
{
glyphname = H;
lastChange = "2015-02-26 04:32:42 +0000";
layers = (
{
anchors = (
{
name = bottom;
position = "{668.5, 0}";
},
{
name = center;
position = "{661.5, 930}";
},
{
name = top;
position = "{652.5, 1244}";
}
);
background = {
anchors = (
{
name = bottom;
position = "{668.5, 0}";
},
{
name = center;
position = "{661.5, 930}";
},
{
name = top;
position = "{652.5, 1244}";
}
);
paths = (
{
closed = 1;
nodes = (
"258 -3 LINE SMOOTH",
"307 -3 OFFCURVE",
"328.5 10 OFFCURVE",
"328.5 36 CURVE SMOOTH",
"328.5 570.5 LINE",
"973 570.5 LINE",
"973 36 LINE SMOOTH",
"973 10 OFFCURVE",
"993.5 -3 OFFCURVE",
"1043.5 -3 CURVE SMOOTH",
"1058 -3 LINE SMOOTH",
"1108 -3 OFFCURVE",
"1128.5 10 OFFCURVE",
"1128.5 36 CURVE SMOOTH",
"1128.5 1208.5 LINE SMOOTH",
"1128.5 1234 OFFCURVE",
"1108 1248.5 OFFCURVE",
"1058 1248.5 CURVE SMOOTH",
"1043.5 1248.5 LINE SMOOTH",
"993.5 1248.5 OFFCURVE",
"973 1234 OFFCURVE",
"973 1208.5 CURVE SMOOTH",
"973 705.5 LINE",
"328.5 705.5 LINE",
"328.5 1208.5 LINE SMOOTH",
"328.5 1234 OFFCURVE",
"307 1248.5 OFFCURVE",
"258 1248.5 CURVE SMOOTH",
"243.5 1248.5 LINE SMOOTH",
"193.5 1248.5 OFFCURVE",
"172 1234 OFFCURVE",
"172 1208.5 CURVE SMOOTH",
"172 36 LINE SMOOTH",
"172 10 OFFCURVE",
"193.5 -3 OFFCURVE",
"243.5 -3 CURVE SMOOTH"
);
}
);
};
layerId = "FB715283-CFB2-4766-AFCA-39E45F97C573";
name = Regular;
paths = (
{
closed = 1;
nodes = (
"258 -3 LINE SMOOTH",
"307 -3 OFFCURVE",
"328.5 10 OFFCURVE",
"328.5 36 CURVE SMOOTH",
"328.5 570.5 LINE",
"973 570.5 LINE",
"973 36 LINE SMOOTH",
"973 10 OFFCURVE",
"993.5 -3 OFFCURVE",
"1043.5 -3 CURVE SMOOTH",
"1058 -3 LINE SMOOTH",
"1108 -3 OFFCURVE",
"1128.5 10 OFFCURVE",
"1128.5 36 CURVE SMOOTH",
"1128.5 1208.5 LINE SMOOTH",
"1128.5 1234 OFFCURVE",
"1108 1248.5 OFFCURVE",
"1058 1248.5 CURVE SMOOTH",
"1043.5 1248.5 LINE SMOOTH",
"993.5 1248.5 OFFCURVE",
"973 1234 OFFCURVE",
"973 1208.5 CURVE SMOOTH",
"973 705.5 LINE",
"328.5 705.5 LINE",
"328.5 1208.5 LINE SMOOTH",
"328.5 1234 OFFCURVE",
"307 1248.5 OFFCURVE",
"258 1248.5 CURVE SMOOTH",
"243.5 1248.5 LINE SMOOTH",
"193.5 1248.5 OFFCURVE",
"172 1234 OFFCURVE",
"172 1208.5 CURVE SMOOTH",
"172 36 LINE SMOOTH",
"172 10 OFFCURVE",
"193.5 -3 OFFCURVE",
"243.5 -3 CURVE SMOOTH"
);
}
);
width = 1302.5;
},
{
anchors = (
{
name = bottom;
position = "{677, 0}";
},
{
name = center;
position = "{666.5, 930}";
},
{
name = top;
position = "{652.5, 1244}";
}
);
layerId = "78047C5B-B34F-4F0E-9C92-9BD1482D9144";
name = Bold;
paths = (
{
closed = 1;
nodes = (
"318.5 -3 LINE SMOOTH",
"393 -3 OFFCURVE",
"425 16.5 OFFCURVE",
"425 53 CURVE SMOOTH",
"425 517 LINE",
"905 517 LINE",
"905 53 LINE SMOOTH",
"905 16.5 OFFCURVE",
"937 -3 OFFCURVE",
"1011.5 -3 CURVE SMOOTH",
"1074 -3 LINE SMOOTH",
"1148 -3 OFFCURVE",
"1180.5 16.5 OFFCURVE",
"1180.5 53 CURVE SMOOTH",
"1180.5 1191 LINE SMOOTH",
"1180.5 1229 OFFCURVE",
"1148 1248.5 OFFCURVE",
"1074 1248.5 CURVE SMOOTH",
"1011.5 1248.5 LINE SMOOTH",
"937 1248.5 OFFCURVE",
"905 1229 OFFCURVE",
"905 1191 CURVE SMOOTH",
"905 751.5 LINE",
"425 751.5 LINE",
"425 1191 LINE SMOOTH",
"425 1229 OFFCURVE",
"393 1248.5 OFFCURVE",
"318.5 1248.5 CURVE SMOOTH",
"256 1248.5 LINE SMOOTH",
"181 1248.5 OFFCURVE",
"149.5 1229 OFFCURVE",
"149.5 1191 CURVE SMOOTH",
"149.5 53 LINE SMOOTH",
"149.5 16.5 OFFCURVE",
"181 -3 OFFCURVE",
"256 -3 CURVE SMOOTH"
);
}
);
width = 1302.5;
}
);
unicode = 0048;
},
{
glyphname = I;
lastChange = "2015-02-26 04:32:42 +0000";
layers = (
{
anchors = (
{
name = bottom;
position = "{249, 0}";
},
{
name = ogonek;
position = "{295, 0}";
},
{
name = top;
position = "{251, 1244}";
}
);
background = {
anchors = (
{
name = bottom;
position = "{249, 0}";
},
{
name = ogonek;
position = "{295, 0}";
},
{
name = top;
position = "{251, 1244}";
}
);
paths = (
{
closed = 1;
nodes = (
"258 -3 LINE SMOOTH",
"307 -3 OFFCURVE",
"328.5 10 OFFCURVE",
"328.5 36 CURVE SMOOTH",
"328.5 1208.5 LINE SMOOTH",
"328.5 1234 OFFCURVE",
"307 1248.5 OFFCURVE",
"258 1248.5 CURVE SMOOTH",
"243.5 1248.5 LINE SMOOTH",
"193.5 1248.5 OFFCURVE",
"172 1234 OFFCURVE",
"172 1208.5 CURVE SMOOTH",
"172 36 LINE SMOOTH",
"172 10 OFFCURVE",
"193.5 -3 OFFCURVE",
"243.5 -3 CURVE SMOOTH"
);
}
);
};
layerId = "FB715283-CFB2-4766-AFCA-39E45F97C573";
name = Regular;
paths = (
{
closed = 1;
nodes = (
"258 -3 LINE SMOOTH",
"307 -3 OFFCURVE",
"328.5 10 OFFCURVE",
"328.5 36 CURVE SMOOTH",
"328.5 1208.5 LINE SMOOTH",
"328.5 1234 OFFCURVE",
"307 1248.5 OFFCURVE",
"258 1248.5 CURVE SMOOTH",
"243.5 1248.5 LINE SMOOTH",
"193.5 1248.5 OFFCURVE",
"172 1234 OFFCURVE",
"172 1208.5 CURVE SMOOTH",
"172 36 LINE SMOOTH",
"172 10 OFFCURVE",
"193.5 -3 OFFCURVE",
"243.5 -3 CURVE SMOOTH"
);
}
);
width = 502;
},
{
anchors = (
{
name = bottom;
position = "{251, 0}";
},
{
name = ogonek;
position = "{323.5, 0}";
},
{
name = top;
position = "{251, 1244}";
}
);
layerId = "78047C5B-B34F-4F0E-9C92-9BD1482D9144";
name = Bold;
paths = (
{
closed = 1;
nodes = (
"280.5 -5 LINE SMOOTH",
"355.5 -5 OFFCURVE",
"387 16.5 OFFCURVE",
"387 53 CURVE SMOOTH",
"387 1191 LINE SMOOTH",
"387 1229 OFFCURVE",
"355.5 1249.5 OFFCURVE",
"280.5 1249.5 CURVE SMOOTH",
"219 1249.5 LINE SMOOTH",
"144.5 1249.5 OFFCURVE",
"111.5 1229 OFFCURVE",
"111.5 1191 CURVE SMOOTH",
"111.5 53 LINE SMOOTH",
"111.5 16.5 OFFCURVE",
"144.5 -5 OFFCURVE",
"219 -5 CURVE SMOOTH"
);
}
);
width = 502;
}
);
unicode = 0049;
},
{
glyphname = J;
lastChange = "2015-02-26 04:32:42 +0000";
layers = (
{
anchors = (
{
name = top;
position = "{481.5, 1244}";
}
);
background = {
anchors = (
{
name = top;
position = "{481.5, 1244}";
}
);
paths = (
{
closed = 1;
nodes = (
"464 -10 OFFCURVE",
"567.5 140.5 OFFCURVE",
"567.5 364.5 CURVE SMOOTH",
"567.5 1208.5 LINE SMOOTH",
"567.5 1234 OFFCURVE",
"546 1248.5 OFFCURVE",
"495.5 1248.5 CURVE SMOOTH",
"481.5 1248.5 LINE SMOOTH",
"432 1248.5 OFFCURVE",
"410.5 1234 OFFCURVE",
"410.5 1208.5 CURVE SMOOTH",
"410.5 347 LINE SMOOTH",
"410.5 193.5 OFFCURVE",
"338 128 OFFCURVE",
"162 128 CURVE SMOOTH",
"104.5 128 OFFCURVE",
"63.5 144.5 OFFCURVE",
"50 144.5 CURVE SMOOTH",
"21.5 144.5 OFFCURVE",
"10 53 OFFCURVE",
"10 46 CURVE SMOOTH",
"10 -2 OFFCURVE",
"123 -10 OFFCURVE",
"190.5 -10 CURVE SMOOTH"
);
}
);
};
layerId = "FB715283-CFB2-4766-AFCA-39E45F97C573";
name = Regular;
paths = (
{
closed = 1;
nodes = (
"464 -10 OFFCURVE",
"567.5 140.5 OFFCURVE",
"567.5 364.5 CURVE SMOOTH",
"567.5 1208.5 LINE SMOOTH",
"567.5 1234 OFFCURVE",
"546 1248.5 OFFCURVE",
"495.5 1248.5 CURVE SMOOTH",
"481.5 1248.5 LINE SMOOTH",
"432 1248.5 OFFCURVE",
"410.5 1234 OFFCURVE",
"410.5 1208.5 CURVE SMOOTH",
"410.5 347 LINE SMOOTH",
"410.5 193.5 OFFCURVE",
"338 128 OFFCURVE",
"162 128 CURVE SMOOTH",
"104.5 128 OFFCURVE",
"63.5 144.5 OFFCURVE",
"50 144.5 CURVE SMOOTH",
"21.5 144.5 OFFCURVE",
"10 53 OFFCURVE",
"10 46 CURVE SMOOTH",
"10 -2 OFFCURVE",
"123 -10 OFFCURVE",
"190.5 -10 CURVE SMOOTH"
);
}
);
width = 715;
},
{
anchors = (
{
name = top;
position = "{464, 1244}";
}
);
layerId = "78047C5B-B34F-4F0E-9C92-9BD1482D9144";
name = Bold;
paths = (
{
closed = 1;
nodes = (
"485.5 -14.5 OFFCURVE",
"597 133 OFFCURVE",
"597 359.5 CURVE SMOOTH",
"597 1191 LINE SMOOTH",
"597 1229 OFFCURVE",
"565 1249.5 OFFCURVE",
"490.5 1249.5 CURVE SMOOTH",
"428 1249.5 LINE SMOOTH",
"353.5 1249.5 OFFCURVE",
"321.5 1229 OFFCURVE",
"321.5 1191 CURVE SMOOTH",
"321.5 403.5 LINE SMOOTH",
"321.5 273.5 OFFCURVE",
"279.5 219 OFFCURVE",
"172 219 CURVE SMOOTH",
"115.5 219 OFFCURVE",
"91 232.5 OFFCURVE",
"72.5 232.5 CURVE",
"17.5 227.5 OFFCURVE",
"0 99.5 OFFCURVE",
"0 67.5 CURVE SMOOTH",
"0 -9 OFFCURVE",
"178 -14.5 OFFCURVE",
"220 -14.5 CURVE SMOOTH"
);
}
);
width = 715;
}
);
unicode = 004A;
},
{
glyphname = K;
lastChange = "2015-02-26 04:32:42 +0000";
layers = (
{
anchors = (
{
name = bottom;
position = "{512, 0}";
},
{
name = top;
position = "{512, 1244}";
}
);
background = {
anchors = (
{
name = bottom;
position = "{512, 0}";
},
{
name = top;
position = "{512, 1244}";
}
);
paths = (
{
closed = 1;
nodes = (
"258 -3 LINE SMOOTH",
"307 -3 OFFCURVE",
"328.5 10 OFFCURVE",
"328.5 36 CURVE SMOOTH",
"328.5 592 LINE",
"336 592 LINE",
"845 19.5 LINE SMOOTH",
"865.5 -3 OFFCURVE",
"903 -3 OFFCURVE",
"942 -3 CURVE SMOOTH",
"963.5 -3 LINE SMOOTH",
"1019 -3 OFFCURVE",
"1041.5 2 OFFCURVE",
"1041.5 21.5 CURVE SMOOTH",
"1041.5 28.5 OFFCURVE",
"1038.5 36 OFFCURVE",
"1026 50 CURVE SMOOTH",
"487.5 635 LINE",
"932 1189 LINE SMOOTH",
"944 1203 OFFCURVE",
"949 1215.5 OFFCURVE",
"949 1224.5 CURVE SMOOTH",
"949 1237 OFFCURVE",
"930 1248.5 OFFCURVE",
"887 1248.5 CURVE SMOOTH",
"869.5 1248.5 LINE SMOOTH",
"830.5 1248.5 OFFCURVE",
"789.5 1242 OFFCURVE",
"773 1222.5 CURVE SMOOTH",
"336 664.5 LINE",
"328.5 664.5 LINE",
"328.5 1208.5 LINE SMOOTH",
"328.5 1234 OFFCURVE",
"307 1248.5 OFFCURVE",
"258 1248.5 CURVE SMOOTH",
"243.5 1248.5 LINE SMOOTH",
"193.5 1248.5 OFFCURVE",
"172 1234 OFFCURVE",
"172 1208.5 CURVE SMOOTH",
"172 36 LINE SMOOTH",
"172 10 OFFCURVE",
"193.5 -3 OFFCURVE",
"243.5 -3 CURVE SMOOTH"
);
}
);
};
layerId = "FB715283-CFB2-4766-AFCA-39E45F97C573";
name = Regular;
paths = (
{
closed = 1;
nodes = (
"258 -3 LINE SMOOTH",
"307 -3 OFFCURVE",
"328.5 10 OFFCURVE",
"328.5 36 CURVE SMOOTH",
"328.5 592 LINE",
"336 592 LINE",
"845 19.5 LINE SMOOTH",
"865.5 -3 OFFCURVE",
"903 -3 OFFCURVE",
"942 -3 CURVE SMOOTH",
"963.5 -3 LINE SMOOTH",
"1019 -3 OFFCURVE",
"1041.5 2 OFFCURVE",
"1041.5 21.5 CURVE SMOOTH",
"1041.5 28.5 OFFCURVE",
"1038.5 36 OFFCURVE",
"1026 50 CURVE SMOOTH",
"487.5 635 LINE",
"932 1189 LINE SMOOTH",
"944 1203 OFFCURVE",
"949 1215.5 OFFCURVE",
"949 1224.5 CURVE SMOOTH",
"949 1237 OFFCURVE",
"930 1248.5 OFFCURVE",
"887 1248.5 CURVE SMOOTH",
"869.5 1248.5 LINE SMOOTH",
"830.5 1248.5 OFFCURVE",
"789.5 1242 OFFCURVE",
"773 1222.5 CURVE SMOOTH",
"336 664.5 LINE",
"328.5 664.5 LINE",
"328.5 1208.5 LINE SMOOTH",
"328.5 1234 OFFCURVE",
"307 1248.5 OFFCURVE",
"258 1248.5 CURVE SMOOTH",
"243.5 1248.5 LINE SMOOTH",
"193.5 1248.5 OFFCURVE",
"172 1234 OFFCURVE",
"172 1208.5 CURVE SMOOTH",
"172 36 LINE SMOOTH",
"172 10 OFFCURVE",
"193.5 -3 OFFCURVE",
"243.5 -3 CURVE SMOOTH"
);
}
);
width = 1024;
},
{
anchors = (
{
name = bottom;
position = "{529.5, 0}";
},
{
name = top;
position = "{548, 1244}";
}
);
layerId = "78047C5B-B34F-4F0E-9C92-9BD1482D9144";
name = Bold;
paths = (
{
closed = 1;
nodes = (
"292 -3 LINE SMOOTH",
"366.5 -3 OFFCURVE",
"398.5 16.5 OFFCURVE",
"398.5 53 CURVE SMOOTH",
"398.5 569.5 LINE",
"405.5 570.5 LINE",
"739.5 30.5 LINE SMOOTH",
"755.5 3 OFFCURVE",
"796.5 -3 OFFCURVE",
"848 -3 CURVE SMOOTH",
"951.5 -3 LINE SMOOTH",
"1020 -3 OFFCURVE",
"1050.5 7 OFFCURVE",
"1050.5 23.5 CURVE SMOOTH",
"1050.5 31.5 OFFCURVE",
"1047.5 44 OFFCURVE",
"1036.5 60.5 CURVE SMOOTH",
"647 657.5 LINE",
"990 1183.5 LINE SMOOTH",
"1000.5 1200 OFFCURVE",
"1004.5 1212.5 OFFCURVE",
"1004.5 1221.5 CURVE SMOOTH",
"1004.5 1237 OFFCURVE",
"974 1248.5 OFFCURVE",
"905 1248.5 CURVE SMOOTH",
"821 1248.5 LINE SMOOTH",
"770 1248.5 OFFCURVE",
"730 1241 OFFCURVE",
"715 1214.5 CURVE SMOOTH",
"405.5 712.5 LINE",
"398.5 715 LINE",
"398.5 1191 LINE SMOOTH",
"398.5 1229 OFFCURVE",
"366.5 1248.5 OFFCURVE",
"292 1248.5 CURVE SMOOTH",
"229.5 1248.5 LINE SMOOTH",
"154.5 1248.5 OFFCURVE",
"123 1229 OFFCURVE",
"123 1191 CURVE SMOOTH",
"123 53 LINE SMOOTH",
"123 16.5 OFFCURVE",
"154.5 -3 OFFCURVE",
"229.5 -3 CURVE SMOOTH"
);
}
);
width = 1024;
}
);
unicode = 004B;
},
{
glyphname = L;
lastChange = "2015-02-26 04:32:42 +0000";
layers = (
{
anchors = (
{
name = bottom;
position = "{502, 0}";
},
{
name = caron;
position = "{435, 1244}";
},
{
name = center;
position = "{533.5, 596}";
},
{
name = top;
position = "{258, 1248.5}";
}
);
background = {
anchors = (
{
name = bottom;
position = "{502, 0}";
},
{
name = caron;
position = "{435, 1244}";
},
{
name = center;
position = "{533.5, 596}";
},
{
name = top;
position = "{258, 1248.5}";
}
);
paths = (
{
closed = 1;
nodes = (
"818 0 LINE SMOOTH",
"843 0 OFFCURVE",
"853 16.5 OFFCURVE",
"853 53 CURVE SMOOTH",
"853 82 LINE SMOOTH",
"853 119 OFFCURVE",
"843 135 OFFCURVE",
"818 135 CURVE SMOOTH",
"328.5 135 LINE",
"328.5 1208.5 LINE SMOOTH",
"328.5 1234 OFFCURVE",
"307 1248.5 OFFCURVE",
"258 1248.5 CURVE SMOOTH",
"243.5 1248.5 LINE SMOOTH",
"193.5 1248.5 OFFCURVE",
"172 1234 OFFCURVE",
"172 1208.5 CURVE SMOOTH",
"172 53 LINE SMOOTH",
"172 16.5 OFFCURVE",
"188.5 0 OFFCURVE",
"225.5 0 CURVE SMOOTH"
);
}
);
};
layerId = "FB715283-CFB2-4766-AFCA-39E45F97C573";
name = Regular;
paths = (
{
closed = 1;
nodes = (
"818 0 LINE SMOOTH",
"843 0 OFFCURVE",
"853 16.5 OFFCURVE",
"853 53 CURVE SMOOTH",
"853 82 LINE SMOOTH",
"853 119 OFFCURVE",
"843 135 OFFCURVE",
"818 135 CURVE SMOOTH",
"328.5 135 LINE",
"328.5 1208.5 LINE SMOOTH",
"328.5 1234 OFFCURVE",
"307 1248.5 OFFCURVE",
"258 1248.5 CURVE SMOOTH",
"243.5 1248.5 LINE SMOOTH",
"193.5 1248.5 OFFCURVE",
"172 1234 OFFCURVE",
"172 1208.5 CURVE SMOOTH",
"172 53 LINE SMOOTH",
"172 16.5 OFFCURVE",
"188.5 0 OFFCURVE",
"225.5 0 CURVE SMOOTH"
);
}
);
width = 860;
},
{
anchors = (
{
name = bottom;
position = "{430, 0}";
},
{
name = caron;
position = "{466, 1244}";
},
{
name = center;
position = "{587, 596}";
},
{
name = top;
position = "{266, 1244}";
}
);
layerId = "78047C5B-B34F-4F0E-9C92-9BD1482D9144";
name = Bold;
paths = (
{
closed = 1;
nodes = (
"792.5 0 LINE SMOOTH",
"830.5 0 OFFCURVE",
"846 26.5 OFFCURVE",
"846 89 CURVE SMOOTH",
"846 144.5 LINE SMOOTH",
"846 206 OFFCURVE",
"830.5 232.5 OFFCURVE",
"792.5 232.5 CURVE SMOOTH",
"396.5 232.5 LINE",
"396.5 1191 LINE SMOOTH",
"396.5 1229 OFFCURVE",
"364.5 1248.5 OFFCURVE",
"290 1248.5 CURVE SMOOTH",
"229.5 1248.5 LINE SMOOTH",
"154.5 1248.5 OFFCURVE",
"123 1229 OFFCURVE",
"123 1191 CURVE SMOOTH",
"123 70.5 LINE SMOOTH",
"123 21.5 OFFCURVE",
"144.5 0 OFFCURVE",
"193.5 0 CURVE SMOOTH"
);
}
);
width = 860;
}
);
rightKerningGroup = L;
unicode = 004C;
},
{
glyphname = LJ;
lastChange = "2015-02-26 04:32:42 +0000";
layers = (
{
background = {
paths = (
{
closed = 1;
nodes = (
"1022 -277.5 OFFCURVE",
"1125.5 -126 OFFCURVE",
"1125.5 97.5 CURVE SMOOTH",
"1125.5 1208.5 LINE SMOOTH",
"1125.5 1234 OFFCURVE",
"1104 1248.5 OFFCURVE",
"1053.5 1248.5 CURVE SMOOTH",
"1040.5 1248.5 LINE SMOOTH",
"990 1248.5 OFFCURVE",
"968.5 1234 OFFCURVE",
"968.5 1208.5 CURVE SMOOTH",
"968.5 80 LINE SMOOTH",
"968.5 -72.5 OFFCURVE",
"896 -138 OFFCURVE",
"720 -138 CURVE SMOOTH",
"663.5 -138 OFFCURVE",
"622.5 -123 OFFCURVE",
"608.5 -123 CURVE SMOOTH",
"579.5 -123 OFFCURVE",
"569.5 -213 OFFCURVE",
"569.5 -220 CURVE SMOOTH",
"569.5 -268.5 OFFCURVE",
"681 -277.5 OFFCURVE",
"748.5 -277.5 CURVE SMOOTH"
);
},
{
closed = 1;
nodes = (
"693 0 LINE SMOOTH",
"718 0 OFFCURVE",
"729 16.5 OFFCURVE",
"729 53 CURVE SMOOTH",
"729 82 LINE SMOOTH",
"729 119 OFFCURVE",
"718 135 OFFCURVE",
"693 135 CURVE SMOOTH",
"328.5 135 LINE",
"328.5 1208.5 LINE SMOOTH",
"328.5 1234 OFFCURVE",
"307 1248.5 OFFCURVE",
"258 1248.5 CURVE SMOOTH",
"243.5 1248.5 LINE SMOOTH",
"193.5 1248.5 OFFCURVE",
"172 1234 OFFCURVE",
"172 1208.5 CURVE SMOOTH",
"172 53 LINE SMOOTH",
"172 16.5 OFFCURVE",
"188.5 0 OFFCURVE",
"225.5 0 CURVE SMOOTH"
);
}
);
};
layerId = "FB715283-CFB2-4766-AFCA-39E45F97C573";
name = Regular;
paths = (
{
closed = 1;
nodes = (
"1022 -277.5 OFFCURVE",
"1125.5 -126 OFFCURVE",
"1125.5 97.5 CURVE SMOOTH",
"1125.5 1208.5 LINE SMOOTH",
"1125.5 1234 OFFCURVE",
"1104 1248.5 OFFCURVE",
"1053.5 1248.5 CURVE SMOOTH",
"1040.5 1248.5 LINE SMOOTH",
"990 1248.5 OFFCURVE",
"968.5 1234 OFFCURVE",
"968.5 1208.5 CURVE SMOOTH",
"968.5 80 LINE SMOOTH",
"968.5 -72.5 OFFCURVE",
"896 -138 OFFCURVE",
"720 -138 CURVE SMOOTH",
"663.5 -138 OFFCURVE",
"622.5 -123 OFFCURVE",
"608.5 -123 CURVE SMOOTH",
"579.5 -123 OFFCURVE",
"569.5 -213 OFFCURVE",
"569.5 -220 CURVE SMOOTH",
"569.5 -268.5 OFFCURVE",
"681 -277.5 OFFCURVE",
"748.5 -277.5 CURVE SMOOTH"
);
},
{
closed = 1;
nodes = (
"693 0 LINE SMOOTH",
"718 0 OFFCURVE",
"729 16.5 OFFCURVE",
"729 53 CURVE SMOOTH",
"729 82 LINE SMOOTH",
"729 119 OFFCURVE",
"718 135 OFFCURVE",
"693 135 CURVE SMOOTH",
"328.5 135 LINE",
"328.5 1208.5 LINE SMOOTH",
"328.5 1234 OFFCURVE",
"307 1248.5 OFFCURVE",
"258 1248.5 CURVE SMOOTH",
"243.5 1248.5 LINE SMOOTH",
"193.5 1248.5 OFFCURVE",
"172 1234 OFFCURVE",
"172 1208.5 CURVE SMOOTH",
"172 53 LINE SMOOTH",
"172 16.5 OFFCURVE",
"188.5 0 OFFCURVE",
"225.5 0 CURVE SMOOTH"
);
}
);
width = 1276;
},
{
layerId = "78047C5B-B34F-4F0E-9C92-9BD1482D9144";
name = Bold;
paths = (
{
closed = 1;
nodes = (
"1061 -321.5 OFFCURVE",
"1173.5 -151.5 OFFCURVE",
"1173.5 75 CURVE SMOOTH",
"1173.5 1191 LINE SMOOTH",
"1173.5 1229 OFFCURVE",
"1142 1249.5 OFFCURVE",
"1067 1249.5 CURVE SMOOTH",
"1004.5 1249.5 LINE SMOOTH",
"930 1249.5 OFFCURVE",
"898 1229 OFFCURVE",
"898 1191 CURVE SMOOTH",
"898 96.5 LINE SMOOTH",
"898 -34 OFFCURVE",
"855 -89 OFFCURVE",
"748.5 -89 CURVE SMOOTH",
"691 -89 OFFCURVE",
"666.5 -75 OFFCURVE",
"649 -75 CURVE",
"594 -80 OFFCURVE",
"575.5 -208 OFFCURVE",
"575.5 -239.5 CURVE SMOOTH",
"575.5 -316.5 OFFCURVE",
"753.5 -321.5 OFFCURVE",
"796.5 -321.5 CURVE SMOOTH"
);
},
{
closed = 1;
nodes = (
"668.5 0 LINE SMOOTH",
"705.5 0 OFFCURVE",
"722 26.5 OFFCURVE",
"722 89 CURVE SMOOTH",
"722 144.5 LINE SMOOTH",
"722 206 OFFCURVE",
"705.5 232.5 OFFCURVE",
"668.5 232.5 CURVE SMOOTH",
"396.5 232.5 LINE",
"396.5 1191 LINE SMOOTH",
"396.5 1229 OFFCURVE",
"364.5 1248.5 OFFCURVE",
"290 1248.5 CURVE SMOOTH",
"229.5 1248.5 LINE SMOOTH",
"154.5 1248.5 OFFCURVE",
"123 1229 OFFCURVE",
"123 1191 CURVE SMOOTH",
"123 70.5 LINE SMOOTH",
"123 21.5 OFFCURVE",
"144.5 0 OFFCURVE",
"193.5 0 CURVE SMOOTH"
);
}
);
width = 1276;
}
);
unicode = 01C7;
},
{
glyphname = Lslash;
lastChange = "2015-02-26 04:32:42 +0000";
layers = (
{
background = {
paths = (
{
closed = 1;
nodes = (
"825.5 0 LINE SMOOTH",
"850 0 OFFCURVE",
"860 16.5 OFFCURVE",
"860 53 CURVE SMOOTH",
"860 82 LINE SMOOTH",
"860 119 OFFCURVE",
"850 135 OFFCURVE",
"825.5 135 CURVE SMOOTH",
"307 135 LINE",
"307 712.5 LINE",
"499.5 826.5 LINE SMOOTH",
"521 838.5 OFFCURVE",
"533.5 855 OFFCURVE",
"533.5 879.5 CURVE SMOOTH",
"533.5 891 LINE SMOOTH",
"533.5 906 OFFCURVE",
"526.5 915.5 OFFCURVE",
"517 915.5 CURVE SMOOTH",
"512 915.5 OFFCURVE",
"507 912.5 OFFCURVE",
"499.5 908.5 CURVE SMOOTH",
"307 794.5 LINE",
"307 1208.5 LINE SMOOTH",
"307 1234 OFFCURVE",
"285.5 1248.5 OFFCURVE",
"236.5 1248.5 CURVE SMOOTH",
"222 1248.5 LINE SMOOTH",
"172 1248.5 OFFCURVE",
"151.5 1234 OFFCURVE",
"151.5 1208.5 CURVE SMOOTH",
"151.5 700.5 LINE",
"30.5 630 LINE SMOOTH",
"9 616.5 OFFCURVE",
"-3 601 OFFCURVE",
"-3 575.5 CURVE SMOOTH",
"-3 565 LINE SMOOTH",
"-3 549 OFFCURVE",
"3 540.5 OFFCURVE",
"12.5 540.5 CURVE SMOOTH",
"16.5 540.5 OFFCURVE",
"23.5 541.5 OFFCURVE",
"30.5 548 CURVE SMOOTH",
"151.5 618.5 LINE",
"151.5 53 LINE SMOOTH",
"151.5 16.5 OFFCURVE",
"167 0 OFFCURVE",
"205 0 CURVE SMOOTH"
);
}
);
};
layerId = "FB715283-CFB2-4766-AFCA-39E45F97C573";
name = Regular;
paths = (
{
closed = 1;
nodes = (
"825.5 0 LINE SMOOTH",
"850 0 OFFCURVE",
"860 16.5 OFFCURVE",
"860 53 CURVE SMOOTH",
"860 82 LINE SMOOTH",
"860 119 OFFCURVE",
"850 135 OFFCURVE",
"825.5 135 CURVE SMOOTH",
"307 135 LINE",
"307 712.5 LINE",
"499.5 826.5 LINE SMOOTH",
"521 838.5 OFFCURVE",
"533.5 855 OFFCURVE",
"533.5 879.5 CURVE SMOOTH",
"533.5 891 LINE SMOOTH",
"533.5 906 OFFCURVE",
"526.5 915.5 OFFCURVE",
"517 915.5 CURVE SMOOTH",
"512 915.5 OFFCURVE",
"507 912.5 OFFCURVE",
"499.5 908.5 CURVE SMOOTH",
"307 794.5 LINE",
"307 1208.5 LINE SMOOTH",
"307 1234 OFFCURVE",
"285.5 1248.5 OFFCURVE",
"236.5 1248.5 CURVE SMOOTH",
"222 1248.5 LINE SMOOTH",
"172 1248.5 OFFCURVE",
"151.5 1234 OFFCURVE",
"151.5 1208.5 CURVE SMOOTH",
"151.5 700.5 LINE",
"30.5 630 LINE SMOOTH",
"9 616.5 OFFCURVE",
"-3 601 OFFCURVE",
"-3 575.5 CURVE SMOOTH",
"-3 565 LINE SMOOTH",
"-3 549 OFFCURVE",
"3 540.5 OFFCURVE",
"12.5 540.5 CURVE SMOOTH",
"16.5 540.5 OFFCURVE",
"23.5 541.5 OFFCURVE",
"30.5 548 CURVE SMOOTH",
"151.5 618.5 LINE",
"151.5 53 LINE SMOOTH",
"151.5 16.5 OFFCURVE",
"167 0 OFFCURVE",
"205 0 CURVE SMOOTH"
);
}
);
width = 864.5;
},
{
layerId = "78047C5B-B34F-4F0E-9C92-9BD1482D9144";
name = Bold;
paths = (
{
closed = 1;
nodes = (
"796.5 0 LINE SMOOTH",
"833.5 0 OFFCURVE",
"850 26.5 OFFCURVE",
"850 89 CURVE SMOOTH",
"850 144.5 LINE SMOOTH",
"850 206 OFFCURVE",
"833.5 232.5 OFFCURVE",
"796.5 232.5 CURVE SMOOTH",
"400.5 232.5 LINE",
"400.5 702.5 LINE",
"555 796.5 LINE SMOOTH",
"587 816 OFFCURVE",
"601 840.5 OFFCURVE",
"601 878.5 CURVE SMOOTH",
"601 913.5 LINE SMOOTH",
"601 937 OFFCURVE",
"594 949 OFFCURVE",
"581.5 949 CURVE SMOOTH",
"574.5 949 OFFCURVE",
"565 946 OFFCURVE",
"555 939 CURVE SMOOTH",
"400.5 845 LINE",
"400.5 1191 LINE SMOOTH",
"400.5 1229 OFFCURVE",
"367.5 1248.5 OFFCURVE",
"293 1248.5 CURVE SMOOTH",
"232.5 1248.5 LINE SMOOTH",
"158.5 1248.5 OFFCURVE",
"126 1229 OFFCURVE",
"126 1191 CURVE SMOOTH",
"126 677 LINE",
"92 656.5 LINE SMOOTH",
"60.5 636 OFFCURVE",
"46 615.5 OFFCURVE",
"46 575.5 CURVE SMOOTH",
"46 540.5 LINE SMOOTH",
"46 515 OFFCURVE",
"51 505 OFFCURVE",
"65.5 505 CURVE SMOOTH",
"72.5 505 OFFCURVE",
"82 507 OFFCURVE",
"92 514 CURVE SMOOTH",
"126 535.5 LINE",
"126 70.5 LINE SMOOTH",
"126 21.5 OFFCURVE",
"147.5 0 OFFCURVE",
"197.5 0 CURVE SMOOTH"
);
}
);
width = 864.5;
}
);
rightKerningGroup = L;
unicode = 0141;
},
{
glyphname = M;
lastChange = "2015-02-26 04:32:42 +0000";
layers = (
{
background = {
paths = (
{
closed = 1;
nodes = (
"243.5 -3 LINE SMOOTH",
"293 -3 OFFCURVE",
"314.5 10 OFFCURVE",
"314.5 36 CURVE SMOOTH",
"314.5 1002.5 LINE",
"318.5 995.5 LINE",
"677 369.5 LINE SMOOTH",
"686 353.5 OFFCURVE",
"698.5 347 OFFCURVE",
"717 347 CURVE SMOOTH",
"787.5 347 LINE SMOOTH",
"807 347 OFFCURVE",
"818 353.5 OFFCURVE",
"826.5 369.5 CURVE SMOOTH",
"1180.5 985 LINE",
"1183.5 992.5 LINE",
"1183.5 36 LINE SMOOTH",
"1183.5 10 OFFCURVE",
"1205 -3 OFFCURVE",
"1255.5 -3 CURVE SMOOTH",
"1267.5 -3 LINE SMOOTH",
"1317 -3 OFFCURVE",
"1338.5 10 OFFCURVE",
"1338.5 36 CURVE SMOOTH",
"1338.5 1208.5 LINE SMOOTH",
"1338.5 1234 OFFCURVE",
"1317 1248.5 OFFCURVE",
"1267.5 1248.5 CURVE SMOOTH",
"1208.5 1248.5 LINE SMOOTH",
"1166.5 1248.5 OFFCURVE",
"1145 1236 OFFCURVE",
"1134.5 1215.5 CURVE SMOOTH",
"797.5 622.5 LINE",
"751.5 521 LINE",
"705.5 633 LINE",
"369.5 1215.5 LINE SMOOTH",
"359.5 1236 OFFCURVE",
"338 1248.5 OFFCURVE",
"295 1248.5 CURVE SMOOTH",
"231.5 1248.5 LINE SMOOTH",
"181 1248.5 OFFCURVE",
"159.5 1234 OFFCURVE",
"159.5 1208.5 CURVE SMOOTH",
"159.5 36 LINE SMOOTH",
"159.5 10 OFFCURVE",
"181 -3 OFFCURVE",
"231.5 -3 CURVE SMOOTH"
);
}
);
};
layerId = "FB715283-CFB2-4766-AFCA-39E45F97C573";
name = Regular;
paths = (
{
closed = 1;
nodes = (
"243.5 -3 LINE SMOOTH",
"293 -3 OFFCURVE",
"314.5 10 OFFCURVE",
"314.5 36 CURVE SMOOTH",
"314.5 1002.5 LINE",
"318.5 995.5 LINE",
"677 369.5 LINE SMOOTH",
"686 353.5 OFFCURVE",
"698.5 347 OFFCURVE",
"717 347 CURVE SMOOTH",
"787.5 347 LINE SMOOTH",
"807 347 OFFCURVE",
"818 353.5 OFFCURVE",
"826.5 369.5 CURVE SMOOTH",
"1180.5 985 LINE",
"1183.5 992.5 LINE",
"1183.5 36 LINE SMOOTH",
"1183.5 10 OFFCURVE",
"1205 -3 OFFCURVE",
"1255.5 -3 CURVE SMOOTH",
"1267.5 -3 LINE SMOOTH",
"1317 -3 OFFCURVE",
"1338.5 10 OFFCURVE",
"1338.5 36 CURVE SMOOTH",
"1338.5 1208.5 LINE SMOOTH",
"1338.5 1234 OFFCURVE",
"1317 1248.5 OFFCURVE",
"1267.5 1248.5 CURVE SMOOTH",
"1208.5 1248.5 LINE SMOOTH",
"1166.5 1248.5 OFFCURVE",
"1145 1236 OFFCURVE",
"1134.5 1215.5 CURVE SMOOTH",
"797.5 622.5 LINE",
"751.5 521 LINE",
"705.5 633 LINE",
"369.5 1215.5 LINE SMOOTH",
"359.5 1236 OFFCURVE",
"338 1248.5 OFFCURVE",
"295 1248.5 CURVE SMOOTH",
"231.5 1248.5 LINE SMOOTH",
"181 1248.5 OFFCURVE",
"159.5 1234 OFFCURVE",
"159.5 1208.5 CURVE SMOOTH",
"159.5 36 LINE SMOOTH",
"159.5 10 OFFCURVE",
"181 -3 OFFCURVE",
"231.5 -3 CURVE SMOOTH"
);
}
);
width = 1498;
},
{
layerId = "78047C5B-B34F-4F0E-9C92-9BD1482D9144";
name = Bold;
paths = (
{
closed = 1;
nodes = (
"280.5 -3 LINE SMOOTH",
"355.5 -3 OFFCURVE",
"387 16.5 OFFCURVE",
"387 53 CURVE SMOOTH",
"387 789.5 LINE",
"394 791.5 LINE",
"652.5 331 LINE",
"668.5 309 OFFCURVE",
"690 297 OFFCURVE",
"724 297 CURVE SMOOTH",
"775 297 LINE SMOOTH",
"809 297 OFFCURVE",
"830.5 309 OFFCURVE",
"846 331 CURVE",
"1104 791.5 LINE",
"1111 789.5 LINE",
"1111 53 LINE SMOOTH",
"1111 16.5 OFFCURVE",
"1143 -3 OFFCURVE",
"1217.5 -3 CURVE SMOOTH",
"1270 -3 LINE SMOOTH",
"1343.5 -3 OFFCURVE",
"1376.5 16.5 OFFCURVE",
"1376.5 53 CURVE SMOOTH",
"1376.5 1191 LINE SMOOTH",
"1376.5 1229 OFFCURVE",
"1343.5 1248.5 OFFCURVE",
"1270 1248.5 CURVE SMOOTH",
"1176.5 1248.5 LINE SMOOTH",
"1125.5 1248.5 OFFCURVE",
"1084.5 1236 OFFCURVE",
"1065 1200 CURVE SMOOTH",
"764 674 LINE",
"748.5 643 LINE",
"734 668.5 LINE",
"435 1200 LINE SMOOTH",
"415.5 1236 OFFCURVE",
"375 1248.5 OFFCURVE",
"323.5 1248.5 CURVE SMOOTH",
"229.5 1248.5 LINE SMOOTH",
"154.5 1248.5 OFFCURVE",
"123 1229 OFFCURVE",
"123 1191 CURVE SMOOTH",
"123 53 LINE SMOOTH",
"123 16.5 OFFCURVE",
"154.5 -3 OFFCURVE",
"229.5 -3 CURVE SMOOTH"
);
}
);
width = 1498;
}
);
unicode = 004D;
},
{
glyphname = N;
lastChange = "2015-02-26 04:32:42 +0000";
layers = (
{
anchors = (
{
name = bottom;
position = "{640, 0}";
},
{
name = top;
position = "{640, 1244}";
}
);
background = {
anchors = (
{
name = bottom;
position = "{640, 0}";
},
{
name = top;
position = "{640, 1244}";
}
);
paths = (
{
closed = 1;
nodes = (
"243.5 -3 LINE SMOOTH",
"293 -3 OFFCURVE",
"314.5 10 OFFCURVE",
"314.5 36 CURVE SMOOTH",
"314.5 997.5 LINE",
"362.5 906 LINE",
"949 21.5 LINE SMOOTH",
"959.5 5 OFFCURVE",
"978 -3 OFFCURVE",
"1011.5 -3 CURVE SMOOTH",
"1047.5 -3 LINE SMOOTH",
"1096.5 -3 OFFCURVE",
"1118 10 OFFCURVE",
"1118 36 CURVE SMOOTH",
"1118 1208.5 LINE SMOOTH",
"1118 1234 OFFCURVE",
"1096.5 1248.5 OFFCURVE",
"1047.5 1248.5 CURVE SMOOTH",
"1034 1248.5 LINE SMOOTH",
"985 1248.5 OFFCURVE",
"963.5 1234 OFFCURVE",
"963.5 1208.5 CURVE SMOOTH",
"963.5 258 LINE",
"910.5 357.5 LINE",
"343 1214.5 LINE SMOOTH",
"325.5 1239 OFFCURVE",
"307 1248.5 OFFCURVE",
"268.5 1248.5 CURVE SMOOTH",
"231.5 1248.5 LINE SMOOTH",
"181 1248.5 OFFCURVE",
"159.5 1234 OFFCURVE",
"159.5 1208.5 CURVE SMOOTH",
"159.5 36 LINE SMOOTH",
"159.5 10 OFFCURVE",
"181 -3 OFFCURVE",
"231.5 -3 CURVE SMOOTH"
);
}
);
};
layerId = "FB715283-CFB2-4766-AFCA-39E45F97C573";
name = Regular;
paths = (
{
closed = 1;
nodes = (
"243.5 -3 LINE SMOOTH",
"293 -3 OFFCURVE",
"314.5 10 OFFCURVE",
"314.5 36 CURVE SMOOTH",
"314.5 997.5 LINE",
"362.5 906 LINE",
"949 21.5 LINE SMOOTH",
"959.5 5 OFFCURVE",
"978 -3 OFFCURVE",
"1011.5 -3 CURVE SMOOTH",
"1047.5 -3 LINE SMOOTH",
"1096.5 -3 OFFCURVE",
"1118 10 OFFCURVE",
"1118 36 CURVE SMOOTH",
"1118 1208.5 LINE SMOOTH",
"1118 1234 OFFCURVE",
"1096.5 1248.5 OFFCURVE",
"1047.5 1248.5 CURVE SMOOTH",
"1034 1248.5 LINE SMOOTH",
"985 1248.5 OFFCURVE",
"963.5 1234 OFFCURVE",
"963.5 1208.5 CURVE SMOOTH",
"963.5 258 LINE",
"910.5 357.5 LINE",
"343 1214.5 LINE SMOOTH",
"325.5 1239 OFFCURVE",
"307 1248.5 OFFCURVE",
"268.5 1248.5 CURVE SMOOTH",
"231.5 1248.5 LINE SMOOTH",
"181 1248.5 OFFCURVE",
"159.5 1234 OFFCURVE",
"159.5 1208.5 CURVE SMOOTH",
"159.5 36 LINE SMOOTH",
"159.5 10 OFFCURVE",
"181 -3 OFFCURVE",
"231.5 -3 CURVE SMOOTH"
);
}
);
width = 1278;
},
{
anchors = (
{
name = bottom;
position = "{640, 0}";
},
{
name = top;
position = "{640, 1244}";
}
);
layerId = "78047C5B-B34F-4F0E-9C92-9BD1482D9144";
name = Bold;
paths = (
{
closed = 1;
nodes = (
"280.5 -3 LINE SMOOTH",
"355.5 -3 OFFCURVE",
"387 16.5 OFFCURVE",
"387 53 CURVE SMOOTH",
"387 773 LINE",
"425 717 LINE",
"864.5 44 LINE SMOOTH",
"891 3 OFFCURVE",
"930 -3 OFFCURVE",
"981 -3 CURVE SMOOTH",
"1048.5 -3 LINE SMOOTH",
"1123.5 -3 OFFCURVE",
"1155 16.5 OFFCURVE",
"1155 53 CURVE SMOOTH",
"1155 1191 LINE SMOOTH",
"1155 1229 OFFCURVE",
"1123.5 1248.5 OFFCURVE",
"1048.5 1248.5 CURVE SMOOTH",
"997.5 1248.5 LINE SMOOTH",
"922.5 1248.5 OFFCURVE",
"891 1229 OFFCURVE",
"891 1191 CURVE SMOOTH",
"891 480.5 LINE",
"843 553 LINE",
"423 1200 LINE SMOOTH",
"396.5 1241 OFFCURVE",
"357.5 1248.5 OFFCURVE",
"306 1248.5 CURVE SMOOTH",
"229.5 1248.5 LINE SMOOTH",
"154.5 1248.5 OFFCURVE",
"123 1229 OFFCURVE",
"123 1191 CURVE SMOOTH",
"123 53 LINE SMOOTH",
"123 16.5 OFFCURVE",
"154.5 -3 OFFCURVE",
"229.5 -3 CURVE SMOOTH"
);
}
);
width = 1278;
}
);
unicode = 004E;
},
{
glyphname = Eng;
lastChange = "2015-02-26 04:32:42 +0000";
layers = (
{
background = {
components = (
{
name = jdotless;
transform = "{1, 0, 0, 1, 789.283, 0}";
}
);
paths = (
{
closed = 1;
nodes = (
"1118 36 LINE",
"1118 1208.5 LINE SMOOTH",
"1118 1234 OFFCURVE",
"1096.5 1248.5 OFFCURVE",
"1047.5 1248.5 CURVE SMOOTH",
"1034 1248.5 LINE SMOOTH",
"985 1248.5 OFFCURVE",
"963.5 1234 OFFCURVE",
"963.5 1208.5 CURVE SMOOTH",
"963.5 258 LINE",
"910.5 357.5 LINE",
"343 1214.5 LINE SMOOTH",
"325.5 1239 OFFCURVE",
"307 1248.5 OFFCURVE",
"268.5 1248.5 CURVE SMOOTH",
"231.5 1248.5 LINE SMOOTH",
"181 1248.5 OFFCURVE",
"159.5 1234 OFFCURVE",
"159.5 1208.5 CURVE SMOOTH",
"159.5 36 LINE SMOOTH",
"159.5 10 OFFCURVE",
"181 -3 OFFCURVE",
"231.5 -3 CURVE SMOOTH",
"243.5 -3 LINE SMOOTH",
"293 -3 OFFCURVE",
"314.5 10 OFFCURVE",
"314.5 36 CURVE SMOOTH",
"314.5 997.5 LINE",
"362.5 906 LINE",
"992.5 -43 LINE"
);
}
);
};
components = (
{
name = jdotless;
transform = "{1, 0, 0, 1, 789.283, 0}";
}
);
layerId = "FB715283-CFB2-4766-AFCA-39E45F97C573";
name = Regular;
paths = (
{
closed = 1;
nodes = (
"1118 36 LINE",
"1118 1208.5 LINE SMOOTH",
"1118 1234 OFFCURVE",
"1096.5 1248.5 OFFCURVE",
"1047.5 1248.5 CURVE SMOOTH",
"1034 1248.5 LINE SMOOTH",
"985 1248.5 OFFCURVE",
"963.5 1234 OFFCURVE",
"963.5 1208.5 CURVE SMOOTH",
"963.5 258 LINE",
"910.5 357.5 LINE",
"343 1214.5 LINE SMOOTH",
"325.5 1239 OFFCURVE",
"307 1248.5 OFFCURVE",
"268.5 1248.5 CURVE SMOOTH",
"231.5 1248.5 LINE SMOOTH",
"181 1248.5 OFFCURVE",
"159.5 1234 OFFCURVE",
"159.5 1208.5 CURVE SMOOTH",
"159.5 36 LINE SMOOTH",
"159.5 10 OFFCURVE",
"181 -3 OFFCURVE",
"231.5 -3 CURVE SMOOTH",
"243.5 -3 LINE SMOOTH",
"293 -3 OFFCURVE",
"314.5 10 OFFCURVE",
"314.5 36 CURVE SMOOTH",
"314.5 997.5 LINE",
"362.5 906 LINE",
"992.5 -43 LINE"
);
}
);
width = 1278;
},
{
components = (
{
name = jdotless;
transform = "{1, 0, 0, 1, 767.951, 0}";
}
);
layerId = "78047C5B-B34F-4F0E-9C92-9BD1482D9144";
name = Bold;
paths = (
{
closed = 1;
nodes = (
"1155 53 LINE",
"1155 1191 LINE SMOOTH",
"1155 1229 OFFCURVE",
"1123.5 1248.5 OFFCURVE",
"1048.5 1248.5 CURVE SMOOTH",
"997.5 1248.5 LINE SMOOTH",
"922.5 1248.5 OFFCURVE",
"891 1229 OFFCURVE",
"891 1191 CURVE SMOOTH",
"891 480.5 LINE",
"840.5 556 LINE",
"423 1200 LINE SMOOTH",
"396.5 1241 OFFCURVE",
"357.5 1248.5 OFFCURVE",
"306 1248.5 CURVE SMOOTH",
"229.5 1248.5 LINE SMOOTH",
"154.5 1248.5 OFFCURVE",
"123 1229 OFFCURVE",
"123 1191 CURVE SMOOTH",
"123 53 LINE SMOOTH",
"123 16.5 OFFCURVE",
"154.5 -3 OFFCURVE",
"229.5 -3 CURVE SMOOTH",
"280.5 -3 LINE SMOOTH",
"355.5 -3 OFFCURVE",
"387 16.5 OFFCURVE",
"387 53 CURVE SMOOTH",
"387 773 LINE",
"432 703.5 LINE",
"924.5 -46 LINE"
);
}
);
width = 1278;
}
);
unicode = 014A;
},
{
glyphname = O;
lastChange = "2015-02-26 04:32:42 +0000";
layers = (
{
anchors = (
{
name = bottom;
position = "{652.5, 0}";
},
{
name = horn;
position = "{857, 1212.5}";
},
{
name = ogonek;
position = "{787.5, 0}";
},
{
name = top;
position = "{650, 1244}";
}
);
background = {
anchors = (
{
name = bottom;
position = "{652.5, 0}";
},
{
name = horn;
position = "{857, 1212.5}";
},
{
name = ogonek;
position = "{787.5, 0}";
},
{
name = top;
position = "{650, 1244}";
}
);
paths = (
{
closed = 1;
nodes = (
"1006.5 -10 OFFCURVE",
"1198 210 OFFCURVE",
"1198 625.5 CURVE SMOOTH",
"1198 1041.5 OFFCURVE",
"1006.5 1255.5 OFFCURVE",
"649 1255.5 CURVE SMOOTH",
"293 1255.5 OFFCURVE",
"101.5 1041.5 OFFCURVE",
"101.5 625.5 CURVE SMOOTH",
"101.5 210 OFFCURVE",
"293 -10 OFFCURVE",
"649 -10 CURVE SMOOTH"
);
},
{
closed = 1;
nodes = (
"398.5 125 OFFCURVE",
"263 299 OFFCURVE",
"263 625.5 CURVE SMOOTH",
"263 952.5 OFFCURVE",
"398.5 1120.5 OFFCURVE",
"649 1120.5 CURVE SMOOTH",
"899 1120.5 OFFCURVE",
"1036.5 952.5 OFFCURVE",
"1036.5 625.5 CURVE SMOOTH",
"1036.5 299 OFFCURVE",
"899 125 OFFCURVE",
"649 125 CURVE SMOOTH"
);
}
);
};
layerId = "FB715283-CFB2-4766-AFCA-39E45F97C573";
name = Regular;
paths = (
{
closed = 1;
nodes = (
"1006.5 -10 OFFCURVE",
"1198 210 OFFCURVE",
"1198 625.5 CURVE SMOOTH",
"1198 1041.5 OFFCURVE",
"1006.5 1255.5 OFFCURVE",
"649 1255.5 CURVE SMOOTH",
"293 1255.5 OFFCURVE",
"101.5 1041.5 OFFCURVE",
"101.5 625.5 CURVE SMOOTH",
"101.5 210 OFFCURVE",
"293 -10 OFFCURVE",
"649 -10 CURVE SMOOTH"
);
},
{
closed = 1;
nodes = (
"398.5 125 OFFCURVE",
"263 299 OFFCURVE",
"263 625.5 CURVE SMOOTH",
"263 952.5 OFFCURVE",
"398.5 1120.5 OFFCURVE",
"649 1120.5 CURVE SMOOTH",
"899 1120.5 OFFCURVE",
"1036.5 952.5 OFFCURVE",
"1036.5 625.5 CURVE SMOOTH",
"1036.5 299 OFFCURVE",
"899 125 OFFCURVE",
"649 125 CURVE SMOOTH"
);
}
);
width = 1299.5;
},
{
anchors = (
{
name = bottom;
position = "{652.5, 0}";
},
{
name = horn;
position = "{843, 1212.5}";
},
{
name = ogonek;
position = "{787.5, 0}";
},
{
name = top;
position = "{650, 1244}";
}
);
layerId = "78047C5B-B34F-4F0E-9C92-9BD1482D9144";
name = Bold;
paths = (
{
closed = 1;
nodes = (
"1017 -14.5 OFFCURVE",
"1219.5 212 OFFCURVE",
"1219.5 622.5 CURVE SMOOTH",
"1219.5 1033 OFFCURVE",
"1017 1258.5 OFFCURVE",
"650 1258.5 CURVE SMOOTH",
"284.5 1258.5 OFFCURVE",
"80 1033 OFFCURVE",
"80 622.5 CURVE SMOOTH",
"80 212 OFFCURVE",
"284.5 -14.5 OFFCURVE",
"650 -14.5 CURVE SMOOTH"
);
},
{
closed = 1;
nodes = (
"461 219 OFFCURVE",
"360.5 360.5 OFFCURVE",
"360.5 622.5 CURVE SMOOTH",
"360.5 883.5 OFFCURVE",
"461 1024 OFFCURVE",
"650 1024 CURVE SMOOTH",
"840.5 1024 OFFCURVE",
"939 883.5 OFFCURVE",
"939 622.5 CURVE SMOOTH",
"939 360.5 OFFCURVE",
"840.5 219 OFFCURVE",
"650 219 CURVE SMOOTH"
);
}
);
width = 1299.5;
}
);
unicode = 004F;
},
{
glyphname = Oslash;
lastChange = "2015-02-26 04:32:42 +0000";
layers = (
{
anchors = (
{
name = top;
position = "{650, 1244}";
}
);
background = {
anchors = (
{
name = top;
position = "{650, 1244}";
}
);
paths = (
{
closed = 1;
nodes = (
"1006.5 -10 OFFCURVE",
"1198 210 OFFCURVE",
"1198 625.5 CURVE SMOOTH",
"1198 819 OFFCURVE",
"1155 968.5 OFFCURVE",
"1075 1074 CURVE",
"1178.5 1188 LINE SMOOTH",
"1186 1196 OFFCURVE",
"1189 1203 OFFCURVE",
"1189 1212.5 CURVE SMOOTH",
"1189 1227 OFFCURVE",
"1166.5 1248.5 OFFCURVE",
"1150 1248.5 CURVE SMOOTH",
"1142 1248.5 OFFCURVE",
"1134.5 1244 OFFCURVE",
"1125.5 1234 CURVE SMOOTH",
"1027 1125.5 LINE",
"935 1210.5 OFFCURVE",
"809 1255.5 OFFCURVE",
"649 1255.5 CURVE SMOOTH",
"293 1255.5 OFFCURVE",
"101.5 1041.5 OFFCURVE",
"101.5 625.5 CURVE SMOOTH",
"101.5 449.5 OFFCURVE",
"135 311.5 OFFCURVE",
"200.5 206 CURVE",
"70.5 63.5 LINE SMOOTH",
"63.5 55.5 OFFCURVE",
"60.5 46 OFFCURVE",
"60.5 39 CURVE SMOOTH",
"60.5 23.5 OFFCURVE",
"84 2 OFFCURVE",
"99.5 2 CURVE SMOOTH",
"106.5 2 OFFCURVE",
"115.5 7 OFFCURVE",
"125 17.5 CURVE SMOOTH",
"243.5 149.5 LINE",
"336 43 OFFCURVE",
"471 -10 OFFCURVE",
"649 -10 CURVE SMOOTH"
);
},
{
closed = 1;
nodes = (
"515 125 OFFCURVE",
"413.5 172 OFFCURVE",
"350 268.5 CURVE",
"965.5 952.5 LINE",
"1011.5 872.5 OFFCURVE",
"1036.5 763 OFFCURVE",
"1036.5 625.5 CURVE SMOOTH",
"1036.5 299 OFFCURVE",
"899 125 OFFCURVE",
"649 125 CURVE SMOOTH"
);
},
{
closed = 1;
nodes = (
"280.5 410.5 OFFCURVE",
"263 508 OFFCURVE",
"263 625.5 CURVE SMOOTH",
"263 952.5 OFFCURVE",
"398.5 1120.5 OFFCURVE",
"649 1120.5 CURVE SMOOTH",
"766 1120.5 OFFCURVE",
"858 1082.5 OFFCURVE",
"922.5 1009.5 CURVE",
"314.5 333 LINE"
);
}
);
};
layerId = "FB715283-CFB2-4766-AFCA-39E45F97C573";
name = Regular;
paths = (
{
closed = 1;
nodes = (
"1006.5 -10 OFFCURVE",
"1198 210 OFFCURVE",
"1198 625.5 CURVE SMOOTH",
"1198 819 OFFCURVE",
"1155 968.5 OFFCURVE",
"1075 1074 CURVE",
"1178.5 1188 LINE SMOOTH",
"1186 1196 OFFCURVE",
"1189 1203 OFFCURVE",
"1189 1212.5 CURVE SMOOTH",
"1189 1227 OFFCURVE",
"1166.5 1248.5 OFFCURVE",
"1150 1248.5 CURVE SMOOTH",
"1142 1248.5 OFFCURVE",
"1134.5 1244 OFFCURVE",
"1125.5 1234 CURVE SMOOTH",
"1027 1125.5 LINE",
"935 1210.5 OFFCURVE",
"809 1255.5 OFFCURVE",
"649 1255.5 CURVE SMOOTH",
"293 1255.5 OFFCURVE",
"101.5 1041.5 OFFCURVE",
"101.5 625.5 CURVE SMOOTH",
"101.5 449.5 OFFCURVE",
"135 311.5 OFFCURVE",
"200.5 206 CURVE",
"70.5 63.5 LINE SMOOTH",
"63.5 55.5 OFFCURVE",
"60.5 46 OFFCURVE",
"60.5 39 CURVE SMOOTH",
"60.5 23.5 OFFCURVE",
"84 2 OFFCURVE",
"99.5 2 CURVE SMOOTH",
"106.5 2 OFFCURVE",
"115.5 7 OFFCURVE",
"125 17.5 CURVE SMOOTH",
"243.5 149.5 LINE",
"336 43 OFFCURVE",
"471 -10 OFFCURVE",
"649 -10 CURVE SMOOTH"
);
},
{
closed = 1;
nodes = (
"515 125 OFFCURVE",
"413.5 172 OFFCURVE",
"350 268.5 CURVE",
"965.5 952.5 LINE",
"1011.5 872.5 OFFCURVE",
"1036.5 763 OFFCURVE",
"1036.5 625.5 CURVE SMOOTH",
"1036.5 299 OFFCURVE",
"899 125 OFFCURVE",
"649 125 CURVE SMOOTH"
);
},
{
closed = 1;
nodes = (
"280.5 410.5 OFFCURVE",
"263 508 OFFCURVE",
"263 625.5 CURVE SMOOTH",
"263 952.5 OFFCURVE",
"398.5 1120.5 OFFCURVE",
"649 1120.5 CURVE SMOOTH",
"766 1120.5 OFFCURVE",
"858 1082.5 OFFCURVE",
"922.5 1009.5 CURVE",
"314.5 333 LINE"
);
}
);
width = 1299.5;
},
{
anchors = (
{
name = top;
position = "{650, 1244}";
}
);
layerId = "78047C5B-B34F-4F0E-9C92-9BD1482D9144";
name = Bold;
paths = (
{
closed = 1;
nodes = (
"1017 -14.5 OFFCURVE",
"1219.5 212 OFFCURVE",
"1219.5 622.5 CURVE SMOOTH",
"1219.5 807 OFFCURVE",
"1176.5 954.5 OFFCURVE",
"1099 1061 CURVE",
"1195 1169.5 LINE SMOOTH",
"1207.5 1181.5 OFFCURVE",
"1212.5 1195 OFFCURVE",
"1212.5 1205 CURVE SMOOTH",
"1212.5 1237 OFFCURVE",
"1157 1287 OFFCURVE",
"1127.5 1287 CURVE SMOOTH",
"1113 1287 OFFCURVE",
"1101 1280 OFFCURVE",
"1087.5 1265.5 CURVE SMOOTH",
"995.5 1161 LINE",
"906 1224.5 OFFCURVE",
"789.5 1258.5 OFFCURVE",
"650 1258.5 CURVE SMOOTH",
"284.5 1258.5 OFFCURVE",
"80 1033 OFFCURVE",
"80 622.5 CURVE SMOOTH",
"80 462 OFFCURVE",
"110.5 331 OFFCURVE",
"169 229.5 CURVE",
"51 96.5 LINE SMOOTH",
"39 84 OFFCURVE",
"34 70.5 OFFCURVE",
"34 60.5 CURVE SMOOTH",
"34 26.5 OFFCURVE",
"91 -21.5 OFFCURVE",
"119 -21.5 CURVE SMOOTH",
"131 -21.5 OFFCURVE",
"145.5 -14.5 OFFCURVE",
"158.5 0 CURVE SMOOTH",
"261 118 LINE",
"355.5 30.5 OFFCURVE",
"487.5 -14.5 OFFCURVE",
"650 -14.5 CURVE SMOOTH"
);
},
{
closed = 1;
nodes = (
"558 219 OFFCURVE",
"487.5 253 OFFCURVE",
"439.5 316.5 CURVE",
"905 843 LINE",
"925.5 784.5 OFFCURVE",
"939 709.5 OFFCURVE",
"939 622.5 CURVE SMOOTH",
"939 360.5 OFFCURVE",
"840.5 219 OFFCURVE",
"650 219 CURVE SMOOTH"
);
},
{
closed = 1;
nodes = (
"366.5 510 OFFCURVE",
"360.5 562 OFFCURVE",
"360.5 622.5 CURVE SMOOTH",
"360.5 883.5 OFFCURVE",
"461 1024 OFFCURVE",
"650 1024 CURVE SMOOTH",
"720 1024 OFFCURVE",
"778 1004.5 OFFCURVE",
"823.5 966.5 CURVE",
"375 462 LINE"
);
}
);
width = 1299.5;
}
);
unicode = 00D8;
},
{
glyphname = OE;
lastChange = "2015-02-26 04:32:42 +0000";
layers = (
{
anchors = (
{
name = top;
position = "{908.5, 1244}";
}
);
background = {
anchors = (
{
name = top;
position = "{908.5, 1244}";
}
);
paths = (
{
closed = 1;
nodes = (
"837.5 -10 OFFCURVE",
"976 50 OFFCURVE",
"1067 171 CURVE",
"1040.5 206 LINE",
"1040.5 53 LINE SMOOTH",
"1040.5 16.5 OFFCURVE",
"1055.5 0 OFFCURVE",
"1093.5 0 CURVE SMOOTH",
"1720.5 0 LINE SMOOTH",
"1746 0 OFFCURVE",
"1756 16.5 OFFCURVE",
"1756 53 CURVE SMOOTH",
"1756 82 LINE SMOOTH",
"1756 119 OFFCURVE",
"1746 135 OFFCURVE",
"1720.5 135 CURVE SMOOTH",
"1196 135 LINE",
"1196 569.5 LINE",
"1666 569.5 LINE SMOOTH",
"1690.5 569.5 OFFCURVE",
"1701 584.5 OFFCURVE",
"1701 622.5 CURVE SMOOTH",
"1701 650 LINE SMOOTH",
"1701 688 OFFCURVE",
"1690.5 703.5 OFFCURVE",
"1666 703.5 CURVE SMOOTH",
"1196 703.5 LINE",
"1196 1109 LINE",
"1719.5 1109 LINE SMOOTH",
"1744 1109 OFFCURVE",
"1754 1125.5 OFFCURVE",
"1754 1162 CURVE SMOOTH",
"1754 1191 LINE SMOOTH",
"1754 1229 OFFCURVE",
"1744 1244 OFFCURVE",
"1719.5 1244 CURVE SMOOTH",
"1093.5 1244 LINE SMOOTH",
"1055.5 1244 OFFCURVE",
"1040.5 1229 OFFCURVE",
"1040.5 1191 CURVE SMOOTH",
"1040.5 1041.5 LINE",
"1067 1077 LINE",
"976 1195 OFFCURVE",
"837.5 1255.5 OFFCURVE",
"649 1255.5 CURVE SMOOTH",
"293 1255.5 OFFCURVE",
"101.5 1041.5 OFFCURVE",
"101.5 625.5 CURVE SMOOTH",
"101.5 210 OFFCURVE",
"293 -10 OFFCURVE",
"649 -10 CURVE SMOOTH"
);
},
{
closed = 1;
nodes = (
"398.5 125 OFFCURVE",
"263 299 OFFCURVE",
"263 625.5 CURVE SMOOTH",
"263 952.5 OFFCURVE",
"398.5 1120.5 OFFCURVE",
"649 1120.5 CURVE SMOOTH",
"899 1120.5 OFFCURVE",
"1036.5 952.5 OFFCURVE",
"1036.5 625.5 CURVE SMOOTH",
"1036.5 299 OFFCURVE",
"899 125 OFFCURVE",
"649 125 CURVE SMOOTH"
);
}
);
};
layerId = "FB715283-CFB2-4766-AFCA-39E45F97C573";
name = Regular;
paths = (
{
closed = 1;
nodes = (
"837.5 -10 OFFCURVE",
"976 50 OFFCURVE",
"1067 171 CURVE",
"1040.5 206 LINE",
"1040.5 53 LINE SMOOTH",
"1040.5 16.5 OFFCURVE",
"1055.5 0 OFFCURVE",
"1093.5 0 CURVE SMOOTH",
"1720.5 0 LINE SMOOTH",
"1746 0 OFFCURVE",
"1756 16.5 OFFCURVE",
"1756 53 CURVE SMOOTH",
"1756 82 LINE SMOOTH",
"1756 119 OFFCURVE",
"1746 135 OFFCURVE",
"1720.5 135 CURVE SMOOTH",
"1196 135 LINE",
"1196 569.5 LINE",
"1666 569.5 LINE SMOOTH",
"1690.5 569.5 OFFCURVE",
"1701 584.5 OFFCURVE",
"1701 622.5 CURVE SMOOTH",
"1701 650 LINE SMOOTH",
"1701 688 OFFCURVE",
"1690.5 703.5 OFFCURVE",
"1666 703.5 CURVE SMOOTH",
"1196 703.5 LINE",
"1196 1109 LINE",
"1719.5 1109 LINE SMOOTH",
"1744 1109 OFFCURVE",
"1754 1125.5 OFFCURVE",
"1754 1162 CURVE SMOOTH",
"1754 1191 LINE SMOOTH",
"1754 1229 OFFCURVE",
"1744 1244 OFFCURVE",
"1719.5 1244 CURVE SMOOTH",
"1093.5 1244 LINE SMOOTH",
"1055.5 1244 OFFCURVE",
"1040.5 1229 OFFCURVE",
"1040.5 1191 CURVE SMOOTH",
"1040.5 1041.5 LINE",
"1067 1077 LINE",
"976 1195 OFFCURVE",
"837.5 1255.5 OFFCURVE",
"649 1255.5 CURVE SMOOTH",
"293 1255.5 OFFCURVE",
"101.5 1041.5 OFFCURVE",
"101.5 625.5 CURVE SMOOTH",
"101.5 210 OFFCURVE",
"293 -10 OFFCURVE",
"649 -10 CURVE SMOOTH"
);
},
{
closed = 1;
nodes = (
"398.5 125 OFFCURVE",
"263 299 OFFCURVE",
"263 625.5 CURVE SMOOTH",
"263 952.5 OFFCURVE",
"398.5 1120.5 OFFCURVE",
"649 1120.5 CURVE SMOOTH",
"899 1120.5 OFFCURVE",
"1036.5 952.5 OFFCURVE",
"1036.5 625.5 CURVE SMOOTH",
"1036.5 299 OFFCURVE",
"899 125 OFFCURVE",
"649 125 CURVE SMOOTH"
);
}
);
width = 1814.5;
},
{
anchors = (
{
name = top;
position = "{908.5, 1244}";
}
);
layerId = "78047C5B-B34F-4F0E-9C92-9BD1482D9144";
name = Bold;
paths = (
{
closed = 1;
nodes = (
"780.5 -14.5 OFFCURVE",
"905 26.5 OFFCURVE",
"1002.5 110.5 CURVE",
"942 206 LINE",
"942 72.5 LINE",
"942 21.5 OFFCURVE",
"963.5 0 OFFCURVE",
"1014 0 CURVE SMOOTH",
"1666 0 LINE SMOOTH",
"1703 0 OFFCURVE",
"1719.5 26.5 OFFCURVE",
"1719.5 89 CURVE SMOOTH",
"1719.5 144.5 LINE SMOOTH",
"1719.5 206 OFFCURVE",
"1703 232.5 OFFCURVE",
"1666 232.5 CURVE SMOOTH",
"1215.5 232.5 LINE",
"1215.5 521 LINE",
"1616 521 LINE SMOOTH",
"1652.5 521 OFFCURVE",
"1669 548 OFFCURVE",
"1669 609.5 CURVE SMOOTH",
"1669 664.5 LINE SMOOTH",
"1669 727 OFFCURVE",
"1652.5 753.5 OFFCURVE",
"1616 753.5 CURVE SMOOTH",
"1215.5 753.5 LINE",
"1215.5 1011.5 LINE",
"1664 1011.5 LINE SMOOTH",
"1701 1011.5 OFFCURVE",
"1717 1038.5 OFFCURVE",
"1717 1101 CURVE SMOOTH",
"1717 1155 LINE SMOOTH",
"1717 1217.5 OFFCURVE",
"1701 1244 OFFCURVE",
"1664 1244 CURVE SMOOTH",
"1014 1244 LINE SMOOTH",
"963.5 1244 OFFCURVE",
"942 1222.5 OFFCURVE",
"942 1176.5 CURVE SMOOTH",
"942 1043.5 LINE",
"1002.5 1132.5 LINE",
"903 1217.5 OFFCURVE",
"784.5 1258.5 OFFCURVE",
"633 1258.5 CURVE SMOOTH",
"277.5 1258.5 OFFCURVE",
"80 1033 OFFCURVE",
"80 622.5 CURVE SMOOTH",
"80 212 OFFCURVE",
"277.5 -14.5 OFFCURVE",
"633 -14.5 CURVE SMOOTH"
);
},
{
closed = 1;
nodes = (
"461 219 OFFCURVE",
"360.5 360.5 OFFCURVE",
"360.5 622.5 CURVE SMOOTH",
"360.5 883.5 OFFCURVE",
"461 1024 OFFCURVE",
"650 1024 CURVE SMOOTH",
"840.5 1024 OFFCURVE",
"939 883.5 OFFCURVE",
"939 622.5 CURVE SMOOTH",
"939 360.5 OFFCURVE",
"840.5 219 OFFCURVE",
"650 219 CURVE SMOOTH"
);
}
);
width = 1814.5;
}
);
unicode = 0152;
},
{
glyphname = P;
lastChange = "2015-02-26 04:32:42 +0000";
layers = (
{
background = {
paths = (
{
closed = 1;
nodes = (
"236.5 -3 LINE SMOOTH",
"285.5 -3 OFFCURVE",
"307 10 OFFCURVE",
"307 36 CURVE SMOOTH",
"307 529.5 LINE",
"582.5 529.5 LINE SMOOTH",
"676 529.5 OFFCURVE",
"961.5 570.5 OFFCURVE",
"961.5 896 CURVE SMOOTH",
"961.5 1196 OFFCURVE",
"718 1244 OFFCURVE",
"565 1244 CURVE SMOOTH",
"205 1244 LINE SMOOTH",
"167 1244 OFFCURVE",
"151.5 1229 OFFCURVE",
"151.5 1191 CURVE SMOOTH",
"151.5 36 LINE SMOOTH",
"151.5 10 OFFCURVE",
"172 -3 OFFCURVE",
"222 -3 CURVE SMOOTH"
);
},
{
closed = 1;
nodes = (
"307 1109 LINE",
"560 1109 LINE SMOOTH",
"664.5 1109 OFFCURVE",
"799.5 1072 OFFCURVE",
"799.5 896 CURVE SMOOTH",
"799.5 702.5 OFFCURVE",
"656.5 664.5 OFFCURVE",
"584.5 664.5 CURVE SMOOTH",
"307 664.5 LINE"
);
}
);
};
layerId = "FB715283-CFB2-4766-AFCA-39E45F97C573";
name = Regular;
paths = (
{
closed = 1;
nodes = (
"236.5 -3 LINE SMOOTH",
"285.5 -3 OFFCURVE",
"307 10 OFFCURVE",
"307 36 CURVE SMOOTH",
"307 529.5 LINE",
"582.5 529.5 LINE SMOOTH",
"676 529.5 OFFCURVE",
"961.5 570.5 OFFCURVE",
"961.5 896 CURVE SMOOTH",
"961.5 1196 OFFCURVE",
"718 1244 OFFCURVE",
"565 1244 CURVE SMOOTH",
"205 1244 LINE SMOOTH",
"167 1244 OFFCURVE",
"151.5 1229 OFFCURVE",
"151.5 1191 CURVE SMOOTH",
"151.5 36 LINE SMOOTH",
"151.5 10 OFFCURVE",
"172 -3 OFFCURVE",
"222 -3 CURVE SMOOTH"
);
},
{
closed = 1;
nodes = (
"307 1109 LINE",
"560 1109 LINE SMOOTH",
"664.5 1109 OFFCURVE",
"799.5 1072 OFFCURVE",
"799.5 896 CURVE SMOOTH",
"799.5 702.5 OFFCURVE",
"656.5 664.5 OFFCURVE",
"584.5 664.5 CURVE SMOOTH",
"307 664.5 LINE"
);
}
);
width = 1014;
},
{
layerId = "78047C5B-B34F-4F0E-9C92-9BD1482D9144";
name = Bold;
paths = (
{
closed = 1;
nodes = (
"290 -3 LINE SMOOTH",
"364.5 -3 OFFCURVE",
"396.5 16.5 OFFCURVE",
"396.5 53 CURVE SMOOTH",
"396.5 466 LINE",
"584.5 466 LINE SMOOTH",
"681 466 OFFCURVE",
"990 512 OFFCURVE",
"990 855 CURVE SMOOTH",
"990 1198 OFFCURVE",
"725 1244 OFFCURVE",
"567.5 1244 CURVE SMOOTH",
"193.5 1244 LINE SMOOTH",
"144.5 1244 OFFCURVE",
"123 1222.5 OFFCURVE",
"123 1173.5 CURVE SMOOTH",
"123 53 LINE SMOOTH",
"123 16.5 OFFCURVE",
"154.5 -3 OFFCURVE",
"229.5 -3 CURVE SMOOTH"
);
},
{
closed = 1;
nodes = (
"396.5 1011.5 LINE",
"555 1011.5 LINE SMOOTH",
"622.5 1011.5 OFFCURVE",
"709.5 983 OFFCURVE",
"709.5 855 CURVE SMOOTH",
"709.5 727 OFFCURVE",
"622.5 700.5 OFFCURVE",
"555 700.5 CURVE SMOOTH",
"396.5 700.5 LINE"
);
}
);
width = 1014;
}
);
unicode = 0050;
},
{
glyphname = Thorn;
lastChange = "2015-02-26 04:32:42 +0000";
layers = (
{
background = {
paths = (
{
closed = 1;
nodes = (
"236.5 -3 LINE SMOOTH",
"285.5 -3 OFFCURVE",
"307 10 OFFCURVE",
"307 36 CURVE SMOOTH",
"307 313.5 LINE",
"582.5 313.5 LINE SMOOTH",
"676 313.5 OFFCURVE",
"961.5 353.5 OFFCURVE",
"961.5 679 CURVE SMOOTH",
"961.5 980 OFFCURVE",
"718 1027 OFFCURVE",
"565 1027 CURVE SMOOTH",
"307 1027 LINE",
"307 1208.5 LINE SMOOTH",
"307 1234 OFFCURVE",
"285.5 1248.5 OFFCURVE",
"236.5 1248.5 CURVE SMOOTH",
"222 1248.5 LINE SMOOTH",
"172 1248.5 OFFCURVE",
"151.5 1234 OFFCURVE",
"151.5 1208.5 CURVE SMOOTH",
"151.5 36 LINE SMOOTH",
"151.5 10 OFFCURVE",
"172 -3 OFFCURVE",
"222 -3 CURVE SMOOTH"
);
},
{
closed = 1;
nodes = (
"307 892 LINE",
"560 892 LINE SMOOTH",
"664.5 892 OFFCURVE",
"799.5 855 OFFCURVE",
"799.5 679 CURVE SMOOTH",
"799.5 485.5 OFFCURVE",
"656.5 447.5 OFFCURVE",
"584.5 447.5 CURVE SMOOTH",
"307 447.5 LINE"
);
}
);
};
layerId = "FB715283-CFB2-4766-AFCA-39E45F97C573";
name = Regular;
paths = (
{
closed = 1;
nodes = (
"236.5 -3 LINE SMOOTH",
"285.5 -3 OFFCURVE",
"307 10 OFFCURVE",
"307 36 CURVE SMOOTH",
"307 313.5 LINE",
"582.5 313.5 LINE SMOOTH",
"676 313.5 OFFCURVE",
"961.5 353.5 OFFCURVE",
"961.5 679 CURVE SMOOTH",
"961.5 980 OFFCURVE",
"718 1027 OFFCURVE",
"565 1027 CURVE SMOOTH",
"307 1027 LINE",
"307 1208.5 LINE SMOOTH",
"307 1234 OFFCURVE",
"285.5 1248.5 OFFCURVE",
"236.5 1248.5 CURVE SMOOTH",
"222 1248.5 LINE SMOOTH",
"172 1248.5 OFFCURVE",
"151.5 1234 OFFCURVE",
"151.5 1208.5 CURVE SMOOTH",
"151.5 36 LINE SMOOTH",
"151.5 10 OFFCURVE",
"172 -3 OFFCURVE",
"222 -3 CURVE SMOOTH"
);
},
{
closed = 1;
nodes = (
"307 892 LINE",
"560 892 LINE SMOOTH",
"664.5 892 OFFCURVE",
"799.5 855 OFFCURVE",
"799.5 679 CURVE SMOOTH",
"799.5 485.5 OFFCURVE",
"656.5 447.5 OFFCURVE",
"584.5 447.5 CURVE SMOOTH",
"307 447.5 LINE"
);
}
);
width = 1007.5;
},
{
layerId = "78047C5B-B34F-4F0E-9C92-9BD1482D9144";
name = Bold;
paths = (
{
closed = 1;
nodes = (
"287.5 -3 LINE SMOOTH",
"362.5 -3 OFFCURVE",
"394 16.5 OFFCURVE",
"394 53 CURVE SMOOTH",
"394 275.5 LINE",
"596 275.5 LINE SMOOTH",
"691 275.5 OFFCURVE",
"1000.5 321.5 OFFCURVE",
"1000.5 664.5 CURVE SMOOTH",
"1000.5 1007.5 OFFCURVE",
"736.5 1053.5 OFFCURVE",
"577.5 1053.5 CURVE SMOOTH",
"394 1053.5 LINE",
"394 1191 LINE SMOOTH",
"394 1229 OFFCURVE",
"362.5 1248.5 OFFCURVE",
"287.5 1248.5 CURVE SMOOTH",
"227.5 1248.5 LINE SMOOTH",
"152.5 1248.5 OFFCURVE",
"121 1229 OFFCURVE",
"121 1191 CURVE SMOOTH",
"121 53 LINE SMOOTH",
"121 16.5 OFFCURVE",
"152.5 -3 OFFCURVE",
"227.5 -3 CURVE SMOOTH"
);
},
{
closed = 1;
nodes = (
"394 821 LINE",
"565 821 LINE SMOOTH",
"633 821 OFFCURVE",
"720 792.5 OFFCURVE",
"720 664.5 CURVE SMOOTH",
"720 536.5 OFFCURVE",
"633 510 OFFCURVE",
"565 510 CURVE SMOOTH",
"394 510 LINE"
);
}
);
width = 1007.5;
}
);
unicode = 00DE;
},
{
glyphname = Q;
lastChange = "2015-02-26 04:32:42 +0000";
layers = (
{
background = {
paths = (
{
closed = 1;
nodes = (
"1181.5 -263 OFFCURVE",
"1215.5 -156.5 OFFCURVE",
"1215.5 -135 CURVE SMOOTH",
"1215.5 -123 OFFCURVE",
"1207.5 -113.5 OFFCURVE",
"1191 -108.5 CURVE SMOOTH",
"840.5 2 LINE",
"840.5 9 LINE",
"1072 70.5 OFFCURVE",
"1198 279.5 OFFCURVE",
"1198 616.5 CURVE SMOOTH",
"1198 1033 OFFCURVE",
"1006.5 1255.5 OFFCURVE",
"649 1255.5 CURVE SMOOTH",
"293 1255.5 OFFCURVE",
"101.5 1034 OFFCURVE",
"101.5 616.5 CURVE SMOOTH",
"101.5 299 OFFCURVE",
"213 99.5 OFFCURVE",
"437 10 CURVE SMOOTH",
"488.5 -10 OFFCURVE",
"1120.5 -263 OFFCURVE",
"1142 -263 CURVE SMOOTH"
);
},
{
closed = 1;
nodes = (
"403.5 119 OFFCURVE",
"263 293 OFFCURVE",
"263 616.5 CURVE SMOOTH",
"263 942 OFFCURVE",
"403.5 1120.5 OFFCURVE",
"649 1120.5 CURVE SMOOTH",
"896 1120.5 OFFCURVE",
"1036.5 940 OFFCURVE",
"1036.5 616.5 CURVE SMOOTH",
"1036.5 295 OFFCURVE",
"896 119 OFFCURVE",
"649 119 CURVE SMOOTH"
);
}
);
};
layerId = "FB715283-CFB2-4766-AFCA-39E45F97C573";
name = Regular;
paths = (
{
closed = 1;
nodes = (
"1181.5 -263 OFFCURVE",
"1215.5 -156.5 OFFCURVE",
"1215.5 -135 CURVE SMOOTH",
"1215.5 -123 OFFCURVE",
"1207.5 -113.5 OFFCURVE",
"1191 -108.5 CURVE SMOOTH",
"840.5 2 LINE",
"840.5 9 LINE",
"1072 70.5 OFFCURVE",
"1198 279.5 OFFCURVE",
"1198 616.5 CURVE SMOOTH",
"1198 1033 OFFCURVE",
"1006.5 1255.5 OFFCURVE",
"649 1255.5 CURVE SMOOTH",
"293 1255.5 OFFCURVE",
"101.5 1034 OFFCURVE",
"101.5 616.5 CURVE SMOOTH",
"101.5 299 OFFCURVE",
"213 99.5 OFFCURVE",
"437 10 CURVE SMOOTH",
"488.5 -10 OFFCURVE",
"1120.5 -263 OFFCURVE",
"1142 -263 CURVE SMOOTH"
);
},
{
closed = 1;
nodes = (
"403.5 119 OFFCURVE",
"263 293 OFFCURVE",
"263 616.5 CURVE SMOOTH",
"263 942 OFFCURVE",
"403.5 1120.5 OFFCURVE",
"649 1120.5 CURVE SMOOTH",
"896 1120.5 OFFCURVE",
"1036.5 940 OFFCURVE",
"1036.5 616.5 CURVE SMOOTH",
"1036.5 295 OFFCURVE",
"896 119 OFFCURVE",
"649 119 CURVE SMOOTH"
);
}
);
width = 1299.5;
},
{
layerId = "78047C5B-B34F-4F0E-9C92-9BD1482D9144";
name = Bold;
paths = (
{
closed = 1;
nodes = (
"1196 -259 OFFCURVE",
"1237 -106.5 OFFCURVE",
"1237 -78 CURVE SMOOTH",
"1237 -65.5 OFFCURVE",
"1229 -55.5 OFFCURVE",
"1212.5 -50 CURVE SMOOTH",
"940 48 LINE",
"940 55.5 LINE",
"1120.5 147.5 OFFCURVE",
"1219.5 341 OFFCURVE",
"1219.5 622.5 CURVE SMOOTH",
"1219.5 1033 OFFCURVE",
"1017 1258.5 OFFCURVE",
"650 1258.5 CURVE SMOOTH",
"284.5 1258.5 OFFCURVE",
"80 1033 OFFCURVE",
"80 622.5 CURVE SMOOTH",
"80 314.5 OFFCURVE",
"193.5 110.5 OFFCURVE",
"403.5 28.5 CURVE SMOOTH",
"1127.5 -258 OFFCURVE",
"1121.5 -259 OFFCURVE",
"1139.5 -259 CURVE SMOOTH"
);
},
{
closed = 1;
nodes = (
"461 212 OFFCURVE",
"360.5 355.5 OFFCURVE",
"360.5 622.5 CURVE SMOOTH",
"360.5 883.5 OFFCURVE",
"461 1024 OFFCURVE",
"650 1024 CURVE SMOOTH",
"840.5 1024 OFFCURVE",
"939 883.5 OFFCURVE",
"939 622.5 CURVE SMOOTH",
"939 355.5 OFFCURVE",
"840.5 212 OFFCURVE",
"650 212 CURVE SMOOTH"
);
}
);
width = 1299.5;
}
);
unicode = 0051;
},
{
glyphname = R;
lastChange = "2015-02-26 04:32:42 +0000";
layers = (
{
anchors = (
{
name = bottom;
position = "{541.5, 0}";
},
{
name = top;
position = "{541.5, 1244}";
}
);
background = {
anchors = (
{
name = bottom;
position = "{541.5, 0}";
},
{
name = top;
position = "{541.5, 1244}";
}
);
paths = (
{
closed = 1;
nodes = (
"258 -3 LINE SMOOTH",
"307 -3 OFFCURVE",
"328.5 10 OFFCURVE",
"328.5 36 CURVE SMOOTH",
"328.5 548 LINE",
"488.5 548 LINE SMOOTH",
"627.5 548 OFFCURVE",
"700.5 512 OFFCURVE",
"753.5 374 CURVE SMOOTH",
"889 24.5 LINE SMOOTH",
"896 7 OFFCURVE",
"924.5 -3 OFFCURVE",
"959.5 -3 CURVE SMOOTH",
"978 -3 LINE SMOOTH",
"1029 -3 OFFCURVE",
"1052.5 7 OFFCURVE",
"1052.5 24.5 CURVE SMOOTH",
"1052.5 30.5 OFFCURVE",
"1050.5 39 OFFCURVE",
"1047.5 50 CURVE SMOOTH",
"908.5 400.5 LINE SMOOTH",
"862 517 OFFCURVE",
"823.5 597 OFFCURVE",
"748.5 622.5 CURVE",
"748.5 630 LINE",
"872.5 679 OFFCURVE",
"952.5 777 OFFCURVE",
"952.5 930 CURVE SMOOTH",
"952.5 1154 OFFCURVE",
"802 1244 OFFCURVE",
"524.5 1244 CURVE SMOOTH",
"225.5 1244 LINE SMOOTH",
"188.5 1244 OFFCURVE",
"172 1229 OFFCURVE",
"172 1191 CURVE SMOOTH",
"172 36 LINE SMOOTH",
"172 10 OFFCURVE",
"193.5 -3 OFFCURVE",
"243.5 -3 CURVE SMOOTH"
);
},
{
closed = 1;
nodes = (
"328.5 1109 LINE",
"551 1109 LINE SMOOTH",
"695.5 1109 OFFCURVE",
"791.5 1045.5 OFFCURVE",
"791.5 901 CURVE SMOOTH",
"791.5 784.5 OFFCURVE",
"691 683 OFFCURVE",
"563 683 CURVE SMOOTH",
"328.5 683 LINE"
);
}
);
};
layerId = "FB715283-CFB2-4766-AFCA-39E45F97C573";
name = Regular;
paths = (
{
closed = 1;
nodes = (
"258 -3 LINE SMOOTH",
"307 -3 OFFCURVE",
"328.5 10 OFFCURVE",
"328.5 36 CURVE SMOOTH",
"328.5 548 LINE",
"488.5 548 LINE SMOOTH",
"627.5 548 OFFCURVE",
"700.5 512 OFFCURVE",
"753.5 374 CURVE SMOOTH",
"889 24.5 LINE SMOOTH",
"896 7 OFFCURVE",
"924.5 -3 OFFCURVE",
"959.5 -3 CURVE SMOOTH",
"978 -3 LINE SMOOTH",
"1029 -3 OFFCURVE",
"1052.5 7 OFFCURVE",
"1052.5 24.5 CURVE SMOOTH",
"1052.5 30.5 OFFCURVE",
"1050.5 39 OFFCURVE",
"1047.5 50 CURVE SMOOTH",
"908.5 400.5 LINE SMOOTH",
"862 517 OFFCURVE",
"823.5 597 OFFCURVE",
"748.5 622.5 CURVE",
"748.5 630 LINE",
"872.5 679 OFFCURVE",
"952.5 777 OFFCURVE",
"952.5 930 CURVE SMOOTH",
"952.5 1154 OFFCURVE",
"802 1244 OFFCURVE",
"524.5 1244 CURVE SMOOTH",
"225.5 1244 LINE SMOOTH",
"188.5 1244 OFFCURVE",
"172 1229 OFFCURVE",
"172 1191 CURVE SMOOTH",
"172 36 LINE SMOOTH",
"172 10 OFFCURVE",
"193.5 -3 OFFCURVE",
"243.5 -3 CURVE SMOOTH"
);
},
{
closed = 1;
nodes = (
"328.5 1109 LINE",
"551 1109 LINE SMOOTH",
"695.5 1109 OFFCURVE",
"791.5 1045.5 OFFCURVE",
"791.5 901 CURVE SMOOTH",
"791.5 784.5 OFFCURVE",
"691 683 OFFCURVE",
"563 683 CURVE SMOOTH",
"328.5 683 LINE"
);
}
);
width = 1084.5;
},
{
anchors = (
{
name = bottom;
position = "{541.5, 0}";
},
{
name = top;
position = "{541.5, 1244}";
}
);
layerId = "78047C5B-B34F-4F0E-9C92-9BD1482D9144";
name = Bold;
paths = (
{
closed = 1;
nodes = (
"290 -3 LINE SMOOTH",
"364.5 -3 OFFCURVE",
"396.5 16.5 OFFCURVE",
"396.5 53 CURVE SMOOTH",
"396.5 487.5 LINE",
"466 487.5 LINE SMOOTH",
"581.5 487.5 OFFCURVE",
"609.5 451.5 OFFCURVE",
"645 381 CURVE",
"785.5 34 LINE SMOOTH",
"796.5 5 OFFCURVE",
"837.5 -3 OFFCURVE",
"889 -3 CURVE SMOOTH",
"961.5 -3 LINE SMOOTH",
"1034 -3 OFFCURVE",
"1068 10 OFFCURVE",
"1068 31.5 CURVE SMOOTH",
"1068 41 OFFCURVE",
"1065 51 OFFCURVE",
"1060 65.5 CURVE SMOOTH",
"903 456.5 LINE SMOOTH",
"872.5 533.5 OFFCURVE",
"819 603 OFFCURVE",
"775 620.5 CURVE",
"775 627.5 LINE",
"898 674 OFFCURVE",
"983 773 OFFCURVE",
"983 910.5 CURVE SMOOTH",
"983 1123.5 OFFCURVE",
"848 1244 OFFCURVE",
"540.5 1244 CURVE SMOOTH",
"193.5 1244 LINE SMOOTH",
"144.5 1244 OFFCURVE",
"123 1222.5 OFFCURVE",
"123 1173.5 CURVE SMOOTH",
"123 53 LINE SMOOTH",
"123 16.5 OFFCURVE",
"154.5 -3 OFFCURVE",
"229.5 -3 CURVE SMOOTH"
);
},
{
closed = 1;
nodes = (
"396.5 1011.5 LINE",
"553 1011.5 LINE SMOOTH",
"645 1011.5 OFFCURVE",
"702.5 958.5 OFFCURVE",
"702.5 876.5 CURVE SMOOTH",
"702.5 791.5 OFFCURVE",
"638 724 OFFCURVE",
"565 724 CURVE SMOOTH",
"396.5 724 LINE"
);
}
);
width = 1084.5;
}
);
unicode = 0052;
},
{
glyphname = S;
lastChange = "2015-02-26 04:32:42 +0000";
layers = (
{
anchors = (
{
name = bottom;
position = "{444.5, 0}";
},
{
name = top;
position = "{444.5, 1244}";
}
);
background = {
anchors = (
{
name = bottom;
position = "{444.5, 0}";
},
{
name = top;
position = "{444.5, 1244}";
}
);
paths = (
{
closed = 1;
nodes = (
"674 -10 OFFCURVE",
"828.5 121 OFFCURVE",
"828.5 334 CURVE SMOOTH",
"828.5 575.5 OFFCURVE",
"650 647 OFFCURVE",
"492.5 707.5 CURVE SMOOTH",
"364.5 755.5 OFFCURVE",
"251 789.5 OFFCURVE",
"251 919.5 CURVE SMOOTH",
"251 1048.5 OFFCURVE",
"347 1120.5 OFFCURVE",
"480.5 1120.5 CURVE SMOOTH",
"620.5 1120.5 OFFCURVE",
"686 1052.5 OFFCURVE",
"712.5 1052.5 CURVE SMOOTH",
"730 1052.5 OFFCURVE",
"770 1120.5 OFFCURVE",
"770 1147 CURVE SMOOTH",
"770 1210.5 OFFCURVE",
"584.5 1255.5 OFFCURVE",
"483.5 1255.5 CURVE SMOOTH",
"246 1255.5 OFFCURVE",
"89 1118 OFFCURVE",
"89 925.5 CURVE SMOOTH",
"89 693 OFFCURVE",
"247 635 OFFCURVE",
"398.5 575.5 CURVE SMOOTH",
"535.5 522 OFFCURVE",
"666.5 476 OFFCURVE",
"666.5 334 CURVE SMOOTH",
"666.5 208 OFFCURVE",
"569.5 125 OFFCURVE",
"434 125 CURVE SMOOTH",
"251 125 OFFCURVE",
"151.5 215 OFFCURVE",
"128 215 CURVE SMOOTH",
"108.5 215 OFFCURVE",
"65.5 147.5 OFFCURVE",
"65.5 119 CURVE SMOOTH",
"65.5 70.5 OFFCURVE",
"225.5 -10 OFFCURVE",
"434 -10 CURVE SMOOTH"
);
}
);
};
layerId = "FB715283-CFB2-4766-AFCA-39E45F97C573";
name = Regular;
paths = (
{
closed = 1;
nodes = (
"674 -10 OFFCURVE",
"828.5 121 OFFCURVE",
"828.5 334 CURVE SMOOTH",
"828.5 575.5 OFFCURVE",
"650 647 OFFCURVE",
"492.5 707.5 CURVE SMOOTH",
"364.5 755.5 OFFCURVE",
"251 789.5 OFFCURVE",
"251 919.5 CURVE SMOOTH",
"251 1048.5 OFFCURVE",
"347 1120.5 OFFCURVE",
"480.5 1120.5 CURVE SMOOTH",
"620.5 1120.5 OFFCURVE",
"686 1052.5 OFFCURVE",
"712.5 1052.5 CURVE SMOOTH",
"730 1052.5 OFFCURVE",
"770 1120.5 OFFCURVE",
"770 1147 CURVE SMOOTH",
"770 1210.5 OFFCURVE",
"584.5 1255.5 OFFCURVE",
"483.5 1255.5 CURVE SMOOTH",
"246 1255.5 OFFCURVE",
"89 1118 OFFCURVE",
"89 925.5 CURVE SMOOTH",
"89 693 OFFCURVE",
"247 635 OFFCURVE",
"398.5 575.5 CURVE SMOOTH",
"535.5 522 OFFCURVE",
"666.5 476 OFFCURVE",
"666.5 334 CURVE SMOOTH",
"666.5 208 OFFCURVE",
"569.5 125 OFFCURVE",
"434 125 CURVE SMOOTH",
"251 125 OFFCURVE",
"151.5 215 OFFCURVE",
"128 215 CURVE SMOOTH",
"108.5 215 OFFCURVE",
"65.5 147.5 OFFCURVE",
"65.5 119 CURVE SMOOTH",
"65.5 70.5 OFFCURVE",
"225.5 -10 OFFCURVE",
"434 -10 CURVE SMOOTH"
);
}
);
width = 889;
},
{
anchors = (
{
name = bottom;
position = "{444.5, 0}";
},
{
name = top;
position = "{444.5, 1244}";
}
);
layerId = "78047C5B-B34F-4F0E-9C92-9BD1482D9144";
name = Bold;
paths = (
{
closed = 1;
nodes = (
"650 -14.5 OFFCURVE",
"858 85 OFFCURVE",
"858 375 CURVE SMOOTH",
"858 616.5 OFFCURVE",
"681 690 OFFCURVE",
"535.5 750.5 CURVE SMOOTH",
"432 791.5 OFFCURVE",
"345 826.5 OFFCURVE",
"345 924.5 CURVE SMOOTH",
"345 965.5 OFFCURVE",
"371.5 1024 OFFCURVE",
"510 1024 CURVE SMOOTH",
"630 1024 OFFCURVE",
"684 980 OFFCURVE",
"707.5 980 CURVE SMOOTH",
"750.5 980 OFFCURVE",
"805 1086.5 OFFCURVE",
"805 1134.5 CURVE SMOOTH",
"805 1193 OFFCURVE",
"674 1258.5 OFFCURVE",
"485.5 1258.5 CURVE SMOOTH",
"277.5 1258.5 OFFCURVE",
"63.5 1155 OFFCURVE",
"63.5 899 CURVE SMOOTH",
"63.5 686 OFFCURVE",
"181 601 OFFCURVE",
"304 541.5 CURVE SMOOTH",
"437 480.5 OFFCURVE",
"577.5 449.5 OFFCURVE",
"577.5 343 CURVE SMOOTH",
"577.5 241.5 OFFCURVE",
"487.5 219 OFFCURVE",
"410.5 219 CURVE SMOOTH",
"268.5 219 OFFCURVE",
"181 300 OFFCURVE",
"149.5 300 CURVE SMOOTH",
"111.5 300 OFFCURVE",
"39 197.5 OFFCURVE",
"39 142.5 CURVE SMOOTH",
"39 82 OFFCURVE",
"186.5 -14.5 OFFCURVE",
"456.5 -14.5 CURVE SMOOTH"
);
}
);
width = 889;
}
);
unicode = 0053;
},
{
glyphname = Germandbls;
lastChange = "2015-02-26 04:32:42 +0000";
layers = (
{
background = {
paths = (
{
closed = 1;
nodes = (
"942 -10 OFFCURVE",
"1173.5 87 OFFCURVE",
"1173.5 360.5 CURVE SMOOTH",
"1173.5 575.5 OFFCURVE",
"1029 681 OFFCURVE",
"828.5 712.5 CURVE",
"1094.5 1077 LINE",
"1099 1082.5 OFFCURVE",
"1101 1089.5 OFFCURVE",
"1101 1099 CURVE SMOOTH",
"1101 1135.5 OFFCURVE",
"1074 1189 OFFCURVE",
"1061 1193 CURVE SMOOTH",
"971 1219.5 OFFCURVE",
"819 1249.5 OFFCURVE",
"650 1255.5 CURVE SMOOTH",
"333 1256.5 OFFCURVE",
"164 1089.5 OFFCURVE",
"164 764 CURVE SMOOTH",
"164 36 LINE SMOOTH",
"164 10 OFFCURVE",
"185.5 -3 OFFCURVE",
"234.5 -3 CURVE SMOOTH",
"249 -3 LINE SMOOTH",
"299 -3 OFFCURVE",
"319.5 10 OFFCURVE",
"319.5 36 CURVE SMOOTH",
"319.5 763 LINE SMOOTH",
"319.5 1014 OFFCURVE",
"427 1120.5 OFFCURVE",
"654.5 1120.5 CURVE SMOOTH",
"763 1120.5 OFFCURVE",
"846 1102 OFFCURVE",
"905 1082.5 CURVE",
"635 712.5 LINE",
"631 707.5 OFFCURVE",
"630 700.5 OFFCURVE",
"630 691 CURVE SMOOTH",
"630 656.5 OFFCURVE",
"654.5 597 OFFCURVE",
"671.5 597 CURVE SMOOTH",
"734 597 LINE SMOOTH",
"905 597 OFFCURVE",
"1019 543.5 OFFCURVE",
"1019 362.5 CURVE SMOOTH",
"1019 169 OFFCURVE",
"858 118 OFFCURVE",
"744.5 118 CURVE SMOOTH",
"618.5 118 OFFCURVE",
"592 179 OFFCURVE",
"517 179 CURVE SMOOTH",
"497.5 179 OFFCURVE",
"454.5 125 OFFCURVE",
"454.5 91 CURVE SMOOTH",
"505 46 OFFCURVE",
"582.5 -10 OFFCURVE",
"759 -10 CURVE SMOOTH"
);
}
);
};
layerId = "FB715283-CFB2-4766-AFCA-39E45F97C573";
name = Regular;
paths = (
{
closed = 1;
nodes = (
"942 -10 OFFCURVE",
"1173.5 87 OFFCURVE",
"1173.5 360.5 CURVE SMOOTH",
"1173.5 575.5 OFFCURVE",
"1029 681 OFFCURVE",
"828.5 712.5 CURVE",
"1094.5 1077 LINE",
"1099 1082.5 OFFCURVE",
"1101 1089.5 OFFCURVE",
"1101 1099 CURVE SMOOTH",
"1101 1135.5 OFFCURVE",
"1074 1189 OFFCURVE",
"1061 1193 CURVE SMOOTH",
"971 1219.5 OFFCURVE",
"819 1249.5 OFFCURVE",
"650 1255.5 CURVE SMOOTH",
"333 1256.5 OFFCURVE",
"164 1089.5 OFFCURVE",
"164 764 CURVE SMOOTH",
"164 36 LINE SMOOTH",
"164 10 OFFCURVE",
"185.5 -3 OFFCURVE",
"234.5 -3 CURVE SMOOTH",
"249 -3 LINE SMOOTH",
"299 -3 OFFCURVE",
"319.5 10 OFFCURVE",
"319.5 36 CURVE SMOOTH",
"319.5 763 LINE SMOOTH",
"319.5 1014 OFFCURVE",
"427 1120.5 OFFCURVE",
"654.5 1120.5 CURVE SMOOTH",
"763 1120.5 OFFCURVE",
"846 1102 OFFCURVE",
"905 1082.5 CURVE",
"635 712.5 LINE",
"631 707.5 OFFCURVE",
"630 700.5 OFFCURVE",
"630 691 CURVE SMOOTH",
"630 656.5 OFFCURVE",
"654.5 597 OFFCURVE",
"671.5 597 CURVE SMOOTH",
"734 597 LINE SMOOTH",
"905 597 OFFCURVE",
"1019 543.5 OFFCURVE",
"1019 362.5 CURVE SMOOTH",
"1019 169 OFFCURVE",
"858 118 OFFCURVE",
"744.5 118 CURVE SMOOTH",
"618.5 118 OFFCURVE",
"592 179 OFFCURVE",
"517 179 CURVE SMOOTH",
"497.5 179 OFFCURVE",
"454.5 125 OFFCURVE",
"454.5 91 CURVE SMOOTH",
"505 46 OFFCURVE",
"582.5 -10 OFFCURVE",
"759 -10 CURVE SMOOTH"
);
}
);
width = 1244;
},
{
layerId = "78047C5B-B34F-4F0E-9C92-9BD1482D9144";
name = Bold;
paths = (
{
closed = 1;
nodes = (
"1041.5 -14.5 OFFCURVE",
"1200 126 OFFCURVE",
"1200 362.5 CURVE SMOOTH",
"1200 594 OFFCURVE",
"1063 676 OFFCURVE",
"927.5 729 CURVE",
"1127.5 1048.5 LINE",
"1128.5 1052.5 OFFCURVE",
"1128.5 1055.5 OFFCURVE",
"1128.5 1063 CURVE SMOOTH",
"1128.5 1109 OFFCURVE",
"1091.5 1222.5 OFFCURVE",
"1063 1227 CURVE SMOOTH",
"946 1244 OFFCURVE",
"775 1258.5 OFFCURVE",
"622.5 1258.5 CURVE SMOOTH",
"290 1258.5 OFFCURVE",
"118 1091.5 OFFCURVE",
"118 768 CURVE SMOOTH",
"118 53 LINE SMOOTH",
"118 16.5 OFFCURVE",
"149.5 -3 OFFCURVE",
"224.5 -3 CURVE SMOOTH",
"285.5 -3 LINE SMOOTH",
"360.5 -3 OFFCURVE",
"393 16.5 OFFCURVE",
"393 53 CURVE SMOOTH",
"393 766 LINE SMOOTH",
"393 932 OFFCURVE",
"464 1024 OFFCURVE",
"616.5 1024 CURVE SMOOTH",
"691 1024 OFFCURVE",
"753.5 1020 OFFCURVE",
"805 1015 CURVE",
"630 724 LINE SMOOTH",
"627.5 720 OFFCURVE",
"625.5 712.5 OFFCURVE",
"625.5 705.5 CURVE SMOOTH",
"625.5 657.5 OFFCURVE",
"664.5 548 OFFCURVE",
"695.5 548 CURVE SMOOTH",
"743.5 548 LINE SMOOTH",
"865.5 548 OFFCURVE",
"933 483.5 OFFCURVE",
"933 366.5 CURVE SMOOTH",
"933 256 OFFCURVE",
"869.5 193.5 OFFCURVE",
"775 193.5 CURVE SMOOTH",
"663.5 193.5 OFFCURVE",
"597 266 OFFCURVE",
"570.5 266 CURVE SMOOTH",
"529.5 266 OFFCURVE",
"483.5 165 OFFCURVE",
"483.5 131 CURVE SMOOTH",
"483.5 21.5 OFFCURVE",
"700.5 -14.5 OFFCURVE",
"816 -14.5 CURVE SMOOTH"
);
}
);
width = 1244;
}
);
unicode = 1E9E;
},
{
glyphname = Schwa;
lastChange = "2015-02-26 04:32:42 +0000";
layers = (
{
background = {
paths = (
{
closed = 1;
nodes = (
"869.5 -16.5 OFFCURVE",
"1038.5 188.5 OFFCURVE",
"1038.5 590 CURVE SMOOTH",
"1038.5 1045.5 OFFCURVE",
"876.5 1255.5 OFFCURVE",
"531.5 1255.5 CURVE SMOOTH",
"287.5 1255.5 OFFCURVE",
"104.5 1162 OFFCURVE",
"104.5 1106 CURVE SMOOTH",
"104.5 1086.5 OFFCURVE",
"142.5 1017 OFFCURVE",
"167 1017 CURVE SMOOTH",
"195.5 1017 OFFCURVE",
"314.5 1127.5 OFFCURVE",
"533.5 1127.5 CURVE SMOOTH",
"751.5 1127.5 OFFCURVE",
"857 980 OFFCURVE",
"878.5 645 CURVE",
"138 645 LINE SMOOTH",
"118 645 OFFCURVE",
"80 594 OFFCURVE",
"80 572.5 CURVE SMOOTH",
"80 183.5 OFFCURVE",
"229.5 -16.5 OFFCURVE",
"535.5 -16.5 CURVE SMOOTH"
);
},
{
closed = 1;
nodes = (
"336 111.5 OFFCURVE",
"238.5 243.5 OFFCURVE",
"238.5 517 CURVE",
"878.5 517 LINE",
"865.5 243.5 OFFCURVE",
"748.5 111.5 OFFCURVE",
"540.5 111.5 CURVE SMOOTH"
);
}
);
};
layerId = "FB715283-CFB2-4766-AFCA-39E45F97C573";
name = Regular;
paths = (
{
closed = 1;
nodes = (
"869.5 -16.5 OFFCURVE",
"1038.5 188.5 OFFCURVE",
"1038.5 590 CURVE SMOOTH",
"1038.5 1045.5 OFFCURVE",
"876.5 1255.5 OFFCURVE",
"531.5 1255.5 CURVE SMOOTH",
"287.5 1255.5 OFFCURVE",
"104.5 1162 OFFCURVE",
"104.5 1106 CURVE SMOOTH",
"104.5 1086.5 OFFCURVE",
"142.5 1017 OFFCURVE",
"167 1017 CURVE SMOOTH",
"195.5 1017 OFFCURVE",
"314.5 1127.5 OFFCURVE",
"533.5 1127.5 CURVE SMOOTH",
"751.5 1127.5 OFFCURVE",
"857 980 OFFCURVE",
"878.5 645 CURVE",
"138 645 LINE SMOOTH",
"118 645 OFFCURVE",
"80 594 OFFCURVE",
"80 572.5 CURVE SMOOTH",
"80 183.5 OFFCURVE",
"229.5 -16.5 OFFCURVE",
"535.5 -16.5 CURVE SMOOTH"
);
},
{
closed = 1;
nodes = (
"336 111.5 OFFCURVE",
"238.5 243.5 OFFCURVE",
"238.5 517 CURVE",
"878.5 517 LINE",
"865.5 243.5 OFFCURVE",
"748.5 111.5 OFFCURVE",
"540.5 111.5 CURVE SMOOTH"
);
}
);
width = 1195;
},
{
layerId = "78047C5B-B34F-4F0E-9C92-9BD1482D9144";
name = Bold;
paths = (
{
closed = 1;
nodes = (
"848 -2 OFFCURVE",
"1061 165 OFFCURVE",
"1061 590 CURVE SMOOTH",
"1061 993.5 OFFCURVE",
"898 1258.5 OFFCURVE",
"526.5 1258.5 CURVE SMOOTH",
"394 1258.5 OFFCURVE",
"99.5 1208.5 OFFCURVE",
"99.5 1094.5 CURVE SMOOTH",
"99.5 1060 OFFCURVE",
"152.5 959.5 OFFCURVE",
"191.5 959.5 CURVE SMOOTH",
"227.5 959.5 OFFCURVE",
"348 1050.5 OFFCURVE",
"514 1050.5 CURVE SMOOTH",
"671.5 1050.5 OFFCURVE",
"770 966.5 OFFCURVE",
"789.5 668.5 CURVE",
"158.5 668.5 LINE SMOOTH",
"135 668.5 OFFCURVE",
"67.5 594 OFFCURVE",
"67.5 563 CURVE SMOOTH",
"67.5 263 OFFCURVE",
"198.5 -2 OFFCURVE",
"540.5 -2 CURVE SMOOTH"
);
},
{
closed = 1;
nodes = (
"389 206 OFFCURVE",
"323.5 325.5 OFFCURVE",
"323.5 492.5 CURVE",
"789.5 492.5 LINE",
"759 270.5 OFFCURVE",
"659.5 206 OFFCURVE",
"540.5 206 CURVE SMOOTH"
);
}
);
width = 1195;
}
);
unicode = 018F;
},
{
glyphname = T;
lastChange = "2015-02-26 04:32:42 +0000";
layers = (
{
anchors = (
{
name = bottom;
position = "{488.5, 0}";
},
{
name = center;
position = "{488.5, 622.5}";
},
{
name = top;
position = "{488.5, 1244}";
}
);
background = {
anchors = (
{
name = bottom;
position = "{488.5, 0}";
},
{
name = center;
position = "{488.5, 622.5}";
},
{
name = top;
position = "{488.5, 1244}";
}
);
paths = (
{
closed = 1;
nodes = (
"497.5 -3 LINE SMOOTH",
"548 -3 OFFCURVE",
"569.5 10 OFFCURVE",
"569.5 36 CURVE SMOOTH",
"569.5 1109 LINE",
"905 1109 LINE SMOOTH",
"930 1109 OFFCURVE",
"940 1125.5 OFFCURVE",
"940 1162 CURVE SMOOTH",
"940 1191 LINE SMOOTH",
"940 1229 OFFCURVE",
"930 1244 OFFCURVE",
"905 1244 CURVE SMOOTH",
"70.5 1244 LINE SMOOTH",
"46 1244 OFFCURVE",
"36 1229 OFFCURVE",
"36 1191 CURVE SMOOTH",
"36 1162 LINE SMOOTH",
"36 1125.5 OFFCURVE",
"46 1109 OFFCURVE",
"70.5 1109 CURVE SMOOTH",
"412.5 1109 LINE",
"412.5 36 LINE SMOOTH",
"412.5 10 OFFCURVE",
"434 -3 OFFCURVE",
"483.5 -3 CURVE SMOOTH"
);
}
);
};
layerId = "FB715283-CFB2-4766-AFCA-39E45F97C573";
name = Regular;
paths = (
{
closed = 1;
nodes = (
"497.5 -3 LINE SMOOTH",
"548 -3 OFFCURVE",
"569.5 10 OFFCURVE",
"569.5 36 CURVE SMOOTH",
"569.5 1109 LINE",
"905 1109 LINE SMOOTH",
"930 1109 OFFCURVE",
"940 1125.5 OFFCURVE",
"940 1162 CURVE SMOOTH",
"940 1191 LINE SMOOTH",
"940 1229 OFFCURVE",
"930 1244 OFFCURVE",
"905 1244 CURVE SMOOTH",
"70.5 1244 LINE SMOOTH",
"46 1244 OFFCURVE",
"36 1229 OFFCURVE",
"36 1191 CURVE SMOOTH",
"36 1162 LINE SMOOTH",
"36 1125.5 OFFCURVE",
"46 1109 OFFCURVE",
"70.5 1109 CURVE SMOOTH",
"412.5 1109 LINE",
"412.5 36 LINE SMOOTH",
"412.5 10 OFFCURVE",
"434 -3 OFFCURVE",
"483.5 -3 CURVE SMOOTH"
);
}
);
width = 976;
},
{
anchors = (
{
name = bottom;
position = "{488.5, 0}";
},
{
name = center;
position = "{488.5, 622.5}";
},
{
name = top;
position = "{488.5, 1244}";
}
);
layerId = "78047C5B-B34F-4F0E-9C92-9BD1482D9144";
name = Bold;
paths = (
{
closed = 1;
nodes = (
"519 -3 LINE SMOOTH",
"594 -3 OFFCURVE",
"625.5 16.5 OFFCURVE",
"625.5 53 CURVE SMOOTH",
"625.5 1011.5 LINE",
"908.5 1011.5 LINE SMOOTH",
"946 1011.5 OFFCURVE",
"961.5 1038.5 OFFCURVE",
"961.5 1101 CURVE SMOOTH",
"961.5 1155 LINE SMOOTH",
"961.5 1217.5 OFFCURVE",
"946 1244 OFFCURVE",
"908.5 1244 CURVE SMOOTH",
"67.5 1244 LINE SMOOTH",
"30.5 1244 OFFCURVE",
"14.5 1217.5 OFFCURVE",
"14.5 1155 CURVE SMOOTH",
"14.5 1101 LINE SMOOTH",
"14.5 1038.5 OFFCURVE",
"30.5 1011.5 OFFCURVE",
"67.5 1011.5 CURVE SMOOTH",
"350 1011.5 LINE",
"350 53 LINE SMOOTH",
"350 16.5 OFFCURVE",
"382 -3 OFFCURVE",
"456.5 -3 CURVE SMOOTH"
);
}
);
width = 976;
}
);
leftKerningGroup = T;
rightKerningGroup = T;
unicode = 0054;
},
{
glyphname = U;
lastChange = "2015-02-26 04:32:42 +0000";
layers = (
{
anchors = (
{
name = bottom;
position = "{635, 0}";
},
{
name = horn;
position = "{1033, 1248.5}";
},
{
name = ogonek;
position = "{766, 0}";
},
{
name = top;
position = "{633, 1244}";
}
);
background = {
anchors = (
{
name = bottom;
position = "{635, 0}";
},
{
name = horn;
position = "{1033, 1248.5}";
},
{
name = ogonek;
position = "{766, 0}";
},
{
name = top;
position = "{633, 1244}";
}
);
paths = (
{
closed = 1;
nodes = (
"946 -10 OFFCURVE",
"1118 142.5 OFFCURVE",
"1118 398.5 CURVE SMOOTH",
"1118 1208.5 LINE SMOOTH",
"1118 1234 OFFCURVE",
"1096.5 1248.5 OFFCURVE",
"1047.5 1248.5 CURVE SMOOTH",
"1033 1248.5 LINE SMOOTH",
"983 1248.5 OFFCURVE",
"961.5 1234 OFFCURVE",
"961.5 1208.5 CURVE SMOOTH",
"961.5 393 LINE SMOOTH",
"961.5 236.5 OFFCURVE",
"823.5 125 OFFCURVE",
"633 125 CURVE SMOOTH",
"444.5 125 OFFCURVE",
"304 234.5 OFFCURVE",
"304 393 CURVE SMOOTH",
"304 1208.5 LINE SMOOTH",
"304 1234 OFFCURVE",
"282.5 1248.5 OFFCURVE",
"232.5 1248.5 CURVE SMOOTH",
"219 1248.5 LINE SMOOTH",
"169 1248.5 OFFCURVE",
"147.5 1234 OFFCURVE",
"147.5 1208.5 CURVE SMOOTH",
"147.5 398.5 LINE SMOOTH",
"147.5 142.5 OFFCURVE",
"318.5 -10 OFFCURVE",
"633 -10 CURVE SMOOTH"
);
}
);
};
layerId = "FB715283-CFB2-4766-AFCA-39E45F97C573";
name = Regular;
paths = (
{
closed = 1;
nodes = (
"946 -10 OFFCURVE",
"1118 142.5 OFFCURVE",
"1118 398.5 CURVE SMOOTH",
"1118 1208.5 LINE SMOOTH",
"1118 1234 OFFCURVE",
"1096.5 1248.5 OFFCURVE",
"1047.5 1248.5 CURVE SMOOTH",
"1033 1248.5 LINE SMOOTH",
"983 1248.5 OFFCURVE",
"961.5 1234 OFFCURVE",
"961.5 1208.5 CURVE SMOOTH",
"961.5 393 LINE SMOOTH",
"961.5 236.5 OFFCURVE",
"823.5 125 OFFCURVE",
"633 125 CURVE SMOOTH",
"444.5 125 OFFCURVE",
"304 234.5 OFFCURVE",
"304 393 CURVE SMOOTH",
"304 1208.5 LINE SMOOTH",
"304 1234 OFFCURVE",
"282.5 1248.5 OFFCURVE",
"232.5 1248.5 CURVE SMOOTH",
"219 1248.5 LINE SMOOTH",
"169 1248.5 OFFCURVE",
"147.5 1234 OFFCURVE",
"147.5 1208.5 CURVE SMOOTH",
"147.5 398.5 LINE SMOOTH",
"147.5 142.5 OFFCURVE",
"318.5 -10 OFFCURVE",
"633 -10 CURVE SMOOTH"
);
}
);
width = 1265.5;
},
{
anchors = (
{
name = bottom;
position = "{633, 0}";
},
{
name = horn;
position = "{983, 1248.5}";
},
{
name = ogonek;
position = "{794.5, 0}";
},
{
name = top;
position = "{633, 1244}";
}
);
layerId = "78047C5B-B34F-4F0E-9C92-9BD1482D9144";
name = Bold;
paths = (
{
closed = 1;
nodes = (
"958.5 -14.5 OFFCURVE",
"1148 142.5 OFFCURVE",
"1148 415.5 CURVE SMOOTH",
"1148 1191 LINE SMOOTH",
"1148 1229 OFFCURVE",
"1116 1248.5 OFFCURVE",
"1041.5 1248.5 CURVE SMOOTH",
"983 1248.5 LINE SMOOTH",
"908.5 1248.5 OFFCURVE",
"876.5 1229 OFFCURVE",
"876.5 1191 CURVE SMOOTH",
"876.5 434 LINE SMOOTH",
"876.5 309 OFFCURVE",
"777 219 OFFCURVE",
"633 219 CURVE SMOOTH",
"488.5 219 OFFCURVE",
"391 309 OFFCURVE",
"391 434 CURVE SMOOTH",
"391 1191 LINE SMOOTH",
"391 1229 OFFCURVE",
"359.5 1248.5 OFFCURVE",
"284.5 1248.5 CURVE SMOOTH",
"224.5 1248.5 LINE SMOOTH",
"149.5 1248.5 OFFCURVE",
"118 1229 OFFCURVE",
"118 1191 CURVE SMOOTH",
"118 415.5 LINE SMOOTH",
"118 142.5 OFFCURVE",
"307 -14.5 OFFCURVE",
"633 -14.5 CURVE SMOOTH"
);
}
);
width = 1265.5;
}
);
unicode = 0055;
},
{
glyphname = V;
lastChange = "2015-02-26 04:32:42 +0000";
layers = (
{
background = {
paths = (
{
closed = 1;
nodes = (
"575.5 -3 LINE SMOOTH",
"611.5 -3 OFFCURVE",
"640 3 OFFCURVE",
"647 24.5 CURVE SMOOTH",
"1053.5 1193 LINE SMOOTH",
"1058 1203 OFFCURVE",
"1060 1210.5 OFFCURVE",
"1060 1217.5 CURVE SMOOTH",
"1060 1237 OFFCURVE",
"1036.5 1248.5 OFFCURVE",
"983 1248.5 CURVE SMOOTH",
"973 1248.5 LINE SMOOTH",
"937 1248.5 OFFCURVE",
"908.5 1241 OFFCURVE",
"901 1219.5 CURVE SMOOTH",
"572.5 272.5 LINE",
"553 178 LINE",
"548 178 LINE",
"529.5 270.5 LINE",
"200.5 1219.5 LINE SMOOTH",
"193.5 1241 OFFCURVE",
"165 1248.5 OFFCURVE",
"130 1248.5 CURVE SMOOTH",
"113.5 1248.5 LINE SMOOTH",
"60.5 1248.5 OFFCURVE",
"37 1236 OFFCURVE",
"37 1217.5 CURVE SMOOTH",
"37 1210.5 OFFCURVE",
"39 1203 OFFCURVE",
"43 1195 CURVE SMOOTH",
"449.5 24.5 LINE SMOOTH",
"456.5 3 OFFCURVE",
"485.5 -3 OFFCURVE",
"521 -3 CURVE SMOOTH"
);
}
);
};
layerId = "FB715283-CFB2-4766-AFCA-39E45F97C573";
name = Regular;
paths = (
{
closed = 1;
nodes = (
"575.5 -3 LINE SMOOTH",
"611.5 -3 OFFCURVE",
"640 3 OFFCURVE",
"647 24.5 CURVE SMOOTH",
"1053.5 1193 LINE SMOOTH",
"1058 1203 OFFCURVE",
"1060 1210.5 OFFCURVE",
"1060 1217.5 CURVE SMOOTH",
"1060 1237 OFFCURVE",
"1036.5 1248.5 OFFCURVE",
"983 1248.5 CURVE SMOOTH",
"973 1248.5 LINE SMOOTH",
"937 1248.5 OFFCURVE",
"908.5 1241 OFFCURVE",
"901 1219.5 CURVE SMOOTH",
"572.5 272.5 LINE",
"553 178 LINE",
"548 178 LINE",
"529.5 270.5 LINE",
"200.5 1219.5 LINE SMOOTH",
"193.5 1241 OFFCURVE",
"165 1248.5 OFFCURVE",
"130 1248.5 CURVE SMOOTH",
"113.5 1248.5 LINE SMOOTH",
"60.5 1248.5 OFFCURVE",
"37 1236 OFFCURVE",
"37 1217.5 CURVE SMOOTH",
"37 1210.5 OFFCURVE",
"39 1203 OFFCURVE",
"43 1195 CURVE SMOOTH",
"449.5 24.5 LINE SMOOTH",
"456.5 3 OFFCURVE",
"485.5 -3 OFFCURVE",
"521 -3 CURVE SMOOTH"
);
}
);
width = 1096.5;
},
{
layerId = "78047C5B-B34F-4F0E-9C92-9BD1482D9144";
name = Bold;
paths = (
{
closed = 1;
nodes = (
"592 -3 LINE SMOOTH",
"643 -3 OFFCURVE",
"683 5 OFFCURVE",
"691 34 CURVE SMOOTH",
"1075 1176.5 LINE SMOOTH",
"1079.5 1189 OFFCURVE",
"1080.5 1200 OFFCURVE",
"1080.5 1208.5 CURVE SMOOTH",
"1080.5 1234 OFFCURVE",
"1048.5 1248.5 OFFCURVE",
"974 1248.5 CURVE SMOOTH",
"919.5 1248.5 LINE SMOOTH",
"867.5 1248.5 OFFCURVE",
"826.5 1234 OFFCURVE",
"814 1196 CURVE SMOOTH",
"567.5 427 LINE",
"548 364.5 LINE",
"540.5 364.5 LINE",
"521 427 LINE",
"280.5 1196 LINE SMOOTH",
"268.5 1236 OFFCURVE",
"227.5 1248.5 OFFCURVE",
"176 1248.5 CURVE SMOOTH",
"118 1248.5 LINE SMOOTH",
"43 1248.5 OFFCURVE",
"9 1234 OFFCURVE",
"9 1208.5 CURVE SMOOTH",
"9 1200 OFFCURVE",
"12.5 1189 OFFCURVE",
"16.5 1176.5 CURVE SMOOTH",
"400.5 34 LINE SMOOTH",
"408.5 5 OFFCURVE",
"447.5 -3 OFFCURVE",
"499.5 -3 CURVE SMOOTH"
);
}
);
width = 1096.5;
}
);
leftKerningGroup = V;
rightKerningGroup = V;
unicode = 0056;
},
{
glyphname = W;
lastChange = "2015-02-26 04:32:42 +0000";
layers = (
{
anchors = (
{
name = top;
position = "{784.5, 1244}";
}
);
background = {
anchors = (
{
name = top;
position = "{784.5, 1244}";
}
);
paths = (
{
closed = 1;
nodes = (
"480.5 -3 LINE SMOOTH",
"515 -3 OFFCURVE",
"546 3 OFFCURVE",
"551 24.5 CURVE SMOOTH",
"744.5 748.5 LINE",
"782.5 980 LINE",
"819 748.5 LINE",
"1014 24.5 LINE SMOOTH",
"1019 3 OFFCURVE",
"1048.5 -3 OFFCURVE",
"1084.5 -3 CURVE SMOOTH",
"1157 -3 LINE SMOOTH",
"1193 -3 OFFCURVE",
"1222.5 3 OFFCURVE",
"1229 24.5 CURVE SMOOTH",
"1536 1193 LINE SMOOTH",
"1538 1200 OFFCURVE",
"1541 1214.5 OFFCURVE",
"1541 1217.5 CURVE SMOOTH",
"1541 1237 OFFCURVE",
"1518.5 1248.5 OFFCURVE",
"1464.5 1248.5 CURVE SMOOTH",
"1454 1248.5 LINE SMOOTH",
"1418 1248.5 OFFCURVE",
"1388.5 1241 OFFCURVE",
"1383.5 1219.5 CURVE SMOOTH",
"1168.5 348 LINE",
"1154 292 OFFCURVE",
"1139.5 236.5 OFFCURVE",
"1125.5 179 CURVE",
"1125.5 179 OFFCURVE",
"1111 280.5 OFFCURVE",
"1094.5 343 CURVE SMOOTH",
"874.5 1217.5 LINE SMOOTH",
"869.5 1241 OFFCURVE",
"840.5 1248.5 OFFCURVE",
"805 1248.5 CURVE SMOOTH",
"777 1248.5 LINE SMOOTH",
"741.5 1248.5 OFFCURVE",
"712.5 1241 OFFCURVE",
"707.5 1217.5 CURVE SMOOTH",
"492.5 350 LINE",
"478 293 OFFCURVE",
"464 236.5 OFFCURVE",
"449.5 179 CURVE",
"447.5 185.5 OFFCURVE",
"430 297 OFFCURVE",
"418 345 CURVE SMOOTH",
"191.5 1219.5 LINE SMOOTH",
"186.5 1241 OFFCURVE",
"156.5 1248.5 OFFCURVE",
"121 1248.5 CURVE SMOOTH",
"103.5 1248.5 LINE SMOOTH",
"50 1248.5 OFFCURVE",
"26.5 1236 OFFCURVE",
"26.5 1217.5 CURVE SMOOTH",
"26.5 1210.5 OFFCURVE",
"30.5 1200 OFFCURVE",
"31.5 1193 CURVE SMOOTH",
"336 24.5 LINE SMOOTH",
"341 3 OFFCURVE",
"371.5 -3 OFFCURVE",
"407.5 -3 CURVE SMOOTH"
);
}
);
};
layerId = "FB715283-CFB2-4766-AFCA-39E45F97C573";
name = Regular;
paths = (
{
closed = 1;
nodes = (
"480.5 -3 LINE SMOOTH",
"515 -3 OFFCURVE",
"546 3 OFFCURVE",
"551 24.5 CURVE SMOOTH",
"744.5 748.5 LINE",
"782.5 980 LINE",
"819 748.5 LINE",
"1014 24.5 LINE SMOOTH",
"1019 3 OFFCURVE",
"1048.5 -3 OFFCURVE",
"1084.5 -3 CURVE SMOOTH",
"1157 -3 LINE SMOOTH",
"1193 -3 OFFCURVE",
"1222.5 3 OFFCURVE",
"1229 24.5 CURVE SMOOTH",
"1536 1193 LINE SMOOTH",
"1538 1200 OFFCURVE",
"1541 1214.5 OFFCURVE",
"1541 1217.5 CURVE SMOOTH",
"1541 1237 OFFCURVE",
"1518.5 1248.5 OFFCURVE",
"1464.5 1248.5 CURVE SMOOTH",
"1454 1248.5 LINE SMOOTH",
"1418 1248.5 OFFCURVE",
"1388.5 1241 OFFCURVE",
"1383.5 1219.5 CURVE SMOOTH",
"1168.5 348 LINE",
"1154 292 OFFCURVE",
"1139.5 236.5 OFFCURVE",
"1125.5 179 CURVE",
"1125.5 179 OFFCURVE",
"1111 280.5 OFFCURVE",
"1094.5 343 CURVE SMOOTH",
"874.5 1217.5 LINE SMOOTH",
"869.5 1241 OFFCURVE",
"840.5 1248.5 OFFCURVE",
"805 1248.5 CURVE SMOOTH",
"777 1248.5 LINE SMOOTH",
"741.5 1248.5 OFFCURVE",
"712.5 1241 OFFCURVE",
"707.5 1217.5 CURVE SMOOTH",
"492.5 350 LINE",
"478 293 OFFCURVE",
"464 236.5 OFFCURVE",
"449.5 179 CURVE",
"447.5 185.5 OFFCURVE",
"430 297 OFFCURVE",
"418 345 CURVE SMOOTH",
"191.5 1219.5 LINE SMOOTH",
"186.5 1241 OFFCURVE",
"156.5 1248.5 OFFCURVE",
"121 1248.5 CURVE SMOOTH",
"103.5 1248.5 LINE SMOOTH",
"50 1248.5 OFFCURVE",
"26.5 1236 OFFCURVE",
"26.5 1217.5 CURVE SMOOTH",
"26.5 1210.5 OFFCURVE",
"30.5 1200 OFFCURVE",
"31.5 1193 CURVE SMOOTH",
"336 24.5 LINE SMOOTH",
"341 3 OFFCURVE",
"371.5 -3 OFFCURVE",
"407.5 -3 CURVE SMOOTH"
);
}
);
width = 1567.5;
},
{
anchors = (
{
name = top;
position = "{784.5, 1244}";
}
);
layerId = "78047C5B-B34F-4F0E-9C92-9BD1482D9144";
name = Bold;
paths = (
{
closed = 1;
nodes = (
"503 -3 LINE SMOOTH",
"553 -3 OFFCURVE",
"594 9 OFFCURVE",
"601 34 CURVE SMOOTH",
"751.5 649 LINE",
"782.5 770 LINE",
"811 649 LINE",
"956.5 34 LINE SMOOTH",
"961.5 9 OFFCURVE",
"1004.5 -3 OFFCURVE",
"1053.5 -3 CURVE SMOOTH",
"1183.5 -3 LINE SMOOTH",
"1234 -3 OFFCURVE",
"1275 9 OFFCURVE",
"1282 34 CURVE SMOOTH",
"1572 1174.5 LINE SMOOTH",
"1573 1186 OFFCURVE",
"1575 1195 OFFCURVE",
"1575 1202 CURVE SMOOTH",
"1575 1230 OFFCURVE",
"1541 1248.5 OFFCURVE",
"1464.5 1248.5 CURVE SMOOTH",
"1445 1248.5 LINE SMOOTH",
"1376.5 1248.5 OFFCURVE",
"1335.5 1230 OFFCURVE",
"1326 1193 CURVE SMOOTH",
"1188 620.5 LINE SMOOTH",
"1171.5 553 OFFCURVE",
"1150 449.5 OFFCURVE",
"1127.5 352.5 CURVE",
"1106 451.5 OFFCURVE",
"1082.5 553 OFFCURVE",
"1067 620.5 CURVE SMOOTH",
"925.5 1210.5 LINE SMOOTH",
"919.5 1239 OFFCURVE",
"886 1248.5 OFFCURVE",
"828.5 1248.5 CURVE SMOOTH",
"761 1248.5 LINE SMOOTH",
"703.5 1248.5 OFFCURVE",
"669.5 1239 OFFCURVE",
"663.5 1210.5 CURVE SMOOTH",
"517 620.5 LINE SMOOTH",
"502 560 OFFCURVE",
"473 464 OFFCURVE",
"456.5 364.5 CURVE",
"435 464 OFFCURVE",
"415.5 560 OFFCURVE",
"401.5 620.5 CURVE SMOOTH",
"268.5 1193 LINE SMOOTH",
"259 1230 OFFCURVE",
"219 1248.5 OFFCURVE",
"149.5 1248.5 CURVE SMOOTH",
"103.5 1248.5 LINE SMOOTH",
"26.5 1248.5 OFFCURVE",
"-7 1230 OFFCURVE",
"-7 1202 CURVE SMOOTH",
"-7 1195 OFFCURVE",
"-7 1186 OFFCURVE",
"-3 1174.5 CURVE SMOOTH",
"277.5 34 LINE SMOOTH",
"282.5 9 OFFCURVE",
"318.5 -3 OFFCURVE",
"375 -3 CURVE SMOOTH"
);
}
);
width = 1567.5;
}
);
leftKerningGroup = V;
rightKerningGroup = V;
unicode = 0057;
},
{
glyphname = X;
lastChange = "2015-02-26 04:32:42 +0000";
layers = (
{
background = {
paths = (
{
closed = 1;
nodes = (
"131 -3 LINE SMOOTH",
"164 -3 OFFCURVE",
"195.5 2 OFFCURVE",
"208 21.5 CURVE SMOOTH",
"538.5 512 LINE",
"865.5 23.5 LINE SMOOTH",
"879.5 2 OFFCURVE",
"905 -3 OFFCURVE",
"942 -3 CURVE SMOOTH",
"971 -3 LINE SMOOTH",
"1031 -3 OFFCURVE",
"1052.5 7 OFFCURVE",
"1052.5 26.5 CURVE SMOOTH",
"1052.5 36 OFFCURVE",
"1047.5 46 OFFCURVE",
"1038.5 58.5 CURVE SMOOTH",
"638 657.5 LINE",
"993.5 1186 LINE SMOOTH",
"1000.5 1198 OFFCURVE",
"1007.5 1208.5 OFFCURVE",
"1007.5 1217.5 CURVE SMOOTH",
"1007.5 1239 OFFCURVE",
"985 1248.5 OFFCURVE",
"925.5 1248.5 CURVE SMOOTH",
"915.5 1248.5 LINE SMOOTH",
"883.5 1248.5 OFFCURVE",
"852 1242 OFFCURVE",
"838.5 1222.5 CURVE SMOOTH",
"546 792.5 LINE",
"261 1221.5 LINE SMOOTH",
"247 1242 OFFCURVE",
"222 1248.5 OFFCURVE",
"185.5 1248.5 CURVE SMOOTH",
"159.5 1248.5 LINE SMOOTH",
"99.5 1248.5 OFFCURVE",
"78 1237 OFFCURVE",
"78 1217.5 CURVE SMOOTH",
"78 1208.5 OFFCURVE",
"84 1198 OFFCURVE",
"92 1186 CURVE SMOOTH",
"447.5 649 LINE",
"50 58.5 LINE SMOOTH",
"41 46 OFFCURVE",
"36 36 OFFCURVE",
"36 26.5 CURVE SMOOTH",
"36 5 OFFCURVE",
"58.5 -3 OFFCURVE",
"118 -3 CURVE SMOOTH"
);
}
);
};
layerId = "FB715283-CFB2-4766-AFCA-39E45F97C573";
name = Regular;
paths = (
{
closed = 1;
nodes = (
"131 -3 LINE SMOOTH",
"164 -3 OFFCURVE",
"195.5 2 OFFCURVE",
"208 21.5 CURVE SMOOTH",
"538.5 512 LINE",
"865.5 23.5 LINE SMOOTH",
"879.5 2 OFFCURVE",
"905 -3 OFFCURVE",
"942 -3 CURVE SMOOTH",
"971 -3 LINE SMOOTH",
"1031 -3 OFFCURVE",
"1052.5 7 OFFCURVE",
"1052.5 26.5 CURVE SMOOTH",
"1052.5 36 OFFCURVE",
"1047.5 46 OFFCURVE",
"1038.5 58.5 CURVE SMOOTH",
"638 657.5 LINE",
"993.5 1186 LINE SMOOTH",
"1000.5 1198 OFFCURVE",
"1007.5 1208.5 OFFCURVE",
"1007.5 1217.5 CURVE SMOOTH",
"1007.5 1239 OFFCURVE",
"985 1248.5 OFFCURVE",
"925.5 1248.5 CURVE SMOOTH",
"915.5 1248.5 LINE SMOOTH",
"883.5 1248.5 OFFCURVE",
"852 1242 OFFCURVE",
"838.5 1222.5 CURVE SMOOTH",
"546 792.5 LINE",
"261 1221.5 LINE SMOOTH",
"247 1242 OFFCURVE",
"222 1248.5 OFFCURVE",
"185.5 1248.5 CURVE SMOOTH",
"159.5 1248.5 LINE SMOOTH",
"99.5 1248.5 OFFCURVE",
"78 1237 OFFCURVE",
"78 1217.5 CURVE SMOOTH",
"78 1208.5 OFFCURVE",
"84 1198 OFFCURVE",
"92 1186 CURVE SMOOTH",
"447.5 649 LINE",
"50 58.5 LINE SMOOTH",
"41 46 OFFCURVE",
"36 36 OFFCURVE",
"36 26.5 CURVE SMOOTH",
"36 5 OFFCURVE",
"58.5 -3 OFFCURVE",
"118 -3 CURVE SMOOTH"
);
}
);
width = 1086.5;
},
{
layerId = "78047C5B-B34F-4F0E-9C92-9BD1482D9144";
name = Bold;
paths = (
{
closed = 1;
nodes = (
"193.5 -3 LINE SMOOTH",
"246 -3 OFFCURVE",
"280.5 -2 OFFCURVE",
"302 30.5 CURVE SMOOTH",
"548 412.5 LINE",
"784.5 30.5 LINE SMOOTH",
"799.5 3 OFFCURVE",
"838.5 -3 OFFCURVE",
"891 -3 CURVE SMOOTH",
"959.5 -3 LINE SMOOTH",
"1038.5 -3 OFFCURVE",
"1072 9 OFFCURVE",
"1072 30.5 CURVE SMOOTH",
"1072 43 OFFCURVE",
"1067 57.5 OFFCURVE",
"1055.5 75 CURVE SMOOTH",
"700.5 645 LINE",
"1036.5 1169.5 LINE SMOOTH",
"1048.5 1188 OFFCURVE",
"1053.5 1203 OFFCURVE",
"1053.5 1214.5 CURVE SMOOTH",
"1053.5 1236 OFFCURVE",
"1019 1248.5 OFFCURVE",
"942 1248.5 CURVE SMOOTH",
"872.5 1248.5 LINE SMOOTH",
"821 1248.5 OFFCURVE",
"784.5 1244 OFFCURVE",
"764 1214.5 CURVE SMOOTH",
"551 883.5 LINE",
"348 1214.5 LINE SMOOTH",
"333 1241 OFFCURVE",
"293 1248.5 OFFCURVE",
"241.5 1248.5 CURVE SMOOTH",
"169 1248.5 LINE SMOOTH",
"91 1248.5 OFFCURVE",
"55.5 1234 OFFCURVE",
"55.5 1214.5 CURVE SMOOTH",
"55.5 1202 OFFCURVE",
"62.5 1188 OFFCURVE",
"72.5 1169.5 CURVE SMOOTH",
"398.5 649 LINE",
"31.5 75 LINE SMOOTH",
"19.5 55.5 OFFCURVE",
"14.5 41 OFFCURVE",
"14.5 30.5 CURVE SMOOTH",
"14.5 9 OFFCURVE",
"48 -3 OFFCURVE",
"126 -3 CURVE SMOOTH"
);
}
);
width = 1086.5;
}
);
unicode = 0058;
},
{
glyphname = Y;
lastChange = "2015-02-26 04:32:42 +0000";
layers = (
{
anchors = (
{
name = bottom;
position = "{495.5, 0}";
},
{
name = top;
position = "{497.5, 1244}";
}
);
background = {
anchors = (
{
name = bottom;
position = "{495.5, 0}";
},
{
name = top;
position = "{497.5, 1244}";
}
);
paths = (
{
closed = 1;
nodes = (
"503 -3 LINE SMOOTH",
"553 -3 OFFCURVE",
"574.5 10 OFFCURVE",
"574.5 36 CURVE SMOOTH",
"574.5 633 LINE",
"947 1186 LINE SMOOTH",
"954.5 1198 OFFCURVE",
"961.5 1208.5 OFFCURVE",
"961.5 1217.5 CURVE SMOOTH",
"961.5 1237 OFFCURVE",
"942 1246 OFFCURVE",
"892 1248.5 CURVE",
"879.5 1248.5 LINE",
"845 1248.5 OFFCURVE",
"812 1242 OFFCURVE",
"799.5 1222.5 CURVE SMOOTH",
"502 784.5 LINE",
"210 1221.5 LINE SMOOTH",
"195.5 1242 OFFCURVE",
"171 1248.5 OFFCURVE",
"133 1248.5 CURVE SMOOTH",
"113.5 1248.5 LINE SMOOTH",
"53 1248.5 OFFCURVE",
"31.5 1237 OFFCURVE",
"31.5 1217.5 CURVE SMOOTH",
"31.5 1208.5 OFFCURVE",
"37 1198 OFFCURVE",
"46 1186 CURVE SMOOTH",
"418 638 LINE",
"418 36 LINE SMOOTH",
"418 10 OFFCURVE",
"439.5 -3 OFFCURVE",
"488.5 -3 CURVE SMOOTH"
);
}
);
};
layerId = "FB715283-CFB2-4766-AFCA-39E45F97C573";
name = Regular;
paths = (
{
closed = 1;
nodes = (
"503 -3 LINE SMOOTH",
"553 -3 OFFCURVE",
"574.5 10 OFFCURVE",
"574.5 36 CURVE SMOOTH",
"574.5 633 LINE",
"947 1186 LINE SMOOTH",
"954.5 1198 OFFCURVE",
"961.5 1208.5 OFFCURVE",
"961.5 1217.5 CURVE SMOOTH",
"961.5 1237 OFFCURVE",
"942 1246 OFFCURVE",
"892 1248.5 CURVE",
"879.5 1248.5 LINE",
"845 1248.5 OFFCURVE",
"812 1242 OFFCURVE",
"799.5 1222.5 CURVE SMOOTH",
"502 784.5 LINE",
"210 1221.5 LINE SMOOTH",
"195.5 1242 OFFCURVE",
"171 1248.5 OFFCURVE",
"133 1248.5 CURVE SMOOTH",
"113.5 1248.5 LINE SMOOTH",
"53 1248.5 OFFCURVE",
"31.5 1237 OFFCURVE",
"31.5 1217.5 CURVE SMOOTH",
"31.5 1208.5 OFFCURVE",
"37 1198 OFFCURVE",
"46 1186 CURVE SMOOTH",
"418 638 LINE",
"418 36 LINE SMOOTH",
"418 10 OFFCURVE",
"439.5 -3 OFFCURVE",
"488.5 -3 CURVE SMOOTH"
);
}
);
width = 993.5;
},
{
anchors = (
{
name = bottom;
position = "{502, 0}";
},
{
name = top;
position = "{497.5, 1244}";
}
);
layerId = "78047C5B-B34F-4F0E-9C92-9BD1482D9144";
name = Bold;
paths = (
{
closed = 1;
nodes = (
"528.5 -3 LINE SMOOTH",
"603 -3 OFFCURVE",
"635 16.5 OFFCURVE",
"635 53 CURVE SMOOTH",
"635 592 LINE",
"988 1168.5 LINE SMOOTH",
"999.5 1186 OFFCURVE",
"1004.5 1202 OFFCURVE",
"1004.5 1212.5 CURVE SMOOTH",
"1004.5 1234 OFFCURVE",
"971 1248.5 OFFCURVE",
"892 1248.5 CURVE SMOOTH",
"828.5 1248.5 LINE SMOOTH",
"777 1248.5 OFFCURVE",
"737.5 1241 OFFCURVE",
"722 1214.5 CURVE SMOOTH",
"503 833.5 LINE",
"285.5 1214.5 LINE SMOOTH",
"270.5 1241 OFFCURVE",
"231.5 1248.5 OFFCURVE",
"179 1248.5 CURVE SMOOTH",
"103.5 1248.5 LINE SMOOTH",
"24.5 1248.5 OFFCURVE",
"-10 1234 OFFCURVE",
"-10 1212.5 CURVE SMOOTH",
"-10 1202 OFFCURVE",
"-3 1186 OFFCURVE",
"7 1168.5 CURVE SMOOTH",
"360.5 597 LINE",
"360.5 53 LINE SMOOTH",
"360.5 16.5 OFFCURVE",
"393 -3 OFFCURVE",
"468 -3 CURVE SMOOTH"
);
}
);
width = 993.5;
}
);
leftKerningGroup = Y;
rightKerningGroup = Y;
unicode = 0059;
},
{
glyphname = Z;
lastChange = "2015-02-26 04:32:42 +0000";
layers = (
{
anchors = (
{
name = bottom;
position = "{565, 0}";
},
{
name = top;
position = "{548, 1244}";
}
);
background = {
anchors = (
{
name = bottom;
position = "{565, 0}";
},
{
name = top;
position = "{548, 1244}";
}
);
paths = (
{
closed = 1;
nodes = (
"976 0 LINE SMOOTH",
"1000.5 0 OFFCURVE",
"1011.5 17.5 OFFCURVE",
"1011.5 60.5 CURVE SMOOTH",
"1011.5 75 LINE SMOOTH",
"1011.5 118 OFFCURVE",
"1000.5 135 OFFCURVE",
"976 135 CURVE SMOOTH",
"280.5 135 LINE",
"1009.5 1128.5 LINE SMOOTH",
"1014 1134.5 OFFCURVE",
"1015 1142 OFFCURVE",
"1015 1150 CURVE SMOOTH",
"1015 1188 OFFCURVE",
"988 1244 OFFCURVE",
"976 1244 CURVE SMOOTH",
"162 1244 LINE SMOOTH",
"137 1244 OFFCURVE",
"126 1227 OFFCURVE",
"126 1183.5 CURVE SMOOTH",
"126 1169.5 LINE SMOOTH",
"126 1127.5 OFFCURVE",
"137 1109 OFFCURVE",
"162 1109 CURVE SMOOTH",
"802 1109 LINE",
"72.5 115.5 LINE SMOOTH",
"69.5 110.5 OFFCURVE",
"67.5 103.5 OFFCURVE",
"67.5 94 CURVE SMOOTH",
"67.5 58.5 OFFCURVE",
"92 0 OFFCURVE",
"110.5 0 CURVE"
);
}
);
};
layerId = "FB715283-CFB2-4766-AFCA-39E45F97C573";
name = Regular;
paths = (
{
closed = 1;
nodes = (
"976 0 LINE SMOOTH",
"1000.5 0 OFFCURVE",
"1011.5 17.5 OFFCURVE",
"1011.5 60.5 CURVE SMOOTH",
"1011.5 75 LINE SMOOTH",
"1011.5 118 OFFCURVE",
"1000.5 135 OFFCURVE",
"976 135 CURVE SMOOTH",
"280.5 135 LINE",
"1009.5 1128.5 LINE SMOOTH",
"1014 1134.5 OFFCURVE",
"1015 1142 OFFCURVE",
"1015 1150 CURVE SMOOTH",
"1015 1188 OFFCURVE",
"988 1244 OFFCURVE",
"976 1244 CURVE SMOOTH",
"162 1244 LINE SMOOTH",
"137 1244 OFFCURVE",
"126 1227 OFFCURVE",
"126 1183.5 CURVE SMOOTH",
"126 1169.5 LINE SMOOTH",
"126 1127.5 OFFCURVE",
"137 1109 OFFCURVE",
"162 1109 CURVE SMOOTH",
"802 1109 LINE",
"72.5 115.5 LINE SMOOTH",
"69.5 110.5 OFFCURVE",
"67.5 103.5 OFFCURVE",
"67.5 94 CURVE SMOOTH",
"67.5 58.5 OFFCURVE",
"92 0 OFFCURVE",
"110.5 0 CURVE"
);
}
);
width = 1094.5;
},
{
anchors = (
{
name = bottom;
position = "{531.5, 0}";
},
{
name = top;
position = "{548, 1244}";
}
);
layerId = "78047C5B-B34F-4F0E-9C92-9BD1482D9144";
name = Bold;
paths = (
{
closed = 1;
nodes = (
"978 0 LINE SMOOTH",
"1015 0 OFFCURVE",
"1031 26.5 OFFCURVE",
"1031 89 CURVE SMOOTH",
"1031 144.5 LINE SMOOTH",
"1031 206 OFFCURVE",
"1015 232.5 OFFCURVE",
"978 232.5 CURVE SMOOTH",
"435 232.5 LINE",
"1029 1067 LINE SMOOTH",
"1031 1070 OFFCURVE",
"1031 1074 OFFCURVE",
"1031 1080.5 CURVE SMOOTH",
"1031 1127.5 OFFCURVE",
"993.5 1244 OFFCURVE",
"965.5 1244 CURVE SMOOTH",
"152.5 1244 LINE SMOOTH",
"115.5 1244 OFFCURVE",
"99.5 1217.5 OFFCURVE",
"99.5 1155 CURVE SMOOTH",
"99.5 1101 LINE SMOOTH",
"99.5 1038.5 OFFCURVE",
"115.5 1011.5 OFFCURVE",
"152.5 1011.5 CURVE SMOOTH",
"647 1011.5 LINE",
"51 176 LINE SMOOTH",
"50 172 OFFCURVE",
"48 165 OFFCURVE",
"48 158.5 CURVE SMOOTH",
"48 110.5 OFFCURVE",
"87 0 OFFCURVE",
"118 0 CURVE SMOOTH"
);
}
);
width = 1094.5;
}
);
unicode = 005A;
},
{
glyphname = Y.loclGUA;
lastChange = "2015-02-26 04:32:42 +0000";
layers = (
{
anchors = (
{
name = bottom;
position = "{481.5, 0}";
},
{
name = top;
position = "{497.5, 1244}";
}
);
background = {
anchors = (
{
name = bottom;
position = "{481.5, 0}";
},
{
name = top;
position = "{497.5, 1244}";
}
);
paths = (
{
closed = 1;
nodes = (
"761 -14.5 OFFCURVE",
"869.5 113.5 OFFCURVE",
"869.5 538.5 CURVE SMOOTH",
"869.5 1208.5 LINE SMOOTH",
"869.5 1234 OFFCURVE",
"848 1248.5 OFFCURVE",
"797.5 1248.5 CURVE SMOOTH",
"791.5 1248.5 LINE SMOOTH",
"741.5 1248.5 OFFCURVE",
"720 1234 OFFCURVE",
"720 1208.5 CURVE SMOOTH",
"720 630 LINE",
"656.5 553 OFFCURVE",
"565 505 OFFCURVE",
"478 505 CURVE SMOOTH",
"352.5 505 OFFCURVE",
"279.5 569.5 OFFCURVE",
"279.5 677 CURVE SMOOTH",
"279.5 1208.5 LINE SMOOTH",
"279.5 1234 OFFCURVE",
"258 1248.5 OFFCURVE",
"208 1248.5 CURVE SMOOTH",
"200.5 1248.5 LINE SMOOTH",
"151.5 1248.5 OFFCURVE",
"130 1234 OFFCURVE",
"130 1208.5 CURVE SMOOTH",
"130 663.5 LINE SMOOTH",
"130 483.5 OFFCURVE",
"246 375 OFFCURVE",
"437 375 CURVE SMOOTH",
"553 375 OFFCURVE",
"669.5 434 OFFCURVE",
"751.5 529.5 CURVE",
"720 574.5 LINE",
"720 546 LINE",
"724 232.5 OFFCURVE",
"661.5 113.5 OFFCURVE",
"495.5 113.5 CURVE SMOOTH",
"279.5 113.5 OFFCURVE",
"179 191.5 OFFCURVE",
"152.5 191.5 CURVE SMOOTH",
"145.5 191.5 OFFCURVE",
"135 185.5 OFFCURVE",
"135 138 CURVE SMOOTH",
"135 126 OFFCURVE",
"135 111.5 OFFCURVE",
"137 94 CURVE SMOOTH",
"144.5 48 OFFCURVE",
"297 -14.5 OFFCURVE",
"510 -14.5 CURVE SMOOTH"
);
}
);
};
layerId = "FB715283-CFB2-4766-AFCA-39E45F97C573";
name = Regular;
paths = (
{
closed = 1;
nodes = (
"761 -14.5 OFFCURVE",
"869.5 113.5 OFFCURVE",
"869.5 538.5 CURVE SMOOTH",
"869.5 1208.5 LINE SMOOTH",
"869.5 1234 OFFCURVE",
"848 1248.5 OFFCURVE",
"797.5 1248.5 CURVE SMOOTH",
"791.5 1248.5 LINE SMOOTH",
"741.5 1248.5 OFFCURVE",
"720 1234 OFFCURVE",
"720 1208.5 CURVE SMOOTH",
"720 630 LINE",
"656.5 553 OFFCURVE",
"565 505 OFFCURVE",
"478 505 CURVE SMOOTH",
"352.5 505 OFFCURVE",
"279.5 569.5 OFFCURVE",
"279.5 677 CURVE SMOOTH",
"279.5 1208.5 LINE SMOOTH",
"279.5 1234 OFFCURVE",
"258 1248.5 OFFCURVE",
"208 1248.5 CURVE SMOOTH",
"200.5 1248.5 LINE SMOOTH",
"151.5 1248.5 OFFCURVE",
"130 1234 OFFCURVE",
"130 1208.5 CURVE SMOOTH",
"130 663.5 LINE SMOOTH",
"130 483.5 OFFCURVE",
"246 375 OFFCURVE",
"437 375 CURVE SMOOTH",
"553 375 OFFCURVE",
"669.5 434 OFFCURVE",
"751.5 529.5 CURVE",
"720 574.5 LINE",
"720 546 LINE",
"724 232.5 OFFCURVE",
"661.5 113.5 OFFCURVE",
"495.5 113.5 CURVE SMOOTH",
"279.5 113.5 OFFCURVE",
"179 191.5 OFFCURVE",
"152.5 191.5 CURVE SMOOTH",
"145.5 191.5 OFFCURVE",
"135 185.5 OFFCURVE",
"135 138 CURVE SMOOTH",
"135 126 OFFCURVE",
"135 111.5 OFFCURVE",
"137 94 CURVE SMOOTH",
"144.5 48 OFFCURVE",
"297 -14.5 OFFCURVE",
"510 -14.5 CURVE SMOOTH"
);
}
);
width = 993.5;
},
{
anchors = (
{
name = bottom;
position = "{464, 0}";
},
{
name = top;
position = "{497.5, 1244}";
}
);
layerId = "78047C5B-B34F-4F0E-9C92-9BD1482D9144";
name = Bold;
paths = (
{
closed = 1;
nodes = (
"797.5 -16.5 OFFCURVE",
"917.5 165 OFFCURVE",
"917.5 526.5 CURVE SMOOTH",
"917.5 1189 LINE SMOOTH",
"917.5 1227 OFFCURVE",
"886 1246 OFFCURVE",
"811 1246 CURVE SMOOTH",
"761 1246 LINE SMOOTH",
"686 1246 OFFCURVE",
"654.5 1227 OFFCURVE",
"654.5 1189 CURVE SMOOTH",
"654.5 690 LINE",
"633 649 OFFCURVE",
"589 587 OFFCURVE",
"512 587 CURVE SMOOTH",
"408.5 587 OFFCURVE",
"369.5 627.5 OFFCURVE",
"369.5 697.5 CURVE SMOOTH",
"369.5 1189 LINE SMOOTH",
"369.5 1227 OFFCURVE",
"338 1246 OFFCURVE",
"263 1246 CURVE SMOOTH",
"213 1246 LINE SMOOTH",
"138 1246 OFFCURVE",
"106.5 1227 OFFCURVE",
"106.5 1189 CURVE SMOOTH",
"106.5 657.5 LINE SMOOTH",
"106.5 461 OFFCURVE",
"200.5 369.5 OFFCURVE",
"403.5 369.5 CURVE SMOOTH",
"538.5 369.5 OFFCURVE",
"649 462 OFFCURVE",
"690 538.5 CURVE",
"654.5 606 LINE",
"654.5 430 LINE SMOOTH",
"654.5 273.5 OFFCURVE",
"584.5 191.5 OFFCURVE",
"446.5 191.5 CURVE SMOOTH",
"275.5 191.5 OFFCURVE",
"171 265 OFFCURVE",
"144.5 265 CURVE SMOOTH",
"131 265 OFFCURVE",
"121 247 OFFCURVE",
"121 193.5 CURVE SMOOTH",
"121 172 OFFCURVE",
"123 144.5 OFFCURVE",
"126 110.5 CURVE SMOOTH",
"133 36 OFFCURVE",
"311.5 -16.5 OFFCURVE",
"521 -16.5 CURVE SMOOTH"
);
}
);
width = 993.5;
}
);
},
{
glyphname = a;
lastChange = "2015-02-26 04:32:42 +0000";
layers = (
{
anchors = (
{
name = bottom;
position = "{464, 0}";
},
{
name = ogonek;
position = "{845, 30.5}";
},
{
name = top;
position = "{485.5, 930}";
}
);
background = {
anchors = (
{
name = bottom;
position = "{464, 0}";
},
{
name = ogonek;
position = "{845, 30.5}";
},
{
name = top;
position = "{485.5, 930}";
}
);
paths = (
{
closed = 1;
nodes = (
"524.5 -10 OFFCURVE",
"622.5 48 OFFCURVE",
"690 123 CURVE",
"700.5 72.5 OFFCURVE",
"709.5 -2 OFFCURVE",
"751.5 -2 CURVE SMOOTH",
"775 -2 OFFCURVE",
"848 5 OFFCURVE",
"848 39 CURVE SMOOTH",
"848 48 OFFCURVE",
"826.5 118 OFFCURVE",
"826.5 263 CURVE SMOOTH",
"826.5 661.5 LINE SMOOTH",
"826.5 837.5 OFFCURVE",
"697.5 940 OFFCURVE",
"476 940 CURVE SMOOTH",
"299 940 OFFCURVE",
"142.5 872.5 OFFCURVE",
"142.5 826.5 CURVE SMOOTH",
"142.5 807 OFFCURVE",
"179 737.5 OFFCURVE",
"205 737.5 CURVE SMOOTH",
"222 737.5 OFFCURVE",
"319.5 812 OFFCURVE",
"481.5 812 CURVE SMOOTH",
"630 812 OFFCURVE",
"677 743.5 OFFCURVE",
"677 663.5 CURVE SMOOTH",
"677 579.5 LINE",
"405.5 575.5 OFFCURVE",
"87 556 OFFCURVE",
"87 256 CURVE SMOOTH",
"87 72.5 OFFCURVE",
"219 -10 OFFCURVE",
"391 -10 CURVE SMOOTH"
);
},
{
closed = 1;
nodes = (
"299 119 OFFCURVE",
"247 171 OFFCURVE",
"247 265 CURVE SMOOTH",
"247 449.5 OFFCURVE",
"492.5 449.5 OFFCURVE",
"677 451.5 CURVE",
"677 241.5 LINE",
"606 178 OFFCURVE",
"528.5 119 OFFCURVE",
"398.5 119 CURVE SMOOTH"
);
}
);
};
layerId = "FB715283-CFB2-4766-AFCA-39E45F97C573";
name = Regular;
paths = (
{
closed = 1;
nodes = (
"524.5 -10 OFFCURVE",
"622.5 48 OFFCURVE",
"690 123 CURVE",
"700.5 72.5 OFFCURVE",
"709.5 -2 OFFCURVE",
"751.5 -2 CURVE SMOOTH",
"775 -2 OFFCURVE",
"848 5 OFFCURVE",
"848 39 CURVE SMOOTH",
"848 48 OFFCURVE",
"826.5 118 OFFCURVE",
"826.5 263 CURVE SMOOTH",
"826.5 661.5 LINE SMOOTH",
"826.5 837.5 OFFCURVE",
"697.5 940 OFFCURVE",
"476 940 CURVE SMOOTH",
"299 940 OFFCURVE",
"142.5 872.5 OFFCURVE",
"142.5 826.5 CURVE SMOOTH",
"142.5 807 OFFCURVE",
"179 737.5 OFFCURVE",
"205 737.5 CURVE SMOOTH",
"222 737.5 OFFCURVE",
"319.5 812 OFFCURVE",
"481.5 812 CURVE SMOOTH",
"630 812 OFFCURVE",
"677 743.5 OFFCURVE",
"677 663.5 CURVE SMOOTH",
"677 579.5 LINE",
"405.5 575.5 OFFCURVE",
"87 556 OFFCURVE",
"87 256 CURVE SMOOTH",
"87 72.5 OFFCURVE",
"219 -10 OFFCURVE",
"391 -10 CURVE SMOOTH"
);
},
{
closed = 1;
nodes = (
"299 119 OFFCURVE",
"247 171 OFFCURVE",
"247 265 CURVE SMOOTH",
"247 449.5 OFFCURVE",
"492.5 449.5 OFFCURVE",
"677 451.5 CURVE",
"677 241.5 LINE",
"606 178 OFFCURVE",
"528.5 119 OFFCURVE",
"398.5 119 CURVE SMOOTH"
);
}
);
width = 968.5;
},
{
anchors = (
{
name = bottom;
position = "{485.5, 0}";
},
{
name = ogonek;
position = "{857, 55.5}";
},
{
name = top;
position = "{485.5, 930}";
}
);
layerId = "78047C5B-B34F-4F0E-9C92-9BD1482D9144";
name = Bold;
paths = (
{
closed = 1;
nodes = (
"502 -14.5 OFFCURVE",
"587 97.5 OFFCURVE",
"599 121 CURVE",
"609.5 72.5 OFFCURVE",
"613.5 -2 OFFCURVE",
"669.5 -2 CURVE SMOOTH",
"715 -2 OFFCURVE",
"869.5 12.5 OFFCURVE",
"869.5 55.5 CURVE SMOOTH",
"869.5 92 OFFCURVE",
"848 130 OFFCURVE",
"848 313.5 CURVE SMOOTH",
"848 647 LINE SMOOTH",
"848 819 OFFCURVE",
"746.5 944 OFFCURVE",
"466 944 CURVE SMOOTH",
"268.5 944 OFFCURVE",
"126 881.5 OFFCURVE",
"126 821 CURVE SMOOTH",
"126 784.5 OFFCURVE",
"181 679 OFFCURVE",
"219 679 CURVE SMOOTH",
"239.5 679 OFFCURVE",
"316.5 736.5 OFFCURVE",
"446.5 736.5 CURVE SMOOTH",
"543.5 736.5 OFFCURVE",
"584.5 702.5 OFFCURVE",
"584.5 635 CURVE SMOOTH",
"584.5 575.5 LINE",
"133 575.5 OFFCURVE",
"75 391 OFFCURVE",
"75 246 CURVE SMOOTH",
"75 99.5 OFFCURVE",
"145.5 -14.5 OFFCURVE",
"338 -14.5 CURVE SMOOTH"
);
},
{
closed = 1;
nodes = (
"366.5 193.5 OFFCURVE",
"336 227.5 OFFCURVE",
"336 272.5 CURVE SMOOTH",
"336 357.5 OFFCURVE",
"415.5 403.5 OFFCURVE",
"584.5 403.5 CURVE",
"584.5 306 LINE",
"556 241.5 OFFCURVE",
"492.5 193.5 OFFCURVE",
"425 193.5 CURVE SMOOTH"
);
}
);
width = 968.5;
}
);
leftKerningGroup = a;
unicode = 0061;
},
{
glyphname = ae;
lastChange = "2015-02-26 04:32:42 +0000";
layers = (
{
anchors = (
{
name = top;
position = "{737.5, 930}";
}
);
background = {
anchors = (
{
name = top;
position = "{737.5, 930}";
}
);
paths = (
{
closed = 1;
nodes = (
"522 -10 OFFCURVE",
"633 41 OFFCURVE",
"705.5 101.5 CURVE",
"777 26.5 OFFCURVE",
"886 -10 OFFCURVE",
"1031 -10 CURVE SMOOTH",
"1210.5 -10 OFFCURVE",
"1350.5 60.5 OFFCURVE",
"1350.5 103.5 CURVE SMOOTH",
"1350.5 123 OFFCURVE",
"1314 191.5 OFFCURVE",
"1289 191.5 CURVE SMOOTH",
"1271 191.5 OFFCURVE",
"1183.5 118 OFFCURVE",
"1029 118 CURVE SMOOTH",
"853 118 OFFCURVE",
"770 213 OFFCURVE",
"755.5 428 CURVE",
"1317 428 LINE SMOOTH",
"1338.5 428 OFFCURVE",
"1376.5 480.5 OFFCURVE",
"1376.5 502 CURVE SMOOTH",
"1376.5 785.5 OFFCURVE",
"1253.5 940 OFFCURVE",
"1009.5 940 CURVE SMOOTH",
"898 940 OFFCURVE",
"807 912.5 OFFCURVE",
"739.5 855 CURVE",
"679 910.5 OFFCURVE",
"587 940 OFFCURVE",
"469 940 CURVE SMOOTH",
"292 940 OFFCURVE",
"135 872.5 OFFCURVE",
"135 826.5 CURVE SMOOTH",
"135 807 OFFCURVE",
"172 737.5 OFFCURVE",
"197.5 737.5 CURVE SMOOTH",
"215 737.5 OFFCURVE",
"313.5 812 OFFCURVE",
"475 812 CURVE SMOOTH",
"570.5 812 OFFCURVE",
"623.5 782.5 OFFCURVE",
"650 739.5 CURVE",
"623.5 688 OFFCURVE",
"608.5 625.5 OFFCURVE",
"601 555 CURVE",
"347 548 OFFCURVE",
"80 510 OFFCURVE",
"80 256 CURVE SMOOTH",
"80 72.5 OFFCURVE",
"212 -10 OFFCURVE",
"384 -10 CURVE SMOOTH"
);
},
{
closed = 1;
nodes = (
"292 119 OFFCURVE",
"239.5 171 OFFCURVE",
"239.5 265 CURVE SMOOTH",
"239.5 403.5 OFFCURVE",
"425 423 OFFCURVE",
"596 427 CURVE",
"597 343 OFFCURVE",
"611.5 270.5 OFFCURVE",
"636 212 CURVE",
"572.5 159.5 OFFCURVE",
"499.5 119 OFFCURVE",
"391 119 CURVE SMOOTH"
);
},
{
closed = 1;
nodes = (
"768 725 OFFCURVE",
"850 812 OFFCURVE",
"1004.5 812 CURVE SMOOTH",
"1147 812 OFFCURVE",
"1217.5 725 OFFCURVE",
"1217.5 556 CURVE",
"755.5 556 LINE"
);
}
);
};
layerId = "FB715283-CFB2-4766-AFCA-39E45F97C573";
name = Regular;
paths = (
{
closed = 1;
nodes = (
"522 -10 OFFCURVE",
"633 41 OFFCURVE",
"705.5 101.5 CURVE",
"777 26.5 OFFCURVE",
"886 -10 OFFCURVE",
"1031 -10 CURVE SMOOTH",
"1210.5 -10 OFFCURVE",
"1350.5 60.5 OFFCURVE",
"1350.5 103.5 CURVE SMOOTH",
"1350.5 123 OFFCURVE",
"1314 191.5 OFFCURVE",
"1289 191.5 CURVE SMOOTH",
"1271 191.5 OFFCURVE",
"1183.5 118 OFFCURVE",
"1029 118 CURVE SMOOTH",
"853 118 OFFCURVE",
"770 213 OFFCURVE",
"755.5 428 CURVE",
"1317 428 LINE SMOOTH",
"1338.5 428 OFFCURVE",
"1376.5 480.5 OFFCURVE",
"1376.5 502 CURVE SMOOTH",
"1376.5 785.5 OFFCURVE",
"1253.5 940 OFFCURVE",
"1009.5 940 CURVE SMOOTH",
"898 940 OFFCURVE",
"807 912.5 OFFCURVE",
"739.5 855 CURVE",
"679 910.5 OFFCURVE",
"587 940 OFFCURVE",
"469 940 CURVE SMOOTH",
"292 940 OFFCURVE",
"135 872.5 OFFCURVE",
"135 826.5 CURVE SMOOTH",
"135 807 OFFCURVE",
"172 737.5 OFFCURVE",
"197.5 737.5 CURVE SMOOTH",
"215 737.5 OFFCURVE",
"313.5 812 OFFCURVE",
"475 812 CURVE SMOOTH",
"570.5 812 OFFCURVE",
"623.5 782.5 OFFCURVE",
"650 739.5 CURVE",
"623.5 688 OFFCURVE",
"608.5 625.5 OFFCURVE",
"601 555 CURVE",
"347 548 OFFCURVE",
"80 510 OFFCURVE",
"80 256 CURVE SMOOTH",
"80 72.5 OFFCURVE",
"212 -10 OFFCURVE",
"384 -10 CURVE SMOOTH"
);
},
{
closed = 1;
nodes = (
"292 119 OFFCURVE",
"239.5 171 OFFCURVE",
"239.5 265 CURVE SMOOTH",
"239.5 403.5 OFFCURVE",
"425 423 OFFCURVE",
"596 427 CURVE",
"597 343 OFFCURVE",
"611.5 270.5 OFFCURVE",
"636 212 CURVE",
"572.5 159.5 OFFCURVE",
"499.5 119 OFFCURVE",
"391 119 CURVE SMOOTH"
);
},
{
closed = 1;
nodes = (
"768 725 OFFCURVE",
"850 812 OFFCURVE",
"1004.5 812 CURVE SMOOTH",
"1147 812 OFFCURVE",
"1217.5 725 OFFCURVE",
"1217.5 556 CURVE",
"755.5 556 LINE"
);
}
);
width = 1473.5;
},
{
anchors = (
{
name = top;
position = "{737.5, 930}";
}
);
layerId = "78047C5B-B34F-4F0E-9C92-9BD1482D9144";
name = Bold;
paths = (
{
closed = 1;
nodes = (
"533.5 -14.5 OFFCURVE",
"647 65.5 OFFCURVE",
"688 106.5 CURVE",
"764 30.5 OFFCURVE",
"878.5 -14.5 OFFCURVE",
"1034 -14.5 CURVE SMOOTH",
"1134.5 -14.5 OFFCURVE",
"1355 24.5 OFFCURVE",
"1355 113.5 CURVE SMOOTH",
"1355 149.5 OFFCURVE",
"1301.5 249 OFFCURVE",
"1262.5 249 CURVE SMOOTH",
"1237 249 OFFCURVE",
"1159 193.5 OFFCURVE",
"1047.5 193.5 CURVE SMOOTH",
"944 193.5 OFFCURVE",
"846 243.5 OFFCURVE",
"846 398.5 CURVE",
"1299.5 398.5 LINE SMOOTH",
"1323 398.5 OFFCURVE",
"1386.5 473 OFFCURVE",
"1386.5 503 CURVE SMOOTH",
"1386.5 750.5 OFFCURVE",
"1282 944 OFFCURVE",
"1002.5 944 CURVE SMOOTH",
"905 944 OFFCURVE",
"819 922.5 OFFCURVE",
"750.5 879.5 CURVE",
"690 920.5 OFFCURVE",
"596 944 OFFCURVE",
"464 944 CURVE SMOOTH",
"266 944 OFFCURVE",
"125 881.5 OFFCURVE",
"125 821 CURVE SMOOTH",
"125 784.5 OFFCURVE",
"179 679 OFFCURVE",
"217 679 CURVE SMOOTH",
"246 679 OFFCURVE",
"334 736.5 OFFCURVE",
"444.5 736.5 CURVE SMOOTH",
"514 736.5 OFFCURVE",
"575.5 725 OFFCURVE",
"604 688 CURVE",
"592 654.5 OFFCURVE",
"582.5 616.5 OFFCURVE",
"577.5 574.5 CURVE",
"131 572.5 OFFCURVE",
"72.5 389 OFFCURVE",
"72.5 246 CURVE SMOOTH",
"72.5 99.5 OFFCURVE",
"176 -14.5 OFFCURVE",
"367.5 -14.5 CURVE SMOOTH"
);
},
{
closed = 1;
nodes = (
"364.5 193.5 OFFCURVE",
"334 227.5 OFFCURVE",
"334 272.5 CURVE SMOOTH",
"334 355.5 OFFCURVE",
"410.5 398.5 OFFCURVE",
"572.5 400.5 CURVE",
"575.5 355.5 OFFCURVE",
"582.5 314.5 OFFCURVE",
"594 277.5 CURVE",
"560 222 OFFCURVE",
"485.5 193.5 OFFCURVE",
"423 193.5 CURVE SMOOTH"
);
},
{
closed = 1;
nodes = (
"864.5 710.5 OFFCURVE",
"942 736.5 OFFCURVE",
"1002.5 736.5 CURVE SMOOTH",
"1080.5 736.5 OFFCURVE",
"1130.5 677 OFFCURVE",
"1130.5 574.5 CURVE",
"843 574.5 LINE"
);
}
);
width = 1473.5;
}
);
leftKerningGroup = a;
unicode = 00E6;
},
{
glyphname = b;
lastChange = "2015-02-26 04:32:42 +0000";
layers = (
{
background = {
paths = (
{
closed = 1;
nodes = (
"784.5 -10 OFFCURVE",
"915.5 188.5 OFFCURVE",
"915.5 466 CURVE SMOOTH",
"915.5 773 OFFCURVE",
"766 940 OFFCURVE",
"555 940 CURVE SMOOTH",
"444.5 940 OFFCURVE",
"369.5 903 OFFCURVE",
"300 850 CURVE",
"300 1297.5 LINE SMOOTH",
"300 1323 OFFCURVE",
"279.5 1336.5 OFFCURVE",
"229.5 1336.5 CURVE SMOOTH",
"222 1336.5 LINE SMOOTH",
"172 1336.5 OFFCURVE",
"151.5 1323 OFFCURVE",
"151.5 1297.5 CURVE SMOOTH",
"151.5 36 LINE SMOOTH",
"151.5 10 OFFCURVE",
"167 -3 OFFCURVE",
"205 -3 CURVE SMOOTH",
"212 -3 LINE SMOOTH",
"236.5 -3 OFFCURVE",
"253 2 OFFCURVE",
"259 17.5 CURVE",
"273.5 53 OFFCURVE",
"282.5 87 OFFCURVE",
"287.5 123 CURVE",
"375 31.5 OFFCURVE",
"469 -10 OFFCURVE",
"570.5 -10 CURVE SMOOTH"
);
},
{
closed = 1;
nodes = (
"462 119 OFFCURVE",
"374 162 OFFCURVE",
"300 241.5 CURVE",
"300 729 LINE",
"364.5 782.5 OFFCURVE",
"444.5 809 OFFCURVE",
"521 809 CURVE SMOOTH",
"679 805 OFFCURVE",
"759 690 OFFCURVE",
"759 478 CURVE SMOOTH",
"759 249 OFFCURVE",
"681 119 OFFCURVE",
"540.5 119 CURVE SMOOTH"
);
}
);
};
layerId = "FB715283-CFB2-4766-AFCA-39E45F97C573";
name = Regular;
paths = (
{
closed = 1;
nodes = (
"784.5 -10 OFFCURVE",
"915.5 188.5 OFFCURVE",
"915.5 466 CURVE SMOOTH",
"915.5 773 OFFCURVE",
"766 940 OFFCURVE",
"555 940 CURVE SMOOTH",
"444.5 940 OFFCURVE",
"369.5 903 OFFCURVE",
"300 850 CURVE",
"300 1297.5 LINE SMOOTH",
"300 1323 OFFCURVE",
"279.5 1336.5 OFFCURVE",
"229.5 1336.5 CURVE SMOOTH",
"222 1336.5 LINE SMOOTH",
"172 1336.5 OFFCURVE",
"151.5 1323 OFFCURVE",
"151.5 1297.5 CURVE SMOOTH",
"151.5 36 LINE SMOOTH",
"151.5 10 OFFCURVE",
"167 -3 OFFCURVE",
"205 -3 CURVE SMOOTH",
"212 -3 LINE SMOOTH",
"236.5 -3 OFFCURVE",
"253 2 OFFCURVE",
"259 17.5 CURVE",
"273.5 53 OFFCURVE",
"282.5 87 OFFCURVE",
"287.5 123 CURVE",
"375 31.5 OFFCURVE",
"469 -10 OFFCURVE",
"570.5 -10 CURVE SMOOTH"
);
},
{
closed = 1;
nodes = (
"462 119 OFFCURVE",
"374 162 OFFCURVE",
"300 241.5 CURVE",
"300 729 LINE",
"364.5 782.5 OFFCURVE",
"444.5 809 OFFCURVE",
"521 809 CURVE SMOOTH",
"679 805 OFFCURVE",
"759 690 OFFCURVE",
"759 478 CURVE SMOOTH",
"759 249 OFFCURVE",
"681 119 OFFCURVE",
"540.5 119 CURVE SMOOTH"
);
}
);
width = 1011.5;
},
{
layerId = "78047C5B-B34F-4F0E-9C92-9BD1482D9144";
name = Bold;
paths = (
{
closed = 1;
nodes = (
"796.5 -14.5 OFFCURVE",
"937 156.5 OFFCURVE",
"937 466 CURVE SMOOTH",
"937 755.5 OFFCURVE",
"802 944 OFFCURVE",
"562 944 CURVE SMOOTH",
"478 944 OFFCURVE",
"418 915.5 OFFCURVE",
"381 889 CURVE",
"381 1283 LINE SMOOTH",
"381 1321 OFFCURVE",
"348 1340.5 OFFCURVE",
"273.5 1340.5 CURVE SMOOTH",
"224.5 1340.5 LINE SMOOTH",
"149.5 1340.5 OFFCURVE",
"118 1321 OFFCURVE",
"118 1283 CURVE SMOOTH",
"118 53 LINE SMOOTH",
"118 16.5 OFFCURVE",
"149.5 -3 OFFCURVE",
"224.5 -3 CURVE SMOOTH",
"246 -3 LINE SMOOTH",
"302 -3 OFFCURVE",
"338 3 OFFCURVE",
"348 43 CURVE SMOOTH",
"355.5 67.5 OFFCURVE",
"360.5 94 OFFCURVE",
"366.5 119 CURVE",
"407.5 43 OFFCURVE",
"494.5 -14.5 OFFCURVE",
"604 -14.5 CURVE SMOOTH"
);
},
{
closed = 1;
nodes = (
"459 200.5 OFFCURVE",
"412.5 251 OFFCURVE",
"381 306 CURVE",
"381 702.5 LINE",
"408.5 718 OFFCURVE",
"449.5 736.5 OFFCURVE",
"505 736.5 CURVE SMOOTH",
"616.5 736.5 OFFCURVE",
"669.5 643 OFFCURVE",
"669.5 466 CURVE SMOOTH",
"669.5 293 OFFCURVE",
"623.5 200.5 OFFCURVE",
"526.5 200.5 CURVE SMOOTH"
);
}
);
width = 1011.5;
}
);
unicode = 0062;
},
{
glyphname = c;
lastChange = "2015-02-26 04:32:42 +0000";
layers = (
{
anchors = (
{
name = bottom;
position = "{508, 0}";
},
{
name = top;
position = "{492.5, 930}";
}
);
background = {
anchors = (
{
name = bottom;
position = "{508, 0}";
},
{
name = top;
position = "{492.5, 930}";
}
);
paths = (
{
closed = 1;
nodes = (
"684 -10 OFFCURVE",
"809 39 OFFCURVE",
"809 80 CURVE SMOOTH",
"809 104.5 OFFCURVE",
"773 171 OFFCURVE",
"748.5 171 CURVE SMOOTH",
"746.5 171 OFFCURVE",
"739.5 167 OFFCURVE",
"729 164 CURVE",
"697.5 147.5 OFFCURVE",
"627.5 118 OFFCURVE",
"528.5 118 CURVE SMOOTH",
"326.5 118 OFFCURVE",
"253 224.5 OFFCURVE",
"253 473 CURVE SMOOTH",
"253 720 OFFCURVE",
"353.5 812 OFFCURVE",
"510 812 CURVE SMOOTH",
"606 812 OFFCURVE",
"671.5 784.5 OFFCURVE",
"703.5 770 CURVE SMOOTH",
"715 766 OFFCURVE",
"720 763 OFFCURVE",
"724 763 CURVE SMOOTH",
"746.5 763 OFFCURVE",
"780.5 830.5 OFFCURVE",
"780.5 858 CURVE SMOOTH",
"780.5 901 OFFCURVE",
"650 940 OFFCURVE",
"514 940 CURVE SMOOTH",
"309 940 OFFCURVE",
"92 840.5 OFFCURVE",
"92 469 CURVE SMOOTH",
"92 126 OFFCURVE",
"241.5 -10 OFFCURVE",
"529.5 -10 CURVE SMOOTH"
);
}
);
};
layerId = "FB715283-CFB2-4766-AFCA-39E45F97C573";
name = Regular;
paths = (
{
closed = 1;
nodes = (
"684 -10 OFFCURVE",
"809 39 OFFCURVE",
"809 80 CURVE SMOOTH",
"809 104.5 OFFCURVE",
"773 171 OFFCURVE",
"748.5 171 CURVE SMOOTH",
"746.5 171 OFFCURVE",
"739.5 167 OFFCURVE",
"729 164 CURVE",
"697.5 147.5 OFFCURVE",
"627.5 118 OFFCURVE",
"528.5 118 CURVE SMOOTH",
"326.5 118 OFFCURVE",
"253 224.5 OFFCURVE",
"253 473 CURVE SMOOTH",
"253 720 OFFCURVE",
"353.5 812 OFFCURVE",
"510 812 CURVE SMOOTH",
"606 812 OFFCURVE",
"671.5 784.5 OFFCURVE",
"703.5 770 CURVE SMOOTH",
"715 766 OFFCURVE",
"720 763 OFFCURVE",
"724 763 CURVE SMOOTH",
"746.5 763 OFFCURVE",
"780.5 830.5 OFFCURVE",
"780.5 858 CURVE SMOOTH",
"780.5 901 OFFCURVE",
"650 940 OFFCURVE",
"514 940 CURVE SMOOTH",
"309 940 OFFCURVE",
"92 840.5 OFFCURVE",
"92 469 CURVE SMOOTH",
"92 126 OFFCURVE",
"241.5 -10 OFFCURVE",
"529.5 -10 CURVE SMOOTH"
);
}
);
width = 862;
},
{
anchors = (
{
name = bottom;
position = "{519, 0}";
},
{
name = top;
position = "{488.5, 930}";
}
);
layerId = "78047C5B-B34F-4F0E-9C92-9BD1482D9144";
name = Bold;
paths = (
{
closed = 1;
nodes = (
"581.5 -14.5 OFFCURVE",
"833.5 10 OFFCURVE",
"833.5 110.5 CURVE SMOOTH",
"833.5 145.5 OFFCURVE",
"780.5 246 OFFCURVE",
"741.5 246 CURVE SMOOTH",
"734 246 OFFCURVE",
"724 239.5 OFFCURVE",
"709.5 234.5 CURVE SMOOTH",
"676 219 OFFCURVE",
"618.5 193.5 OFFCURVE",
"535.5 193.5 CURVE SMOOTH",
"400.5 193.5 OFFCURVE",
"345 282.5 OFFCURVE",
"345 466 CURVE SMOOTH",
"345 647 OFFCURVE",
"403.5 736.5 OFFCURVE",
"546 736.5 CURVE SMOOTH",
"620.5 736.5 OFFCURVE",
"668.5 712.5 OFFCURVE",
"700.5 697.5 CURVE SMOOTH",
"715 690 OFFCURVE",
"725 684 OFFCURVE",
"732 684 CURVE SMOOTH",
"763 684 OFFCURVE",
"826.5 787.5 OFFCURVE",
"826.5 821 CURVE SMOOTH",
"826.5 903 OFFCURVE",
"657.5 944 OFFCURVE",
"531.5 944 CURVE SMOOTH",
"213 944 OFFCURVE",
"75 775 OFFCURVE",
"75 459 CURVE SMOOTH",
"75 140.5 OFFCURVE",
"219 -14.5 OFFCURVE",
"522 -14.5 CURVE SMOOTH"
);
}
);
width = 862;
}
);
leftKerningGroup = c;
unicode = 0063;
},
{
glyphname = d;
lastChange = "2015-02-26 04:32:42 +0000";
layers = (
{
anchors = (
{
name = bottom;
position = "{499.5, 0}";
},
{
name = caron;
position = "{855, 1244}";
},
{
name = center;
position = "{748.5, 1120.5}";
}
);
background = {
anchors = (
{
name = bottom;
position = "{499.5, 0}";
},
{
name = caron;
position = "{855, 1244}";
},
{
name = center;
position = "{748.5, 1120.5}";
}
);
paths = (
{
closed = 1;
nodes = (
"538.5 -10 OFFCURVE",
"633 31.5 OFFCURVE",
"720 123 CURVE",
"730 72.5 OFFCURVE",
"739.5 -2 OFFCURVE",
"782.5 -2 CURVE SMOOTH",
"805 -2 OFFCURVE",
"878.5 5 OFFCURVE",
"878.5 39 CURVE SMOOTH",
"878.5 48 OFFCURVE",
"857 118 OFFCURVE",
"857 263 CURVE SMOOTH",
"857 1297.5 LINE SMOOTH",
"857 1323 OFFCURVE",
"835.5 1336.5 OFFCURVE",
"785.5 1336.5 CURVE SMOOTH",
"778 1336.5 LINE SMOOTH",
"729 1336.5 OFFCURVE",
"707.5 1323 OFFCURVE",
"707.5 1297.5 CURVE SMOOTH",
"707.5 850 LINE",
"638 903 OFFCURVE",
"563 940 OFFCURVE",
"453.5 940 CURVE SMOOTH",
"241.5 940 OFFCURVE",
"92 773 OFFCURVE",
"92 464 CURVE SMOOTH",
"92 188.5 OFFCURVE",
"224.5 -10 OFFCURVE",
"437 -10 CURVE SMOOTH"
);
},
{
closed = 1;
nodes = (
"326.5 119 OFFCURVE",
"249 249 OFFCURVE",
"249 478 CURVE SMOOTH",
"249 690 OFFCURVE",
"328.5 805 OFFCURVE",
"488.5 809 CURVE SMOOTH",
"569.5 809 OFFCURVE",
"643 782.5 OFFCURVE",
"707.5 729 CURVE",
"707.5 241.5 LINE",
"635 162 OFFCURVE",
"546 119 OFFCURVE",
"468 119 CURVE SMOOTH"
);
}
);
};
hints = (
{
horizontal = 1;
origin = "{0, 29}";
target = "{1, 12}";
},
{
horizontal = 1;
origin = "{0, 23}";
target = "{1, 5}";
},
{
horizontal = 1;
origin = "{0, 16}";
target = down;
type = TopGhost;
},
{
horizontal = 1;
origin = "{0, 5}";
target = up;
type = BottomGhost;
},
{
origin = "{0, 26}";
target = "{1, 2}";
},
{
origin = "{1, 9}";
target = "{0, 11}";
},
{
horizontal = 1;
origin = "{1, 12}";
target = "{1, 5}";
other1 = "{1, 9}";
type = Interpolate;
}
);
layerId = "FB715283-CFB2-4766-AFCA-39E45F97C573";
name = Regular;
paths = (
{
closed = 1;
nodes = (
"538.5 -10 OFFCURVE",
"633 31.5 OFFCURVE",
"720 123 CURVE",
"730 72.5 OFFCURVE",
"739.5 -2 OFFCURVE",
"782.5 -2 CURVE SMOOTH",
"805 -2 OFFCURVE",
"878.5 5 OFFCURVE",
"878.5 39 CURVE SMOOTH",
"878.5 48 OFFCURVE",
"857 118 OFFCURVE",
"857 263 CURVE SMOOTH",
"857 1297.5 LINE SMOOTH",
"857 1323 OFFCURVE",
"835.5 1336.5 OFFCURVE",
"785.5 1336.5 CURVE SMOOTH",
"778 1336.5 LINE SMOOTH",
"729 1336.5 OFFCURVE",
"707.5 1323 OFFCURVE",
"707.5 1297.5 CURVE SMOOTH",
"707.5 850 LINE",
"638 903 OFFCURVE",
"563 940 OFFCURVE",
"453.5 940 CURVE SMOOTH",
"241.5 940 OFFCURVE",
"92 773 OFFCURVE",
"92 464 CURVE SMOOTH",
"92 188.5 OFFCURVE",
"224.5 -10 OFFCURVE",
"437 -10 CURVE SMOOTH"
);
},
{
closed = 1;
nodes = (
"326.5 119 OFFCURVE",
"249 249 OFFCURVE",
"249 478 CURVE SMOOTH",
"249 690 OFFCURVE",
"328.5 805 OFFCURVE",
"488.5 809 CURVE SMOOTH",
"569.5 809 OFFCURVE",
"643 782.5 OFFCURVE",
"707.5 729 CURVE",
"707.5 241.5 LINE",
"635 162 OFFCURVE",
"546 119 OFFCURVE",
"468 119 CURVE SMOOTH"
);
}
);
width = 1004.5;
},
{
anchors = (
{
name = bottom;
position = "{517, 0}";
},
{
name = caron;
position = "{886, 1244}";
},
{
name = center;
position = "{741.5, 1120.5}";
}
);
hints = (
{
horizontal = 1;
origin = "{0, 5}";
target = up;
type = BottomGhost;
},
{
horizontal = 1;
origin = "{0, 23}";
target = "{1, 5}";
},
{
horizontal = 1;
origin = "{0, 16}";
target = down;
type = TopGhost;
},
{
horizontal = 1;
origin = "{0, 29}";
target = "{1, 12}";
},
{
origin = "{0, 26}";
target = "{1, 2}";
},
{
origin = "{1, 9}";
target = "{0, 11}";
},
{
horizontal = 1;
origin = "{1, 5}";
target = "{1, 12}";
other1 = "{1, 9}";
type = Interpolate;
}
);
layerId = "78047C5B-B34F-4F0E-9C92-9BD1482D9144";
name = Bold;
paths = (
{
closed = 1;
nodes = (
"517 -14.5 OFFCURVE",
"604 43 OFFCURVE",
"645 119 CURVE",
"656.5 72.5 OFFCURVE",
"659.5 -2 OFFCURVE",
"717 -2 CURVE SMOOTH",
"761 -2 OFFCURVE",
"915.5 12.5 OFFCURVE",
"915.5 55.5 CURVE SMOOTH",
"915.5 92 OFFCURVE",
"894 130 OFFCURVE",
"894 313.5 CURVE SMOOTH",
"894 1283 LINE SMOOTH",
"894 1321 OFFCURVE",
"862 1340.5 OFFCURVE",
"787.5 1340.5 CURVE SMOOTH",
"737.5 1340.5 LINE SMOOTH",
"663.5 1340.5 OFFCURVE",
"631 1321 OFFCURVE",
"631 1283 CURVE SMOOTH",
"631 889 LINE",
"594 915.5 OFFCURVE",
"533.5 944 OFFCURVE",
"449.5 944 CURVE SMOOTH",
"210 944 OFFCURVE",
"75 755.5 OFFCURVE",
"75 466 CURVE SMOOTH",
"75 156.5 OFFCURVE",
"215 -14.5 OFFCURVE",
"407.5 -14.5 CURVE SMOOTH"
);
},
{
closed = 1;
nodes = (
"387 200.5 OFFCURVE",
"341 293 OFFCURVE",
"341 466 CURVE SMOOTH",
"341 643 OFFCURVE",
"394 736.5 OFFCURVE",
"507 736.5 CURVE SMOOTH",
"562 736.5 OFFCURVE",
"603 718 OFFCURVE",
"631 702.5 CURVE",
"631 306 LINE",
"599 251 OFFCURVE",
"553 200.5 OFFCURVE",
"485.5 200.5 CURVE SMOOTH"
);
}
);
width = 1004.5;
}
);
leftKerningGroup = d;
unicode = 0064;
},
{
glyphname = eth;
lastChange = "2015-02-26 04:32:42 +0000";
layers = (
{
background = {
paths = (
{
closed = 1;
nodes = (
"775 -10 OFFCURVE",
"913.5 152.5 OFFCURVE",
"913.5 461 CURVE SMOOTH",
"913.5 691 OFFCURVE",
"830.5 912.5 OFFCURVE",
"710.5 1099 CURVE",
"818 1113 LINE SMOOTH",
"835.5 1114 OFFCURVE",
"845 1123.5 OFFCURVE",
"845 1135.5 CURVE SMOOTH",
"845 1145 OFFCURVE",
"833.5 1193 OFFCURVE",
"799.5 1193 CURVE SMOOTH",
"797.5 1193 OFFCURVE",
"796.5 1193 OFFCURVE",
"661.5 1173.5 CURVE",
"638 1205 OFFCURVE",
"620.5 1227 OFFCURVE",
"603 1248.5 CURVE SMOOTH",
"592 1260.5 OFFCURVE",
"577.5 1270 OFFCURVE",
"556 1270 CURVE SMOOTH",
"536.5 1270 OFFCURVE",
"521 1267.5 OFFCURVE",
"508 1265.5 CURVE SMOOTH",
"488.5 1262.5 OFFCURVE",
"480.5 1253.5 OFFCURVE",
"480.5 1241 CURVE SMOOTH",
"480.5 1222.5 OFFCURVE",
"499.5 1195 OFFCURVE",
"526.5 1155 CURVE",
"398.5 1137.5 LINE SMOOTH",
"381 1134.5 OFFCURVE",
"371.5 1127.5 OFFCURVE",
"371.5 1114 CURVE SMOOTH",
"371.5 1089.5 OFFCURVE",
"393 1058 OFFCURVE",
"418 1058 CURVE SMOOTH",
"421 1058 OFFCURVE",
"425 1060 OFFCURVE",
"570.5 1079.5 CURVE",
"597 1033 OFFCURVE",
"625.5 978 OFFCURVE",
"652.5 919.5 CURVE",
"609.5 933 OFFCURVE",
"562 940 OFFCURVE",
"510 940 CURVE SMOOTH",
"246 940 OFFCURVE",
"97.5 768 OFFCURVE",
"97.5 461 CURVE SMOOTH",
"97.5 154.5 OFFCURVE",
"241.5 -10 OFFCURVE",
"510 -10 CURVE SMOOTH"
);
},
{
closed = 1;
nodes = (
"331 118 OFFCURVE",
"251 227.5 OFFCURVE",
"251 464 CURVE SMOOTH",
"251 702.5 OFFCURVE",
"333 812 OFFCURVE",
"505 812 CURVE SMOOTH",
"679 812 OFFCURVE",
"759 700.5 OFFCURVE",
"759 464 CURVE SMOOTH",
"759 227.5 OFFCURVE",
"679 118 OFFCURVE",
"505 118 CURVE SMOOTH"
);
}
);
};
layerId = "FB715283-CFB2-4766-AFCA-39E45F97C573";
name = Regular;
paths = (
{
closed = 1;
nodes = (
"775 -10 OFFCURVE",
"913.5 152.5 OFFCURVE",
"913.5 461 CURVE SMOOTH",
"913.5 691 OFFCURVE",
"830.5 912.5 OFFCURVE",
"710.5 1099 CURVE",
"818 1113 LINE SMOOTH",
"835.5 1114 OFFCURVE",
"845 1123.5 OFFCURVE",
"845 1135.5 CURVE SMOOTH",
"845 1145 OFFCURVE",
"833.5 1193 OFFCURVE",
"799.5 1193 CURVE SMOOTH",
"797.5 1193 OFFCURVE",
"796.5 1193 OFFCURVE",
"661.5 1173.5 CURVE",
"638 1205 OFFCURVE",
"620.5 1227 OFFCURVE",
"603 1248.5 CURVE SMOOTH",
"592 1260.5 OFFCURVE",
"577.5 1270 OFFCURVE",
"556 1270 CURVE SMOOTH",
"536.5 1270 OFFCURVE",
"521 1267.5 OFFCURVE",
"508 1265.5 CURVE SMOOTH",
"488.5 1262.5 OFFCURVE",
"480.5 1253.5 OFFCURVE",
"480.5 1241 CURVE SMOOTH",
"480.5 1222.5 OFFCURVE",
"499.5 1195 OFFCURVE",
"526.5 1155 CURVE",
"398.5 1137.5 LINE SMOOTH",
"381 1134.5 OFFCURVE",
"371.5 1127.5 OFFCURVE",
"371.5 1114 CURVE SMOOTH",
"371.5 1089.5 OFFCURVE",
"393 1058 OFFCURVE",
"418 1058 CURVE SMOOTH",
"421 1058 OFFCURVE",
"425 1060 OFFCURVE",
"570.5 1079.5 CURVE",
"597 1033 OFFCURVE",
"625.5 978 OFFCURVE",
"652.5 919.5 CURVE",
"609.5 933 OFFCURVE",
"562 940 OFFCURVE",
"510 940 CURVE SMOOTH",
"246 940 OFFCURVE",
"97.5 768 OFFCURVE",
"97.5 461 CURVE SMOOTH",
"97.5 154.5 OFFCURVE",
"241.5 -10 OFFCURVE",
"510 -10 CURVE SMOOTH"
);
},
{
closed = 1;
nodes = (
"331 118 OFFCURVE",
"251 227.5 OFFCURVE",
"251 464 CURVE SMOOTH",
"251 702.5 OFFCURVE",
"333 812 OFFCURVE",
"505 812 CURVE SMOOTH",
"679 812 OFFCURVE",
"759 700.5 OFFCURVE",
"759 464 CURVE SMOOTH",
"759 227.5 OFFCURVE",
"679 118 OFFCURVE",
"505 118 CURVE SMOOTH"
);
}
);
width = 1011.5;
},
{
layerId = "78047C5B-B34F-4F0E-9C92-9BD1482D9144";
name = Bold;
paths = (
{
closed = 1;
nodes = (
"789.5 -14.5 OFFCURVE",
"937 156.5 OFFCURVE",
"937 466 CURVE SMOOTH",
"937 705.5 OFFCURVE",
"848 940 OFFCURVE",
"759 1077 CURVE",
"840.5 1087.5 LINE SMOOTH",
"865.5 1091.5 OFFCURVE",
"878.5 1101 OFFCURVE",
"878.5 1116 CURVE SMOOTH",
"878.5 1152 OFFCURVE",
"843 1191 OFFCURVE",
"812 1191 CURVE SMOOTH",
"811 1191 OFFCURVE",
"809 1191 OFFCURVE",
"691 1174.5 CURVE",
"666.5 1207.5 OFFCURVE",
"645 1234 OFFCURVE",
"620.5 1251.5 CURVE SMOOTH",
"601 1263.5 OFFCURVE",
"579.5 1271 OFFCURVE",
"553 1271 CURVE",
"515 1267.5 OFFCURVE",
"480.5 1262.5 OFFCURVE",
"442.5 1258.5 CURVE SMOOTH",
"420 1255.5 OFFCURVE",
"408.5 1248.5 OFFCURVE",
"408.5 1237 CURVE SMOOTH",
"408.5 1222.5 OFFCURVE",
"453.5 1176.5 OFFCURVE",
"476 1147 CURVE",
"400.5 1135.5 LINE SMOOTH",
"374 1132.5 OFFCURVE",
"362.5 1123.5 OFFCURVE",
"362.5 1108 CURVE SMOOTH",
"362.5 1070 OFFCURVE",
"396.5 1033 OFFCURVE",
"432 1033 CURVE SMOOTH",
"437 1033 OFFCURVE",
"442.5 1033 OFFCURVE",
"540.5 1047.5 CURVE",
"560 1014 OFFCURVE",
"579.5 978 OFFCURVE",
"597 937 CURVE",
"569.5 940 OFFCURVE",
"538.5 944 OFFCURVE",
"507 944 CURVE SMOOTH",
"224.5 944 OFFCURVE",
"75 775 OFFCURVE",
"75 466 CURVE SMOOTH",
"75 156.5 OFFCURVE",
"224.5 -14.5 OFFCURVE",
"507 -14.5 CURVE SMOOTH"
);
},
{
closed = 1;
nodes = (
"393 193.5 OFFCURVE",
"341 287.5 OFFCURVE",
"341 466 CURVE SMOOTH",
"341 643 OFFCURVE",
"393 736.5 OFFCURVE",
"507 736.5 CURVE SMOOTH",
"620.5 736.5 OFFCURVE",
"669.5 643 OFFCURVE",
"669.5 466 CURVE SMOOTH",
"669.5 287.5 OFFCURVE",
"620.5 193.5 OFFCURVE",
"507 193.5 CURVE SMOOTH"
);
}
);
width = 1011.5;
}
);
unicode = 00F0;
},
{
glyphname = e;
lastChange = "2015-02-26 04:32:42 +0000";
layers = (
{
anchors = (
{
name = bottom;
position = "{480.5, 0}";
},
{
name = ogonek;
position = "{770, 17.5}";
},
{
name = top;
position = "{480.5, 930}";
}
);
background = {
anchors = (
{
name = bottom;
position = "{480.5, 0}";
},
{
name = ogonek;
position = "{770, 17.5}";
},
{
name = top;
position = "{480.5, 930}";
}
);
paths = (
{
closed = 1;
nodes = (
"712.5 -10 OFFCURVE",
"853 60.5 OFFCURVE",
"853 103.5 CURVE SMOOTH",
"853 123 OFFCURVE",
"816 191.5 OFFCURVE",
"791.5 191.5 CURVE SMOOTH",
"773 191.5 OFFCURVE",
"686 118 OFFCURVE",
"531.5 118 CURVE SMOOTH",
"355.5 118 OFFCURVE",
"272.5 206 OFFCURVE",
"258 403.5 CURVE",
"819 403.5 LINE SMOOTH",
"840.5 403.5 OFFCURVE",
"878.5 454.5 OFFCURVE",
"878.5 476 CURVE SMOOTH",
"878.5 778 OFFCURVE",
"755.5 940 OFFCURVE",
"512 940 CURVE SMOOTH",
"239.5 940 OFFCURVE",
"97.5 773 OFFCURVE",
"97.5 459 CURVE SMOOTH",
"97.5 140.5 OFFCURVE",
"238.5 -10 OFFCURVE",
"533.5 -10 CURVE SMOOTH"
);
},
{
closed = 1;
nodes = (
"270.5 718 OFFCURVE",
"352.5 812 OFFCURVE",
"507 812 CURVE SMOOTH",
"649 812 OFFCURVE",
"720 718 OFFCURVE",
"720 531.5 CURVE",
"258 531.5 LINE"
);
}
);
};
layerId = "FB715283-CFB2-4766-AFCA-39E45F97C573";
name = Regular;
paths = (
{
closed = 1;
nodes = (
"712.5 -10 OFFCURVE",
"853 60.5 OFFCURVE",
"853 103.5 CURVE SMOOTH",
"853 123 OFFCURVE",
"816 191.5 OFFCURVE",
"791.5 191.5 CURVE SMOOTH",
"773 191.5 OFFCURVE",
"686 118 OFFCURVE",
"531.5 118 CURVE SMOOTH",
"355.5 118 OFFCURVE",
"272.5 206 OFFCURVE",
"258 403.5 CURVE",
"819 403.5 LINE SMOOTH",
"840.5 403.5 OFFCURVE",
"878.5 454.5 OFFCURVE",
"878.5 476 CURVE SMOOTH",
"878.5 778 OFFCURVE",
"755.5 940 OFFCURVE",
"512 940 CURVE SMOOTH",
"239.5 940 OFFCURVE",
"97.5 773 OFFCURVE",
"97.5 459 CURVE SMOOTH",
"97.5 140.5 OFFCURVE",
"238.5 -10 OFFCURVE",
"533.5 -10 CURVE SMOOTH"
);
},
{
closed = 1;
nodes = (
"270.5 718 OFFCURVE",
"352.5 812 OFFCURVE",
"507 812 CURVE SMOOTH",
"649 812 OFFCURVE",
"720 718 OFFCURVE",
"720 531.5 CURVE",
"258 531.5 LINE"
);
}
);
width = 958.5;
},
{
anchors = (
{
name = bottom;
position = "{480.5, 0}";
},
{
name = ogonek;
position = "{777, 24.5}";
},
{
name = top;
position = "{480.5, 930}";
}
);
layerId = "78047C5B-B34F-4F0E-9C92-9BD1482D9144";
name = Bold;
paths = (
{
closed = 1;
nodes = (
"638 -14.5 OFFCURVE",
"858 24.5 OFFCURVE",
"858 113.5 CURVE SMOOTH",
"858 149.5 OFFCURVE",
"805 249 OFFCURVE",
"766 249 CURVE SMOOTH",
"741.5 249 OFFCURVE",
"663.5 193.5 OFFCURVE",
"551 193.5 CURVE SMOOTH",
"435 193.5 OFFCURVE",
"359.5 238.5 OFFCURVE",
"347 381 CURVE",
"799.5 381 LINE SMOOTH",
"823.5 381 OFFCURVE",
"891 454.5 OFFCURVE",
"891 485.5 CURVE SMOOTH",
"891 732 OFFCURVE",
"785.5 944 OFFCURVE",
"507 944 CURVE SMOOTH",
"253 944 OFFCURVE",
"75 809 OFFCURVE",
"75 459 CURVE SMOOTH",
"75 172 OFFCURVE",
"217 -14.5 OFFCURVE",
"538.5 -14.5 CURVE SMOOTH"
);
},
{
closed = 1;
nodes = (
"367.5 693 OFFCURVE",
"432 736.5 OFFCURVE",
"507 736.5 CURVE SMOOTH",
"596 736.5 OFFCURVE",
"635 659.5 OFFCURVE",
"635 556 CURVE",
"347 556 LINE"
);
}
);
width = 958.5;
}
);
leftKerningGroup = e;
unicode = 0065;
},
{
glyphname = f;
lastChange = "2015-02-26 04:32:42 +0000";
layers = (
{
background = {
paths = (
{
closed = 1;
nodes = (
"270.5 -3 LINE SMOOTH",
"319.5 -3 OFFCURVE",
"341 10 OFFCURVE",
"341 36 CURVE SMOOTH",
"341 802 LINE",
"495.5 802 LINE SMOOTH",
"521 802 OFFCURVE",
"531.5 818 OFFCURVE",
"531.5 855 CURVE SMOOTH",
"531.5 876.5 LINE SMOOTH",
"531.5 913.5 OFFCURVE",
"521 930 OFFCURVE",
"495.5 930 CURVE SMOOTH",
"341 930 LINE",
"341 1084.5 LINE SMOOTH",
"341 1202 OFFCURVE",
"386 1215.5 OFFCURVE",
"437 1215.5 CURVE SMOOTH",
"488.5 1215.5 OFFCURVE",
"497.5 1207.5 OFFCURVE",
"514 1207.5 CURVE SMOOTH",
"538.5 1207.5 OFFCURVE",
"551 1276 OFFCURVE",
"551 1290 CURVE SMOOTH",
"551 1338.5 OFFCURVE",
"469 1343.5 OFFCURVE",
"421 1343.5 CURVE SMOOTH",
"333 1343.5 OFFCURVE",
"191.5 1309.5 OFFCURVE",
"191.5 1099 CURVE SMOOTH",
"191.5 930 LINE",
"121 930 LINE SMOOTH",
"96.5 930 OFFCURVE",
"85 913.5 OFFCURVE",
"85 876.5 CURVE SMOOTH",
"85 855 LINE SMOOTH",
"85 818 OFFCURVE",
"96.5 802 OFFCURVE",
"121 802 CURVE SMOOTH",
"191.5 802 LINE",
"191.5 36 LINE SMOOTH",
"191.5 10 OFFCURVE",
"213 -3 OFFCURVE",
"263 -3 CURVE SMOOTH"
);
}
);
};
layerId = "FB715283-CFB2-4766-AFCA-39E45F97C573";
name = Regular;
paths = (
{
closed = 1;
nodes = (
"270.5 -3 LINE SMOOTH",
"319.5 -3 OFFCURVE",
"341 10 OFFCURVE",
"341 36 CURVE SMOOTH",
"341 802 LINE",
"495.5 802 LINE SMOOTH",
"521 802 OFFCURVE",
"531.5 818 OFFCURVE",
"531.5 855 CURVE SMOOTH",
"531.5 876.5 LINE SMOOTH",
"531.5 913.5 OFFCURVE",
"521 930 OFFCURVE",
"495.5 930 CURVE SMOOTH",
"341 930 LINE",
"341 1084.5 LINE SMOOTH",
"341 1202 OFFCURVE",
"386 1215.5 OFFCURVE",
"437 1215.5 CURVE SMOOTH",
"488.5 1215.5 OFFCURVE",
"497.5 1207.5 OFFCURVE",
"514 1207.5 CURVE SMOOTH",
"538.5 1207.5 OFFCURVE",
"551 1276 OFFCURVE",
"551 1290 CURVE SMOOTH",
"551 1338.5 OFFCURVE",
"469 1343.5 OFFCURVE",
"421 1343.5 CURVE SMOOTH",
"333 1343.5 OFFCURVE",
"191.5 1309.5 OFFCURVE",
"191.5 1099 CURVE SMOOTH",
"191.5 930 LINE",
"121 930 LINE SMOOTH",
"96.5 930 OFFCURVE",
"85 913.5 OFFCURVE",
"85 876.5 CURVE SMOOTH",
"85 855 LINE SMOOTH",
"85 818 OFFCURVE",
"96.5 802 OFFCURVE",
"121 802 CURVE SMOOTH",
"191.5 802 LINE",
"191.5 36 LINE SMOOTH",
"191.5 10 OFFCURVE",
"213 -3 OFFCURVE",
"263 -3 CURVE SMOOTH"
);
}
);
width = 577.5;
},
{
layerId = "78047C5B-B34F-4F0E-9C92-9BD1482D9144";
name = Bold;
paths = (
{
closed = 1;
nodes = (
"297 -3 LINE SMOOTH",
"371.5 -3 OFFCURVE",
"403.5 16.5 OFFCURVE",
"403.5 53 CURVE SMOOTH",
"403.5 722 LINE",
"492.5 722 LINE SMOOTH",
"529.5 722 OFFCURVE",
"546 748.5 OFFCURVE",
"546 811 CURVE SMOOTH",
"546 840.5 LINE SMOOTH",
"546 903 OFFCURVE",
"529.5 930 OFFCURVE",
"492.5 930 CURVE SMOOTH",
"403.5 930 LINE",
"403.5 1067 LINE SMOOTH",
"403.5 1120.5 OFFCURVE",
"421 1143 OFFCURVE",
"468 1143 CURVE SMOOTH",
"485.5 1143 OFFCURVE",
"510 1135.5 OFFCURVE",
"522 1135.5 CURVE SMOOTH",
"558 1135.5 OFFCURVE",
"577.5 1249.5 OFFCURVE",
"577.5 1263.5 CURVE SMOOTH",
"577.5 1345.5 OFFCURVE",
"456.5 1350.5 OFFCURVE",
"400.5 1350.5 CURVE SMOOTH",
"232.5 1350.5 OFFCURVE",
"140.5 1260.5 OFFCURVE",
"140.5 1063 CURVE SMOOTH",
"140.5 930 LINE",
"108.5 930 LINE SMOOTH",
"70.5 930 OFFCURVE",
"55.5 903 OFFCURVE",
"55.5 840.5 CURVE SMOOTH",
"55.5 811 LINE SMOOTH",
"55.5 748.5 OFFCURVE",
"70.5 722 OFFCURVE",
"108.5 722 CURVE SMOOTH",
"140.5 722 LINE",
"140.5 53 LINE SMOOTH",
"140.5 16.5 OFFCURVE",
"172 -3 OFFCURVE",
"247 -3 CURVE SMOOTH"
);
}
);
width = 577.5;
}
);
unicode = 0066;
},
{
glyphname = g;
lastChange = "2015-02-26 04:32:42 +0000";
layers = (
{
anchors = (
{
name = top;
position = "{485.5, 930}";
}
);
background = {
anchors = (
{
name = top;
position = "{485.5, 930}";
}
);
paths = (
{
closed = 1;
nodes = (
"717 -377 OFFCURVE",
"855 -279.5 OFFCURVE",
"855 -108.5 CURVE SMOOTH",
"855 55.5 OFFCURVE",
"722 87 OFFCURVE",
"587 104.5 CURVE SMOOTH",
"444.5 123 OFFCURVE",
"300 123 OFFCURVE",
"300 236.5 CURVE SMOOTH",
"300 325.5 OFFCURVE",
"362.5 355.5 OFFCURVE",
"469 359.5 CURVE SMOOTH",
"698.5 359.5 OFFCURVE",
"819 487.5 OFFCURVE",
"819 650 CURVE SMOOTH",
"819 705.5 OFFCURVE",
"804 761 OFFCURVE",
"773 804 CURVE",
"775 807 LINE",
"809 804 OFFCURVE",
"843 802 OFFCURVE",
"899 802 CURVE SMOOTH",
"924.5 802 OFFCURVE",
"935 818 OFFCURVE",
"935 855 CURVE SMOOTH",
"935 876.5 LINE SMOOTH",
"935 913.5 OFFCURVE",
"924.5 930 OFFCURVE",
"899 930 CURVE SMOOTH",
"575.5 930 LINE",
"543.5 937 OFFCURVE",
"508 940 OFFCURVE",
"471 940 CURVE SMOOTH",
"241.5 940 OFFCURVE",
"121 812 OFFCURVE",
"121 650 CURVE SMOOTH",
"121 543.5 OFFCURVE",
"172 449.5 OFFCURVE",
"273.5 400.5 CURVE",
"210 355.5 OFFCURVE",
"174 295 OFFCURVE",
"174 215 CURVE SMOOTH",
"174 147.5 OFFCURVE",
"203 103.5 OFFCURVE",
"246 69.5 CURVE",
"243.5 65.5 LINE",
"152.5 28.5 OFFCURVE",
"82 -48 OFFCURVE",
"82 -156.5 CURVE SMOOTH",
"82 -316.5 OFFCURVE",
"236.5 -377 OFFCURVE",
"449.5 -377 CURVE SMOOTH"
);
},
{
closed = 1;
nodes = (
"355.5 -256 OFFCURVE",
"215 -236.5 OFFCURVE",
"215 -128 CURVE SMOOTH",
"215 -53 OFFCURVE",
"268.5 -10 OFFCURVE",
"333 16.5 CURVE",
"466 -24.5 OFFCURVE",
"712.5 9 OFFCURVE",
"712.5 -125 CURVE SMOOTH",
"712.5 -213 OFFCURVE",
"635 -256 OFFCURVE",
"469 -256 CURVE SMOOTH"
);
},
{
closed = 1;
nodes = (
"352.5 478 OFFCURVE",
"258 519 OFFCURVE",
"258 649 CURVE SMOOTH",
"258 780.5 OFFCURVE",
"352.5 821 OFFCURVE",
"469 821 CURVE SMOOTH",
"587 821 OFFCURVE",
"683 780.5 OFFCURVE",
"683 649 CURVE SMOOTH",
"683 519 OFFCURVE",
"587 478 OFFCURVE",
"469 478 CURVE SMOOTH"
);
}
);
};
layerId = "FB715283-CFB2-4766-AFCA-39E45F97C573";
name = Regular;
paths = (
{
closed = 1;
nodes = (
"717 -377 OFFCURVE",
"855 -279.5 OFFCURVE",
"855 -108.5 CURVE SMOOTH",
"855 55.5 OFFCURVE",
"722 87 OFFCURVE",
"587 104.5 CURVE SMOOTH",
"444.5 123 OFFCURVE",
"300 123 OFFCURVE",
"300 236.5 CURVE SMOOTH",
"300 325.5 OFFCURVE",
"362.5 355.5 OFFCURVE",
"469 359.5 CURVE SMOOTH",
"698.5 359.5 OFFCURVE",
"819 487.5 OFFCURVE",
"819 650 CURVE SMOOTH",
"819 705.5 OFFCURVE",
"804 761 OFFCURVE",
"773 804 CURVE",
"775 807 LINE",
"809 804 OFFCURVE",
"843 802 OFFCURVE",
"899 802 CURVE SMOOTH",
"924.5 802 OFFCURVE",
"935 818 OFFCURVE",
"935 855 CURVE SMOOTH",
"935 876.5 LINE SMOOTH",
"935 913.5 OFFCURVE",
"924.5 930 OFFCURVE",
"899 930 CURVE SMOOTH",
"575.5 930 LINE",
"543.5 937 OFFCURVE",
"508 940 OFFCURVE",
"471 940 CURVE SMOOTH",
"241.5 940 OFFCURVE",
"121 812 OFFCURVE",
"121 650 CURVE SMOOTH",
"121 543.5 OFFCURVE",
"172 449.5 OFFCURVE",
"273.5 400.5 CURVE",
"210 355.5 OFFCURVE",
"174 295 OFFCURVE",
"174 215 CURVE SMOOTH",
"174 147.5 OFFCURVE",
"203 103.5 OFFCURVE",
"246 69.5 CURVE",
"243.5 65.5 LINE",
"152.5 28.5 OFFCURVE",
"82 -48 OFFCURVE",
"82 -156.5 CURVE SMOOTH",
"82 -316.5 OFFCURVE",
"236.5 -377 OFFCURVE",
"449.5 -377 CURVE SMOOTH"
);
},
{
closed = 1;
nodes = (
"355.5 -256 OFFCURVE",
"215 -236.5 OFFCURVE",
"215 -128 CURVE SMOOTH",
"215 -53 OFFCURVE",
"268.5 -10 OFFCURVE",
"333 16.5 CURVE",
"466 -24.5 OFFCURVE",
"712.5 9 OFFCURVE",
"712.5 -125 CURVE SMOOTH",
"712.5 -213 OFFCURVE",
"635 -256 OFFCURVE",
"469 -256 CURVE SMOOTH"
);
},
{
closed = 1;
nodes = (
"352.5 478 OFFCURVE",
"258 519 OFFCURVE",
"258 649 CURVE SMOOTH",
"258 780.5 OFFCURVE",
"352.5 821 OFFCURVE",
"469 821 CURVE SMOOTH",
"587 821 OFFCURVE",
"683 780.5 OFFCURVE",
"683 649 CURVE SMOOTH",
"683 519 OFFCURVE",
"587 478 OFFCURVE",
"469 478 CURVE SMOOTH"
);
}
);
width = 971;
},
{
anchors = (
{
name = top;
position = "{485.5, 930}";
}
);
layerId = "78047C5B-B34F-4F0E-9C92-9BD1482D9144";
name = Bold;
paths = (
{
closed = 1;
nodes = (
"741.5 -377 OFFCURVE",
"924.5 -258 OFFCURVE",
"924.5 -75 CURVE SMOOTH",
"924.5 103.5 OFFCURVE",
"785.5 156.5 OFFCURVE",
"649 183.5 CURVE SMOOTH",
"515 206 OFFCURVE",
"386 206 OFFCURVE",
"386 265 CURVE SMOOTH",
"386 297 OFFCURVE",
"421 313.5 OFFCURVE",
"494.5 313.5 CURVE SMOOTH",
"697.5 313.5 OFFCURVE",
"857 405.5 OFFCURVE",
"857 627.5 CURVE SMOOTH",
"857 661.5 OFFCURVE",
"845 705.5 OFFCURVE",
"828.5 727 CURVE",
"831.5 734 LINE",
"848 730 OFFCURVE",
"896 727 OFFCURVE",
"908.5 727 CURVE SMOOTH",
"937 727 OFFCURVE",
"951.5 751.5 OFFCURVE",
"951.5 811 CURVE SMOOTH",
"951.5 840.5 LINE SMOOTH",
"951.5 903 OFFCURVE",
"935 930 OFFCURVE",
"898 930 CURVE SMOOTH",
"611.5 930 LINE",
"569.5 939 OFFCURVE",
"522 944 OFFCURVE",
"475 944 CURVE SMOOTH",
"263 944 OFFCURVE",
"92 857 OFFCURVE",
"92 627.5 CURVE SMOOTH",
"92 495.5 OFFCURVE",
"149.5 410.5 OFFCURVE",
"236.5 362.5 CURVE",
"169 326.5 OFFCURVE",
"130 275.5 OFFCURVE",
"130 215 CURVE SMOOTH",
"130 156.5 OFFCURVE",
"156.5 106.5 OFFCURVE",
"206 82 CURVE",
"205 75 LINE",
"99.5 34 OFFCURVE",
"43 -39 OFFCURVE",
"43 -131 CURVE SMOOTH",
"43 -293 OFFCURVE",
"179 -377 OFFCURVE",
"466 -377 CURVE SMOOTH"
);
},
{
closed = 1;
nodes = (
"353.5 -169 OFFCURVE",
"299 -137 OFFCURVE",
"299 -89 CURVE SMOOTH",
"299 -53 OFFCURVE",
"333 -14.5 OFFCURVE",
"394 7 CURVE",
"597 -7 OFFCURVE",
"668.5 -26.5 OFFCURVE",
"668.5 -82 CURVE SMOOTH",
"668.5 -135 OFFCURVE",
"608.5 -169 OFFCURVE",
"485.5 -169 CURVE SMOOTH"
);
},
{
closed = 1;
nodes = (
"401.5 503 OFFCURVE",
"341 538.5 OFFCURVE",
"341 627.5 CURVE SMOOTH",
"341 717 OFFCURVE",
"401.5 753.5 OFFCURVE",
"475 753.5 CURVE SMOOTH",
"548 753.5 OFFCURVE",
"608.5 717 OFFCURVE",
"608.5 627.5 CURVE SMOOTH",
"608.5 538.5 OFFCURVE",
"548 503 OFFCURVE",
"475 503 CURVE SMOOTH"
);
}
);
width = 971;
}
);
unicode = 0067;
},
{
glyphname = h;
lastChange = "2015-02-26 04:32:42 +0000";
layers = (
{
anchors = (
{
name = bottom;
position = "{502, 0}";
},
{
name = center;
position = "{306, 1120.5}";
},
{
name = top;
position = "{238.5, 1297.5}";
}
);
background = {
anchors = (
{
name = bottom;
position = "{502, 0}";
},
{
name = center;
position = "{306, 1120.5}";
},
{
name = top;
position = "{238.5, 1297.5}";
}
);
paths = (
{
closed = 1;
nodes = (
"241.5 -3 LINE SMOOTH",
"292 -3 OFFCURVE",
"313.5 10 OFFCURVE",
"313.5 36 CURVE SMOOTH",
"313.5 686 LINE",
"313.5 686 OFFCURVE",
"403.5 811 OFFCURVE",
"536.5 811 CURVE SMOOTH",
"657.5 811 OFFCURVE",
"718 743.5 OFFCURVE",
"718 638 CURVE SMOOTH",
"718 36 LINE SMOOTH",
"718 10 OFFCURVE",
"739.5 -3 OFFCURVE",
"789.5 -3 CURVE SMOOTH",
"796.5 -3 LINE SMOOTH",
"846 -3 OFFCURVE",
"867.5 10 OFFCURVE",
"867.5 36 CURVE SMOOTH",
"867.5 652.5 LINE SMOOTH",
"867.5 894 OFFCURVE",
"698.5 940 OFFCURVE",
"584.5 940 CURVE SMOOTH",
"471 940 OFFCURVE",
"375 879.5 OFFCURVE",
"313.5 818 CURVE",
"313.5 1297.5 LINE SMOOTH",
"313.5 1323 OFFCURVE",
"292 1336.5 OFFCURVE",
"241.5 1336.5 CURVE SMOOTH",
"234.5 1336.5 LINE SMOOTH",
"185.5 1336.5 OFFCURVE",
"164 1323 OFFCURVE",
"164 1297.5 CURVE SMOOTH",
"164 36 LINE SMOOTH",
"164 10 OFFCURVE",
"185.5 -3 OFFCURVE",
"234.5 -3 CURVE SMOOTH"
);
}
);
};
layerId = "FB715283-CFB2-4766-AFCA-39E45F97C573";
name = Regular;
paths = (
{
closed = 1;
nodes = (
"241.5 -3 LINE SMOOTH",
"292 -3 OFFCURVE",
"313.5 10 OFFCURVE",
"313.5 36 CURVE SMOOTH",
"313.5 686 LINE",
"313.5 686 OFFCURVE",
"403.5 811 OFFCURVE",
"536.5 811 CURVE SMOOTH",
"657.5 811 OFFCURVE",
"718 743.5 OFFCURVE",
"718 638 CURVE SMOOTH",
"718 36 LINE SMOOTH",
"718 10 OFFCURVE",
"739.5 -3 OFFCURVE",
"789.5 -3 CURVE SMOOTH",
"796.5 -3 LINE SMOOTH",
"846 -3 OFFCURVE",
"867.5 10 OFFCURVE",
"867.5 36 CURVE SMOOTH",
"867.5 652.5 LINE SMOOTH",
"867.5 894 OFFCURVE",
"698.5 940 OFFCURVE",
"584.5 940 CURVE SMOOTH",
"471 940 OFFCURVE",
"375 879.5 OFFCURVE",
"313.5 818 CURVE",
"313.5 1297.5 LINE SMOOTH",
"313.5 1323 OFFCURVE",
"292 1336.5 OFFCURVE",
"241.5 1336.5 CURVE SMOOTH",
"234.5 1336.5 LINE SMOOTH",
"185.5 1336.5 OFFCURVE",
"164 1323 OFFCURVE",
"164 1297.5 CURVE SMOOTH",
"164 36 LINE SMOOTH",
"164 10 OFFCURVE",
"185.5 -3 OFFCURVE",
"234.5 -3 CURVE SMOOTH"
);
}
);
width = 1004.5;
},
{
anchors = (
{
name = bottom;
position = "{499.5, 0}";
},
{
name = center;
position = "{297, 1120.5}";
},
{
name = top;
position = "{251, 1301.5}";
}
);
layerId = "78047C5B-B34F-4F0E-9C92-9BD1482D9144";
name = Bold;
paths = (
{
closed = 1;
nodes = (
"273.5 -3 LINE SMOOTH",
"348 -3 OFFCURVE",
"381 16.5 OFFCURVE",
"381 53 CURVE SMOOTH",
"381 623.5 LINE",
"401.5 664.5 OFFCURVE",
"449.5 727 OFFCURVE",
"522 727 CURVE SMOOTH",
"601 727 OFFCURVE",
"636 686 OFFCURVE",
"636 616.5 CURVE SMOOTH",
"636 53 LINE SMOOTH",
"636 16.5 OFFCURVE",
"668.5 -3 OFFCURVE",
"743.5 -3 CURVE SMOOTH",
"792.5 -3 LINE SMOOTH",
"867.5 -3 OFFCURVE",
"899 16.5 OFFCURVE",
"899 53 CURVE SMOOTH",
"899 656.5 LINE SMOOTH",
"899 853 OFFCURVE",
"809 944 OFFCURVE",
"631 944 CURVE SMOOTH",
"524.5 944 OFFCURVE",
"435 889 OFFCURVE",
"381 823.5 CURVE",
"381 1283 LINE SMOOTH",
"381 1321 OFFCURVE",
"348 1340.5 OFFCURVE",
"273.5 1340.5 CURVE SMOOTH",
"224.5 1340.5 LINE SMOOTH",
"149.5 1340.5 OFFCURVE",
"118 1321 OFFCURVE",
"118 1283 CURVE SMOOTH",
"118 53 LINE SMOOTH",
"118 16.5 OFFCURVE",
"149.5 -3 OFFCURVE",
"224.5 -3 CURVE SMOOTH"
);
}
);
width = 1004.5;
}
);
unicode = 0068;
},
{
glyphname = i;
lastChange = "2015-02-26 04:32:42 +0000";
layers = (
{
anchors = (
{
name = bottom;
position = "{232.5, 0}";
}
);
background = {
anchors = (
{
name = bottom;
position = "{232.5, 0}";
}
);
paths = (
{
closed = 1;
nodes = (
"239.5 -3 LINE SMOOTH",
"290 -3 OFFCURVE",
"311.5 10 OFFCURVE",
"311.5 36 CURVE SMOOTH",
"311.5 894 LINE SMOOTH",
"311.5 919.5 OFFCURVE",
"290 933 OFFCURVE",
"239.5 933 CURVE SMOOTH",
"232.5 933 LINE SMOOTH",
"183.5 933 OFFCURVE",
"162 919.5 OFFCURVE",
"162 894 CURVE SMOOTH",
"162 36 LINE SMOOTH",
"162 10 OFFCURVE",
"183.5 -3 OFFCURVE",
"232.5 -3 CURVE SMOOTH"
);
},
{
closed = 1;
nodes = (
"247 1154 LINE SMOOTH",
"297 1154 OFFCURVE",
"318.5 1168.5 OFFCURVE",
"318.5 1193 CURVE SMOOTH",
"318.5 1297.5 LINE SMOOTH",
"318.5 1323 OFFCURVE",
"297 1336.5 OFFCURVE",
"247 1336.5 CURVE SMOOTH",
"225.5 1336.5 LINE SMOOTH",
"176 1336.5 OFFCURVE",
"154.5 1323 OFFCURVE",
"154.5 1297.5 CURVE SMOOTH",
"154.5 1193 LINE SMOOTH",
"154.5 1168.5 OFFCURVE",
"176 1154 OFFCURVE",
"225.5 1154 CURVE"
);
}
);
};
layerId = "FB715283-CFB2-4766-AFCA-39E45F97C573";
name = Regular;
paths = (
{
closed = 1;
nodes = (
"239.5 -3 LINE SMOOTH",
"290 -3 OFFCURVE",
"311.5 10 OFFCURVE",
"311.5 36 CURVE SMOOTH",
"311.5 894 LINE SMOOTH",
"311.5 919.5 OFFCURVE",
"290 933 OFFCURVE",
"239.5 933 CURVE SMOOTH",
"232.5 933 LINE SMOOTH",
"183.5 933 OFFCURVE",
"162 919.5 OFFCURVE",
"162 894 CURVE SMOOTH",
"162 36 LINE SMOOTH",
"162 10 OFFCURVE",
"183.5 -3 OFFCURVE",
"232.5 -3 CURVE SMOOTH"
);
},
{
closed = 1;
nodes = (
"247 1154 LINE SMOOTH",
"297 1154 OFFCURVE",
"318.5 1168.5 OFFCURVE",
"318.5 1193 CURVE SMOOTH",
"318.5 1297.5 LINE SMOOTH",
"318.5 1323 OFFCURVE",
"297 1336.5 OFFCURVE",
"247 1336.5 CURVE SMOOTH",
"225.5 1336.5 LINE SMOOTH",
"176 1336.5 OFFCURVE",
"154.5 1323 OFFCURVE",
"154.5 1297.5 CURVE SMOOTH",
"154.5 1193 LINE SMOOTH",
"154.5 1168.5 OFFCURVE",
"176 1154 OFFCURVE",
"225.5 1154 CURVE"
);
}
);
width = 471;
},
{
anchors = (
{
name = bottom;
position = "{232.5, 0}";
}
);
layerId = "78047C5B-B34F-4F0E-9C92-9BD1482D9144";
name = Bold;
paths = (
{
closed = 1;
nodes = (
"261 -3 LINE SMOOTH",
"336 -3 OFFCURVE",
"367.5 16.5 OFFCURVE",
"367.5 53 CURVE SMOOTH",
"367.5 876.5 LINE SMOOTH",
"367.5 913.5 OFFCURVE",
"336 933 OFFCURVE",
"261 933 CURVE SMOOTH",
"212 933 LINE SMOOTH",
"137 933 OFFCURVE",
"104.5 913.5 OFFCURVE",
"104.5 876.5 CURVE SMOOTH",
"104.5 53 LINE SMOOTH",
"104.5 16.5 OFFCURVE",
"137 -3 OFFCURVE",
"212 -3 CURVE SMOOTH"
);
},
{
closed = 1;
nodes = (
"261 1082.5 LINE SMOOTH",
"336 1082.5 OFFCURVE",
"367.5 1102 OFFCURVE",
"367.5 1139.5 CURVE SMOOTH",
"367.5 1283 LINE SMOOTH",
"367.5 1321 OFFCURVE",
"336 1340.5 OFFCURVE",
"261 1340.5 CURVE SMOOTH",
"212 1340.5 LINE SMOOTH",
"137 1340.5 OFFCURVE",
"104.5 1321 OFFCURVE",
"104.5 1283 CURVE SMOOTH",
"104.5 1139.5 LINE SMOOTH",
"104.5 1102 OFFCURVE",
"137 1082.5 OFFCURVE",
"212 1082.5 CURVE SMOOTH"
);
}
);
width = 471;
}
);
unicode = 0069;
},
{
glyphname = idotless;
lastChange = "2015-02-26 04:32:42 +0000";
layers = (
{
anchors = (
{
name = bottom;
position = "{232.5, 0}";
},
{
name = ogonek;
position = "{280.5, 0}";
},
{
name = top;
position = "{236.5, 930}";
}
);
background = {
anchors = (
{
name = bottom;
position = "{232.5, 0}";
},
{
name = ogonek;
position = "{280.5, 0}";
},
{
name = top;
position = "{236.5, 930}";
}
);
paths = (
{
closed = 1;
nodes = (
"239.5 -3 LINE SMOOTH",
"290 -3 OFFCURVE",
"311.5 10 OFFCURVE",
"311.5 36 CURVE SMOOTH",
"311.5 894 LINE SMOOTH",
"311.5 919.5 OFFCURVE",
"290 933 OFFCURVE",
"239.5 933 CURVE SMOOTH",
"232.5 933 LINE SMOOTH",
"183.5 933 OFFCURVE",
"162 919.5 OFFCURVE",
"162 894 CURVE SMOOTH",
"162 36 LINE SMOOTH",
"162 10 OFFCURVE",
"183.5 -3 OFFCURVE",
"232.5 -3 CURVE SMOOTH"
);
}
);
};
layerId = "FB715283-CFB2-4766-AFCA-39E45F97C573";
name = Regular;
paths = (
{
closed = 1;
nodes = (
"239.5 -3 LINE SMOOTH",
"290 -3 OFFCURVE",
"311.5 10 OFFCURVE",
"311.5 36 CURVE SMOOTH",
"311.5 894 LINE SMOOTH",
"311.5 919.5 OFFCURVE",
"290 933 OFFCURVE",
"239.5 933 CURVE SMOOTH",
"232.5 933 LINE SMOOTH",
"183.5 933 OFFCURVE",
"162 919.5 OFFCURVE",
"162 894 CURVE SMOOTH",
"162 36 LINE SMOOTH",
"162 10 OFFCURVE",
"183.5 -3 OFFCURVE",
"232.5 -3 CURVE SMOOTH"
);
}
);
width = 471;
},
{
anchors = (
{
name = bottom;
position = "{232.5, 0}";
},
{
name = ogonek;
position = "{300, 0}";
},
{
name = top;
position = "{236.5, 930}";
}
);
layerId = "78047C5B-B34F-4F0E-9C92-9BD1482D9144";
name = Bold;
paths = (
{
closed = 1;
nodes = (
"261 -3 LINE SMOOTH",
"336 -3 OFFCURVE",
"367.5 16.5 OFFCURVE",
"367.5 53 CURVE SMOOTH",
"367.5 876.5 LINE SMOOTH",
"367.5 913.5 OFFCURVE",
"336 933 OFFCURVE",
"261 933 CURVE SMOOTH",
"212 933 LINE SMOOTH",
"137 933 OFFCURVE",
"104.5 913.5 OFFCURVE",
"104.5 876.5 CURVE SMOOTH",
"104.5 53 LINE SMOOTH",
"104.5 16.5 OFFCURVE",
"137 -3 OFFCURVE",
"212 -3 CURVE SMOOTH"
);
}
);
width = 471;
}
);
unicode = 0131;
},
{
glyphname = j;
lastChange = "2015-02-26 04:32:42 +0000";
layers = (
{
background = {
paths = (
{
closed = 1;
nodes = (
"188.5 -377 OFFCURVE",
"328.5 -338 OFFCURVE",
"328.5 -131 CURVE SMOOTH",
"328.5 894 LINE SMOOTH",
"328.5 919.5 OFFCURVE",
"307 933 OFFCURVE",
"258 933 CURVE SMOOTH",
"251 933 LINE SMOOTH",
"200.5 933 OFFCURVE",
"179 919.5 OFFCURVE",
"179 894 CURVE SMOOTH",
"179 -118 LINE SMOOTH",
"179 -224.5 OFFCURVE",
"135 -249 OFFCURVE",
"84 -249 CURVE SMOOTH",
"31.5 -249 OFFCURVE",
"23.5 -239.5 OFFCURVE",
"7 -239.5 CURVE SMOOTH",
"-17.5 -239.5 OFFCURVE",
"-30.5 -309 OFFCURVE",
"-30.5 -323.5 CURVE SMOOTH",
"-30.5 -371.5 OFFCURVE",
"51 -377 OFFCURVE",
"99.5 -377 CURVE SMOOTH"
);
},
{
closed = 1;
nodes = (
"265 1154 LINE SMOOTH",
"314.5 1154 OFFCURVE",
"336 1168.5 OFFCURVE",
"336 1193 CURVE SMOOTH",
"336 1297.5 LINE SMOOTH",
"336 1323 OFFCURVE",
"314.5 1336.5 OFFCURVE",
"265 1336.5 CURVE SMOOTH",
"243.5 1336.5 LINE SMOOTH",
"193.5 1336.5 OFFCURVE",
"172 1323 OFFCURVE",
"172 1297.5 CURVE SMOOTH",
"172 1193 LINE SMOOTH",
"172 1168.5 OFFCURVE",
"193.5 1154 OFFCURVE",
"243.5 1154 CURVE"
);
}
);
};
layerId = "FB715283-CFB2-4766-AFCA-39E45F97C573";
name = Regular;
paths = (
{
closed = 1;
nodes = (
"188.5 -377 OFFCURVE",
"328.5 -338 OFFCURVE",
"328.5 -131 CURVE SMOOTH",
"328.5 894 LINE SMOOTH",
"328.5 919.5 OFFCURVE",
"307 933 OFFCURVE",
"258 933 CURVE SMOOTH",
"251 933 LINE SMOOTH",
"200.5 933 OFFCURVE",
"179 919.5 OFFCURVE",
"179 894 CURVE SMOOTH",
"179 -118 LINE SMOOTH",
"179 -224.5 OFFCURVE",
"135 -249 OFFCURVE",
"84 -249 CURVE SMOOTH",
"31.5 -249 OFFCURVE",
"23.5 -239.5 OFFCURVE",
"7 -239.5 CURVE SMOOTH",
"-17.5 -239.5 OFFCURVE",
"-30.5 -309 OFFCURVE",
"-30.5 -323.5 CURVE SMOOTH",
"-30.5 -371.5 OFFCURVE",
"51 -377 OFFCURVE",
"99.5 -377 CURVE SMOOTH"
);
},
{
closed = 1;
nodes = (
"265 1154 LINE SMOOTH",
"314.5 1154 OFFCURVE",
"336 1168.5 OFFCURVE",
"336 1193 CURVE SMOOTH",
"336 1297.5 LINE SMOOTH",
"336 1323 OFFCURVE",
"314.5 1336.5 OFFCURVE",
"265 1336.5 CURVE SMOOTH",
"243.5 1336.5 LINE SMOOTH",
"193.5 1336.5 OFFCURVE",
"172 1323 OFFCURVE",
"172 1297.5 CURVE SMOOTH",
"172 1193 LINE SMOOTH",
"172 1168.5 OFFCURVE",
"193.5 1154 OFFCURVE",
"243.5 1154 CURVE"
);
}
);
width = 490.5;
},
{
layerId = "78047C5B-B34F-4F0E-9C92-9BD1482D9144";
name = Bold;
paths = (
{
closed = 1;
nodes = (
"275.5 -377 OFFCURVE",
"387 -282.5 OFFCURVE",
"387 -89 CURVE SMOOTH",
"387 876.5 LINE SMOOTH",
"387 913.5 OFFCURVE",
"355.5 933 OFFCURVE",
"280.5 933 CURVE SMOOTH",
"231.5 933 LINE SMOOTH",
"156.5 933 OFFCURVE",
"125 913.5 OFFCURVE",
"125 876.5 CURVE SMOOTH",
"125 -92 LINE SMOOTH",
"125 -145.5 OFFCURVE",
"106.5 -169 OFFCURVE",
"60.5 -169 CURVE SMOOTH",
"41 -169 OFFCURVE",
"17.5 -162 OFFCURVE",
"7 -162 CURVE SMOOTH",
"-30.5 -162 OFFCURVE",
"-57.5 -243.5 OFFCURVE",
"-57.5 -284.5 CURVE SMOOTH",
"-57.5 -353.5 OFFCURVE",
"-12.5 -377 OFFCURVE",
"128 -377 CURVE SMOOTH"
);
},
{
closed = 1;
nodes = (
"280.5 1082.5 LINE SMOOTH",
"355.5 1082.5 OFFCURVE",
"387 1102 OFFCURVE",
"387 1139.5 CURVE SMOOTH",
"387 1283 LINE SMOOTH",
"387 1321 OFFCURVE",
"355.5 1340.5 OFFCURVE",
"280.5 1340.5 CURVE SMOOTH",
"231.5 1340.5 LINE SMOOTH",
"156.5 1340.5 OFFCURVE",
"125 1321 OFFCURVE",
"125 1283 CURVE SMOOTH",
"125 1139.5 LINE SMOOTH",
"125 1102 OFFCURVE",
"156.5 1082.5 OFFCURVE",
"231.5 1082.5 CURVE SMOOTH"
);
}
);
width = 490.5;
}
);
unicode = 006A;
},
{
glyphname = jdotless;
lastChange = "2015-02-26 04:32:42 +0000";
layers = (
{
anchors = (
{
name = top;
position = "{254, 930}";
}
);
background = {
anchors = (
{
name = top;
position = "{254, 930}";
}
);
paths = (
{
closed = 1;
nodes = (
"188.5 -377 OFFCURVE",
"328.5 -338 OFFCURVE",
"328.5 -131 CURVE SMOOTH",
"328.5 894 LINE SMOOTH",
"328.5 919.5 OFFCURVE",
"307 933 OFFCURVE",
"258 933 CURVE SMOOTH",
"251 933 LINE SMOOTH",
"200.5 933 OFFCURVE",
"179 919.5 OFFCURVE",
"179 894 CURVE SMOOTH",
"179 -118 LINE SMOOTH",
"179 -224.5 OFFCURVE",
"135 -249 OFFCURVE",
"84 -249 CURVE SMOOTH",
"31.5 -249 OFFCURVE",
"23.5 -239.5 OFFCURVE",
"7 -239.5 CURVE SMOOTH",
"-17.5 -239.5 OFFCURVE",
"-30.5 -309 OFFCURVE",
"-30.5 -323.5 CURVE SMOOTH",
"-30.5 -371.5 OFFCURVE",
"51 -377 OFFCURVE",
"99.5 -377 CURVE SMOOTH"
);
}
);
};
layerId = "FB715283-CFB2-4766-AFCA-39E45F97C573";
name = Regular;
paths = (
{
closed = 1;
nodes = (
"188.5 -377 OFFCURVE",
"328.5 -338 OFFCURVE",
"328.5 -131 CURVE SMOOTH",
"328.5 894 LINE SMOOTH",
"328.5 919.5 OFFCURVE",
"307 933 OFFCURVE",
"258 933 CURVE SMOOTH",
"251 933 LINE SMOOTH",
"200.5 933 OFFCURVE",
"179 919.5 OFFCURVE",
"179 894 CURVE SMOOTH",
"179 -118 LINE SMOOTH",
"179 -224.5 OFFCURVE",
"135 -249 OFFCURVE",
"84 -249 CURVE SMOOTH",
"31.5 -249 OFFCURVE",
"23.5 -239.5 OFFCURVE",
"7 -239.5 CURVE SMOOTH",
"-17.5 -239.5 OFFCURVE",
"-30.5 -309 OFFCURVE",
"-30.5 -323.5 CURVE SMOOTH",
"-30.5 -371.5 OFFCURVE",
"51 -377 OFFCURVE",
"99.5 -377 CURVE SMOOTH"
);
}
);
width = 490.5;
},
{
anchors = (
{
name = top;
position = "{256, 930}";
}
);
layerId = "78047C5B-B34F-4F0E-9C92-9BD1482D9144";
name = Bold;
paths = (
{
closed = 1;
nodes = (
"275.5 -377 OFFCURVE",
"387 -282.5 OFFCURVE",
"387 -89 CURVE SMOOTH",
"387 876.5 LINE SMOOTH",
"387 913.5 OFFCURVE",
"355.5 933 OFFCURVE",
"280.5 933 CURVE SMOOTH",
"231.5 933 LINE SMOOTH",
"156.5 933 OFFCURVE",
"125 913.5 OFFCURVE",
"125 876.5 CURVE SMOOTH",
"125 -92 LINE SMOOTH",
"125 -145.5 OFFCURVE",
"106.5 -169 OFFCURVE",
"60.5 -169 CURVE SMOOTH",
"41 -169 OFFCURVE",
"17.5 -162 OFFCURVE",
"7 -162 CURVE SMOOTH",
"-30.5 -162 OFFCURVE",
"-57.5 -243.5 OFFCURVE",
"-57.5 -284.5 CURVE SMOOTH",
"-57.5 -353.5 OFFCURVE",
"-12.5 -377 OFFCURVE",
"128 -377 CURVE SMOOTH"
);
}
);
width = 490.5;
}
);
unicode = 0237;
},
{
glyphname = k;
lastChange = "2015-02-26 04:32:42 +0000";
layers = (
{
anchors = (
{
name = bottom;
position = "{464, 0}";
}
);
background = {
anchors = (
{
name = bottom;
position = "{464, 0}";
}
);
paths = (
{
closed = 1;
nodes = (
"246 -3 LINE SMOOTH",
"295 -3 OFFCURVE",
"316.5 10 OFFCURVE",
"316.5 36 CURVE SMOOTH",
"316.5 441.5 LINE",
"323.5 441.5 LINE",
"679 19.5 LINE SMOOTH",
"697.5 -2 OFFCURVE",
"736.5 -3 OFFCURVE",
"775 -3 CURVE SMOOTH",
"782.5 -3 LINE SMOOTH",
"837.5 -3 OFFCURVE",
"860 2 OFFCURVE",
"860 21.5 CURVE SMOOTH",
"860 28.5 OFFCURVE",
"857 36 OFFCURVE",
"845 50 CURVE SMOOTH",
"478 483.5 LINE",
"809 874.5 LINE SMOOTH",
"821 889 OFFCURVE",
"826.5 901 OFFCURVE",
"826.5 910.5 CURVE SMOOTH",
"826.5 922.5 OFFCURVE",
"807 933 OFFCURVE",
"764 933 CURVE SMOOTH",
"758 933 LINE SMOOTH",
"718 933 OFFCURVE",
"679 927.5 OFFCURVE",
"663.5 908.5 CURVE SMOOTH",
"323.5 503 LINE",
"316.5 503 LINE",
"316.5 1297.5 LINE SMOOTH",
"316.5 1323 OFFCURVE",
"295 1336.5 OFFCURVE",
"246 1336.5 CURVE SMOOTH",
"238.5 1336.5 LINE SMOOTH",
"188.5 1336.5 OFFCURVE",
"167 1323 OFFCURVE",
"167 1297.5 CURVE SMOOTH",
"167 36 LINE SMOOTH",
"167 10 OFFCURVE",
"188.5 -3 OFFCURVE",
"238.5 -3 CURVE SMOOTH"
);
}
);
};
layerId = "FB715283-CFB2-4766-AFCA-39E45F97C573";
name = Regular;
paths = (
{
closed = 1;
nodes = (
"246 -3 LINE SMOOTH",
"295 -3 OFFCURVE",
"316.5 10 OFFCURVE",
"316.5 36 CURVE SMOOTH",
"316.5 441.5 LINE",
"323.5 441.5 LINE",
"679 19.5 LINE SMOOTH",
"697.5 -2 OFFCURVE",
"736.5 -3 OFFCURVE",
"775 -3 CURVE SMOOTH",
"782.5 -3 LINE SMOOTH",
"837.5 -3 OFFCURVE",
"860 2 OFFCURVE",
"860 21.5 CURVE SMOOTH",
"860 28.5 OFFCURVE",
"857 36 OFFCURVE",
"845 50 CURVE SMOOTH",
"478 483.5 LINE",
"809 874.5 LINE SMOOTH",
"821 889 OFFCURVE",
"826.5 901 OFFCURVE",
"826.5 910.5 CURVE SMOOTH",
"826.5 922.5 OFFCURVE",
"807 933 OFFCURVE",
"764 933 CURVE SMOOTH",
"758 933 LINE SMOOTH",
"718 933 OFFCURVE",
"679 927.5 OFFCURVE",
"663.5 908.5 CURVE SMOOTH",
"323.5 503 LINE",
"316.5 503 LINE",
"316.5 1297.5 LINE SMOOTH",
"316.5 1323 OFFCURVE",
"295 1336.5 OFFCURVE",
"246 1336.5 CURVE SMOOTH",
"238.5 1336.5 LINE SMOOTH",
"188.5 1336.5 OFFCURVE",
"167 1323 OFFCURVE",
"167 1297.5 CURVE SMOOTH",
"167 36 LINE SMOOTH",
"167 10 OFFCURVE",
"188.5 -3 OFFCURVE",
"238.5 -3 CURVE SMOOTH"
);
}
);
width = 925.5;
},
{
anchors = (
{
name = bottom;
position = "{464, 0}";
}
);
layerId = "78047C5B-B34F-4F0E-9C92-9BD1482D9144";
name = Bold;
paths = (
{
closed = 1;
nodes = (
"273.5 -3 LINE SMOOTH",
"348 -3 OFFCURVE",
"381 16.5 OFFCURVE",
"381 53 CURVE SMOOTH",
"381 437 LINE",
"387 439.5 LINE",
"635 30.5 LINE SMOOTH",
"650 3 OFFCURVE",
"690 -3 OFFCURVE",
"741.5 -3 CURVE SMOOTH",
"816 -3 LINE SMOOTH",
"886 -3 OFFCURVE",
"917.5 7 OFFCURVE",
"917.5 23.5 CURVE SMOOTH",
"917.5 34 OFFCURVE",
"912.5 44 OFFCURVE",
"903 60.5 CURVE SMOOTH",
"613.5 519 LINE",
"860 871.5 LINE SMOOTH",
"871.5 886 OFFCURVE",
"876.5 898 OFFCURVE",
"876.5 906 CURVE SMOOTH",
"876.5 922.5 OFFCURVE",
"845 933 OFFCURVE",
"777 933 CURVE SMOOTH",
"710.5 933 LINE SMOOTH",
"659.5 933 OFFCURVE",
"623.5 930 OFFCURVE",
"603 899 CURVE SMOOTH",
"387 577.5 LINE",
"381 579.5 LINE",
"381 1283 LINE SMOOTH",
"381 1321 OFFCURVE",
"348 1340.5 OFFCURVE",
"273.5 1340.5 CURVE SMOOTH",
"224.5 1340.5 LINE SMOOTH",
"149.5 1340.5 OFFCURVE",
"118 1321 OFFCURVE",
"118 1283 CURVE SMOOTH",
"118 53 LINE SMOOTH",
"118 16.5 OFFCURVE",
"149.5 -3 OFFCURVE",
"224.5 -3 CURVE SMOOTH"
);
}
);
width = 925.5;
}
);
unicode = 006B;
},
{
glyphname = kgreenlandic;
lastChange = "2015-02-26 04:32:42 +0000";
layers = (
{
background = {
paths = (
{
closed = 1;
nodes = (
"246 -3 LINE SMOOTH",
"295 -3 OFFCURVE",
"316.5 10 OFFCURVE",
"316.5 36 CURVE SMOOTH",
"316.5 441.5 LINE",
"323.5 441.5 LINE",
"679 19.5 LINE SMOOTH",
"697.5 -2 OFFCURVE",
"736.5 -3 OFFCURVE",
"775 -3 CURVE SMOOTH",
"782.5 -3 LINE SMOOTH",
"837.5 -3 OFFCURVE",
"860 2 OFFCURVE",
"860 21.5 CURVE SMOOTH",
"860 28.5 OFFCURVE",
"857 36 OFFCURVE",
"845 50 CURVE SMOOTH",
"478 483.5 LINE",
"809 874.5 LINE SMOOTH",
"821 889 OFFCURVE",
"826.5 901 OFFCURVE",
"826.5 910.5 CURVE SMOOTH",
"826.5 922.5 OFFCURVE",
"807 933 OFFCURVE",
"764 933 CURVE SMOOTH",
"758 933 LINE SMOOTH",
"718 933 OFFCURVE",
"679 927.5 OFFCURVE",
"663.5 908.5 CURVE SMOOTH",
"323.5 503 LINE",
"316.5 503 LINE",
"316.5 896 LINE SMOOTH",
"316.5 920.5 OFFCURVE",
"295 935 OFFCURVE",
"246 935 CURVE SMOOTH",
"238.5 935 LINE SMOOTH",
"188.5 935 OFFCURVE",
"167 920.5 OFFCURVE",
"167 896 CURVE SMOOTH",
"167 36 LINE SMOOTH",
"167 10 OFFCURVE",
"188.5 -3 OFFCURVE",
"238.5 -3 CURVE SMOOTH"
);
}
);
};
layerId = "FB715283-CFB2-4766-AFCA-39E45F97C573";
name = Regular;
paths = (
{
closed = 1;
nodes = (
"246 -3 LINE SMOOTH",
"295 -3 OFFCURVE",
"316.5 10 OFFCURVE",
"316.5 36 CURVE SMOOTH",
"316.5 441.5 LINE",
"323.5 441.5 LINE",
"679 19.5 LINE SMOOTH",
"697.5 -2 OFFCURVE",
"736.5 -3 OFFCURVE",
"775 -3 CURVE SMOOTH",
"782.5 -3 LINE SMOOTH",
"837.5 -3 OFFCURVE",
"860 2 OFFCURVE",
"860 21.5 CURVE SMOOTH",
"860 28.5 OFFCURVE",
"857 36 OFFCURVE",
"845 50 CURVE SMOOTH",
"478 483.5 LINE",
"809 874.5 LINE SMOOTH",
"821 889 OFFCURVE",
"826.5 901 OFFCURVE",
"826.5 910.5 CURVE SMOOTH",
"826.5 922.5 OFFCURVE",
"807 933 OFFCURVE",
"764 933 CURVE SMOOTH",
"758 933 LINE SMOOTH",
"718 933 OFFCURVE",
"679 927.5 OFFCURVE",
"663.5 908.5 CURVE SMOOTH",
"323.5 503 LINE",
"316.5 503 LINE",
"316.5 896 LINE SMOOTH",
"316.5 920.5 OFFCURVE",
"295 935 OFFCURVE",
"246 935 CURVE SMOOTH",
"238.5 935 LINE SMOOTH",
"188.5 935 OFFCURVE",
"167 920.5 OFFCURVE",
"167 896 CURVE SMOOTH",
"167 36 LINE SMOOTH",
"167 10 OFFCURVE",
"188.5 -3 OFFCURVE",
"238.5 -3 CURVE SMOOTH"
);
}
);
width = 925.5;
},
{
layerId = "78047C5B-B34F-4F0E-9C92-9BD1482D9144";
name = Bold;
paths = (
{
closed = 1;
nodes = (
"273.5 -3 LINE SMOOTH",
"348 -3 OFFCURVE",
"381 16.5 OFFCURVE",
"381 53 CURVE SMOOTH",
"381 437 LINE",
"387 439.5 LINE",
"635 30.5 LINE SMOOTH",
"650 3 OFFCURVE",
"690 -3 OFFCURVE",
"741.5 -3 CURVE SMOOTH",
"816 -3 LINE SMOOTH",
"886 -3 OFFCURVE",
"917.5 7 OFFCURVE",
"917.5 23.5 CURVE SMOOTH",
"917.5 34 OFFCURVE",
"912.5 44 OFFCURVE",
"903 60.5 CURVE SMOOTH",
"613.5 519 LINE",
"860 871.5 LINE SMOOTH",
"871.5 886 OFFCURVE",
"876.5 898 OFFCURVE",
"876.5 906 CURVE SMOOTH",
"876.5 922.5 OFFCURVE",
"845 933 OFFCURVE",
"777 933 CURVE SMOOTH",
"710.5 933 LINE SMOOTH",
"659.5 933 OFFCURVE",
"623.5 930 OFFCURVE",
"603 899 CURVE SMOOTH",
"387 577.5 LINE",
"381 579.5 LINE",
"381 876.5 LINE SMOOTH",
"381 913.5 OFFCURVE",
"348 933 OFFCURVE",
"273.5 933 CURVE SMOOTH",
"224.5 933 LINE SMOOTH",
"149.5 933 OFFCURVE",
"118 913.5 OFFCURVE",
"118 876.5 CURVE SMOOTH",
"118 53 LINE SMOOTH",
"118 16.5 OFFCURVE",
"149.5 -3 OFFCURVE",
"224.5 -3 CURVE SMOOTH"
);
}
);
width = 925.5;
}
);
unicode = 0138;
},
{
glyphname = l;
lastChange = "2015-02-26 04:32:42 +0000";
layers = (
{
anchors = (
{
name = bottom;
position = "{318.5, 0}";
},
{
name = caron;
position = "{295, 1248.5}";
},
{
name = center;
position = "{495.5, 596}";
},
{
name = top;
position = "{222, 1280}";
}
);
background = {
anchors = (
{
name = bottom;
position = "{318.5, 0}";
},
{
name = caron;
position = "{295, 1248.5}";
},
{
name = center;
position = "{495.5, 596}";
},
{
name = top;
position = "{222, 1280}";
}
);
paths = (
{
closed = 1;
nodes = (
"423 -10 OFFCURVE",
"505 -5 OFFCURVE",
"505 43 CURVE SMOOTH",
"505 57.5 OFFCURVE",
"492.5 126 OFFCURVE",
"468 126 CURVE SMOOTH",
"451.5 126 OFFCURVE",
"442.5 118 OFFCURVE",
"391 118 CURVE SMOOTH",
"340 118 OFFCURVE",
"295 142.5 OFFCURVE",
"295 249 CURVE SMOOTH",
"295 1297.5 LINE SMOOTH",
"295 1323 OFFCURVE",
"273.5 1336.5 OFFCURVE",
"224.5 1336.5 CURVE SMOOTH",
"217 1336.5 LINE SMOOTH",
"167 1336.5 OFFCURVE",
"145.5 1323 OFFCURVE",
"145.5 1297.5 CURVE SMOOTH",
"145.5 234.5 LINE SMOOTH",
"145.5 28.5 OFFCURVE",
"285.5 -10 OFFCURVE",
"375 -10 CURVE SMOOTH"
);
}
);
};
layerId = "FB715283-CFB2-4766-AFCA-39E45F97C573";
name = Regular;
paths = (
{
closed = 1;
nodes = (
"423 -10 OFFCURVE",
"505 -5 OFFCURVE",
"505 43 CURVE SMOOTH",
"505 57.5 OFFCURVE",
"492.5 126 OFFCURVE",
"468 126 CURVE SMOOTH",
"451.5 126 OFFCURVE",
"442.5 118 OFFCURVE",
"391 118 CURVE SMOOTH",
"340 118 OFFCURVE",
"295 142.5 OFFCURVE",
"295 249 CURVE SMOOTH",
"295 1297.5 LINE SMOOTH",
"295 1323 OFFCURVE",
"273.5 1336.5 OFFCURVE",
"224.5 1336.5 CURVE SMOOTH",
"217 1336.5 LINE SMOOTH",
"167 1336.5 OFFCURVE",
"145.5 1323 OFFCURVE",
"145.5 1297.5 CURVE SMOOTH",
"145.5 234.5 LINE SMOOTH",
"145.5 28.5 OFFCURVE",
"285.5 -10 OFFCURVE",
"375 -10 CURVE SMOOTH"
);
}
);
width = 528.5;
},
{
anchors = (
{
name = bottom;
position = "{325.5, 0}";
},
{
name = caron;
position = "{343, 1336.5}";
},
{
name = center;
position = "{541.5, 596}";
},
{
name = top;
position = "{241.5, 1280}";
}
);
layerId = "78047C5B-B34F-4F0E-9C92-9BD1482D9144";
name = Bold;
paths = (
{
closed = 1;
nodes = (
"427 -14.5 OFFCURVE",
"541.5 -9 OFFCURVE",
"541.5 72.5 CURVE SMOOTH",
"541.5 87 OFFCURVE",
"522 200.5 OFFCURVE",
"487.5 200.5 CURVE SMOOTH",
"476 200.5 OFFCURVE",
"454.5 193.5 OFFCURVE",
"439.5 193.5 CURVE SMOOTH",
"393 193.5 OFFCURVE",
"375 217 OFFCURVE",
"375 270.5 CURVE SMOOTH",
"375 1283 LINE SMOOTH",
"375 1321 OFFCURVE",
"343 1340.5 OFFCURVE",
"268.5 1340.5 CURVE SMOOTH",
"219 1340.5 LINE SMOOTH",
"144.5 1340.5 OFFCURVE",
"111.5 1321 OFFCURVE",
"111.5 1283 CURVE SMOOTH",
"111.5 273.5 LINE SMOOTH",
"111.5 77 OFFCURVE",
"205 -14.5 OFFCURVE",
"371.5 -14.5 CURVE SMOOTH"
);
}
);
width = 528.5;
}
);
unicode = 006C;
},
{
glyphname = lslash;
lastChange = "2015-02-26 04:32:42 +0000";
layers = (
{
background = {
paths = (
{
closed = 1;
nodes = (
"420 -10 OFFCURVE",
"502 -5 OFFCURVE",
"502 43 CURVE SMOOTH",
"502 57.5 OFFCURVE",
"488.5 126 OFFCURVE",
"464 126 CURVE SMOOTH",
"447.5 126 OFFCURVE",
"439.5 118 OFFCURVE",
"387 118 CURVE SMOOTH",
"336 118 OFFCURVE",
"292 142.5 OFFCURVE",
"292 249 CURVE SMOOTH",
"292 715 LINE",
"366.5 759 LINE SMOOTH",
"387 771 OFFCURVE",
"400.5 787.5 OFFCURVE",
"400.5 812 CURVE SMOOTH",
"400.5 823.5 LINE SMOOTH",
"400.5 838.5 OFFCURVE",
"393 848 OFFCURVE",
"384 848 CURVE SMOOTH",
"379 848 OFFCURVE",
"374 845 OFFCURVE",
"366.5 840.5 CURVE SMOOTH",
"292 796.5 LINE",
"292 1297.5 LINE SMOOTH",
"292 1323 OFFCURVE",
"270.5 1336.5 OFFCURVE",
"220 1336.5 CURVE SMOOTH",
"213 1336.5 LINE SMOOTH",
"164 1336.5 OFFCURVE",
"142.5 1323 OFFCURVE",
"142.5 1297.5 CURVE SMOOTH",
"142.5 707.5 LINE",
"67.5 664.5 LINE SMOOTH",
"46 652.5 OFFCURVE",
"34 636 OFFCURVE",
"34 611.5 CURVE SMOOTH",
"34 601 LINE SMOOTH",
"34 584.5 OFFCURVE",
"41 575.5 OFFCURVE",
"50 575.5 CURVE SMOOTH",
"53 575.5 OFFCURVE",
"60.5 577.5 OFFCURVE",
"67.5 582.5 CURVE SMOOTH",
"142.5 627.5 LINE",
"142.5 234.5 LINE SMOOTH",
"142.5 28.5 OFFCURVE",
"282.5 -10 OFFCURVE",
"371.5 -10 CURVE SMOOTH"
);
}
);
};
layerId = "FB715283-CFB2-4766-AFCA-39E45F97C573";
name = Regular;
paths = (
{
closed = 1;
nodes = (
"420 -10 OFFCURVE",
"502 -5 OFFCURVE",
"502 43 CURVE SMOOTH",
"502 57.5 OFFCURVE",
"488.5 126 OFFCURVE",
"464 126 CURVE SMOOTH",
"447.5 126 OFFCURVE",
"439.5 118 OFFCURVE",
"387 118 CURVE SMOOTH",
"336 118 OFFCURVE",
"292 142.5 OFFCURVE",
"292 249 CURVE SMOOTH",
"292 715 LINE",
"366.5 759 LINE SMOOTH",
"387 771 OFFCURVE",
"400.5 787.5 OFFCURVE",
"400.5 812 CURVE SMOOTH",
"400.5 823.5 LINE SMOOTH",
"400.5 838.5 OFFCURVE",
"393 848 OFFCURVE",
"384 848 CURVE SMOOTH",
"379 848 OFFCURVE",
"374 845 OFFCURVE",
"366.5 840.5 CURVE SMOOTH",
"292 796.5 LINE",
"292 1297.5 LINE SMOOTH",
"292 1323 OFFCURVE",
"270.5 1336.5 OFFCURVE",
"220 1336.5 CURVE SMOOTH",
"213 1336.5 LINE SMOOTH",
"164 1336.5 OFFCURVE",
"142.5 1323 OFFCURVE",
"142.5 1297.5 CURVE SMOOTH",
"142.5 707.5 LINE",
"67.5 664.5 LINE SMOOTH",
"46 652.5 OFFCURVE",
"34 636 OFFCURVE",
"34 611.5 CURVE SMOOTH",
"34 601 LINE SMOOTH",
"34 584.5 OFFCURVE",
"41 575.5 OFFCURVE",
"50 575.5 CURVE SMOOTH",
"53 575.5 OFFCURVE",
"60.5 577.5 OFFCURVE",
"67.5 582.5 CURVE SMOOTH",
"142.5 627.5 LINE",
"142.5 234.5 LINE SMOOTH",
"142.5 28.5 OFFCURVE",
"282.5 -10 OFFCURVE",
"371.5 -10 CURVE SMOOTH"
);
}
);
width = 521;
},
{
layerId = "78047C5B-B34F-4F0E-9C92-9BD1482D9144";
name = Bold;
paths = (
{
closed = 1;
nodes = (
"420 -14.5 OFFCURVE",
"535.5 -9 OFFCURVE",
"535.5 72.5 CURVE SMOOTH",
"535.5 87 OFFCURVE",
"515 200.5 OFFCURVE",
"480.5 200.5 CURVE SMOOTH",
"469 200.5 OFFCURVE",
"447.5 193.5 OFFCURVE",
"432 193.5 CURVE SMOOTH",
"386 193.5 OFFCURVE",
"367.5 217 OFFCURVE",
"367.5 270.5 CURVE SMOOTH",
"367.5 732 LINE",
"410.5 759 LINE SMOOTH",
"442.5 778 OFFCURVE",
"456.5 799.5 OFFCURVE",
"456.5 838.5 CURVE SMOOTH",
"456.5 874.5 LINE SMOOTH",
"456.5 899 OFFCURVE",
"449.5 910.5 OFFCURVE",
"437 910.5 CURVE SMOOTH",
"430 910.5 OFFCURVE",
"421 906 OFFCURVE",
"410.5 901 CURVE SMOOTH",
"367.5 874.5 LINE",
"367.5 1283 LINE SMOOTH",
"367.5 1321 OFFCURVE",
"336 1340.5 OFFCURVE",
"261 1340.5 CURVE SMOOTH",
"212 1340.5 LINE SMOOTH",
"137 1340.5 OFFCURVE",
"104.5 1321 OFFCURVE",
"104.5 1283 CURVE SMOOTH",
"104.5 717 LINE",
"65.5 693 LINE SMOOTH",
"34 674 OFFCURVE",
"19.5 649 OFFCURVE",
"19.5 611.5 CURVE SMOOTH",
"19.5 575.5 LINE SMOOTH",
"19.5 551 OFFCURVE",
"24.5 540.5 OFFCURVE",
"37 540.5 CURVE SMOOTH",
"44 540.5 OFFCURVE",
"53 543.5 OFFCURVE",
"65.5 551 CURVE SMOOTH",
"104.5 574.5 LINE",
"104.5 273.5 LINE SMOOTH",
"104.5 77 OFFCURVE",
"197.5 -14.5 OFFCURVE",
"364.5 -14.5 CURVE SMOOTH"
);
}
);
width = 521;
}
);
unicode = 0142;
},
